{"glyphs":{"0":{"ha":822,"x_min":56,"x_max":767,"o":"m 469 119 q 424 86 436 110 q 420 39 413 63 q 450 3 428 15 q 506 0 472 -10 q 588 41 553 14 q 654 104 624 68 q 736 262 706 167 q 767 474 767 357 q 721 728 767 619 q 595 898 675 838 q 411 958 515 958 q 226 898 307 958 q 101 728 146 838 q 56 474 56 618 q 86 262 56 357 q 168 104 117 167 q 234 41 199 68 q 317 0 269 14 q 372 3 350 -10 q 402 39 394 15 q 398 86 410 63 q 353 119 386 110 q 304 145 325 128 q 265 185 283 163 q 219 261 239 217 q 190 360 200 306 q 181 474 181 414 q 208 656 181 575 q 287 785 235 738 q 411 833 339 833 q 508 806 465 833 q 581 729 551 778 q 626 615 610 681 q 642 474 642 550 q 632 360 642 414 q 603 261 622 306 q 557 185 583 217 q 518 145 539 163 q 469 119 497 128 z "},"1":{"ha":478,"x_min":17,"x_max":367,"o":"m 65 876 q 25 838 33 863 q 26 792 17 814 q 60 760 36 769 q 115 763 83 750 q 177 785 154 778 q 214 795 200 793 q 238 797 228 797 q 243 795 242 797 q 244 785 244 793 q 244 761 244 776 q 242 719 243 746 q 242 653 242 693 q 242 553 242 600 q 242 458 242 507 q 242 354 242 410 q 242 229 242 299 q 242 172 242 201 q 242 114 242 143 q 242 56 242 85 q 260 2 242 19 q 304 -15 279 -15 q 348 3 329 -15 q 367 56 367 21 q 367 108 367 85 q 367 160 367 132 q 367 229 367 188 q 367 319 367 276 q 367 410 367 363 q 367 517 367 458 q 367 653 367 575 q 365 803 367 749 q 353 885 363 858 q 326 919 344 911 q 276 926 308 926 q 210 919 249 926 q 134 901 172 913 q 65 876 96 890 z "},"2":{"ha":701,"x_min":63,"x_max":656,"o":"m 111 911 q 71 873 79 897 q 72 826 63 849 q 106 792 82 803 q 161 797 129 782 q 246 824 201 814 q 336 833 290 833 q 417 819 378 833 q 483 776 457 806 q 510 697 510 746 q 467 578 510 635 q 357 447 424 521 q 293 376 325 411 q 230 306 261 340 q 168 239 199 272 q 106 172 138 206 q 76 118 83 147 q 78 62 68 89 q 116 17 88 35 q 193 0 144 0 q 278 0 243 0 q 342 0 314 0 q 397 0 371 0 q 454 0 424 0 q 499 0 482 0 q 534 0 515 0 q 586 0 553 0 q 638 19 621 0 q 656 63 656 38 q 638 106 656 88 q 586 125 621 125 q 542 125 557 125 q 510 125 526 125 q 467 125 494 125 q 387 125 422 125 q 323 125 351 125 q 274 125 294 125 q 252 129 258 125 q 249 141 246 133 q 263 160 251 149 q 338 239 292 189 q 450 364 383 289 q 553 486 513 433 q 615 589 594 539 q 635 697 635 639 q 590 847 635 789 q 475 931 544 904 q 332 958 406 958 q 213 945 268 958 q 111 911 158 932 z "},"3":{"ha":678,"x_min":50,"x_max":632,"o":"m 150 147 q 94 151 118 161 q 60 117 71 140 q 59 70 50 94 q 100 32 68 46 q 172 7 135 17 q 247 -8 208 -3 q 324 -12 285 -12 q 442 10 386 -12 q 541 71 499 32 q 608 161 583 110 q 632 272 632 213 q 608 390 632 342 q 544 472 583 439 q 460 522 506 504 q 371 544 414 539 q 309 560 333 549 q 267 581 285 572 q 232 587 249 590 q 193 558 215 583 q 158 506 168 529 q 153 467 149 483 q 173 440 157 450 q 214 429 189 431 q 255 446 232 428 q 301 491 278 464 q 347 546 325 518 q 383 592 368 574 q 430 645 403 615 q 490 712 457 675 q 557 790 522 749 q 591 840 579 817 q 603 882 603 863 q 593 915 604 901 q 557 937 582 929 q 493 944 532 944 q 390 944 442 944 q 289 944 338 944 q 199 944 240 944 q 126 944 157 944 q 74 926 92 944 q 56 882 56 907 q 74 838 56 857 q 126 819 92 819 q 181 819 146 819 q 258 819 217 819 q 338 819 300 819 q 401 819 376 819 q 433 808 413 819 q 475 786 453 797 q 519 774 497 775 q 557 790 542 772 q 591 840 579 817 q 603 882 603 863 q 593 915 604 901 q 557 937 582 929 q 493 944 532 944 q 424 933 444 944 q 402 905 404 922 q 406 868 400 888 q 417 833 413 849 q 414 807 422 817 q 386 775 406 797 q 341 724 367 753 q 288 665 315 696 q 235 607 260 635 q 193 558 211 579 q 158 506 168 529 q 153 467 149 483 q 173 440 157 450 q 214 429 189 431 q 260 426 238 428 q 307 424 283 425 q 357 419 331 422 q 406 408 381 417 q 455 382 432 399 q 492 338 478 365 q 507 272 507 311 q 481 190 507 226 q 414 133 456 154 q 324 113 372 113 q 234 122 278 113 q 150 147 190 131 z "},"4":{"ha":729,"x_min":7,"x_max":726,"o":"m 656 231 q 709 249 692 231 q 726 293 726 268 q 709 337 726 318 q 656 356 692 356 q 570 356 615 356 q 479 356 525 356 q 391 356 433 356 q 315 356 349 356 q 271 356 290 356 q 237 356 251 356 q 211 356 222 356 q 192 356 200 356 q 176 356 181 356 q 172 359 171 356 q 181 374 174 363 q 194 395 186 382 q 214 425 203 408 q 237 460 225 442 q 261 496 249 478 q 292 543 272 513 q 337 612 313 574 q 387 691 361 650 q 435 769 413 732 q 469 808 450 794 q 506 831 488 822 q 541 847 525 840 q 567 865 557 854 q 576 896 576 876 q 560 933 576 919 q 520 949 544 946 q 471 949 496 953 q 428 936 446 944 q 411 911 410 928 q 422 873 413 894 q 442 828 432 851 q 451 781 451 804 q 451 701 451 757 q 451 576 451 646 q 451 435 451 506 q 451 309 451 365 q 451 228 451 253 q 451 167 451 194 q 451 113 451 139 q 451 56 451 86 q 470 3 451 21 q 514 -15 489 -15 q 558 3 539 -15 q 576 56 576 21 q 576 110 576 85 q 576 163 576 135 q 576 226 576 190 q 576 283 576 247 q 576 362 576 318 q 576 451 576 406 q 576 537 576 496 q 576 607 576 578 q 576 663 576 625 q 576 745 576 700 q 576 831 576 790 q 576 896 576 872 q 560 933 576 919 q 520 949 544 946 q 471 949 496 953 q 428 936 446 944 q 387 908 404 925 q 356 872 369 892 q 329 833 342 853 q 294 781 319 819 q 237 691 269 742 q 172 591 204 640 q 117 506 140 542 q 88 461 93 471 q 70 434 78 446 q 53 406 63 422 q 25 360 43 389 q 10 301 7 331 q 32 251 14 271 q 78 231 50 231 q 124 231 106 231 q 160 231 142 231 q 204 231 178 231 q 267 231 225 231 q 362 231 308 231 q 472 231 415 231 q 576 231 528 231 q 656 231 625 231 z "},"5":{"ha":696,"x_min":58,"x_max":647,"o":"m 542 819 q 595 838 578 819 q 613 882 613 857 q 599 926 614 907 q 551 944 583 944 q 478 944 506 944 q 415 944 451 944 q 349 944 386 944 q 267 944 313 944 q 199 935 228 944 q 153 902 171 925 q 131 839 136 879 q 125 788 128 814 q 119 739 122 763 q 114 692 117 715 q 108 638 111 668 q 104 578 106 608 q 103 522 103 549 q 108 488 103 503 q 122 463 113 474 q 147 448 132 453 q 183 444 163 443 q 237 447 211 446 q 286 449 263 449 q 331 450 310 450 q 431 434 388 450 q 498 382 474 418 q 522 285 522 346 q 497 183 522 221 q 426 129 471 146 q 324 113 382 113 q 242 121 285 113 q 156 147 200 129 q 99 149 122 160 q 67 115 76 138 q 67 67 58 92 q 108 31 76 43 q 219 -2 165 8 q 324 -12 274 -12 q 451 6 392 -12 q 553 63 510 25 q 622 156 597 100 q 647 285 647 211 q 606 445 647 381 q 492 542 564 510 q 331 575 421 575 q 301 575 314 575 q 280 574 289 575 q 263 573 271 574 q 246 572 254 572 q 235 572 239 572 q 231 572 232 571 q 229 574 229 572 q 230 581 229 576 q 231 592 231 585 q 232 610 231 600 q 234 634 233 621 q 237 663 235 647 q 240 697 239 678 q 244 732 243 718 q 247 759 246 746 q 250 788 249 772 q 258 815 253 811 q 281 819 264 819 q 338 819 303 819 q 407 819 372 819 q 466 819 440 819 q 542 819 492 819 z "},"6":{"ha":742,"x_min":56,"x_max":696,"o":"m 136 479 q 119 426 115 451 q 144 388 124 401 q 190 376 164 374 q 239 407 217 379 q 306 466 271 446 q 392 486 342 486 q 463 474 431 486 q 520 438 496 461 q 558 381 544 414 q 571 307 571 347 q 549 206 571 250 q 485 138 526 163 q 385 114 443 114 q 283 147 329 114 q 208 251 236 181 q 181 436 181 322 q 216 660 181 574 q 310 788 251 747 q 436 829 368 829 q 495 823 467 829 q 567 793 524 817 q 615 789 593 779 q 648 820 638 799 q 652 867 658 842 q 615 908 646 892 q 558 934 588 924 q 497 949 528 944 q 436 954 467 954 q 299 925 367 954 q 177 834 232 896 q 89 674 122 772 q 56 436 56 575 q 84 228 56 314 q 160 90 113 143 q 267 13 208 38 q 385 -11 325 -11 q 549 31 479 -11 q 657 144 618 72 q 696 307 696 217 q 656 465 696 396 q 547 572 615 533 q 392 611 478 611 q 313 601 350 611 q 243 572 275 590 q 184 531 211 554 q 136 479 157 507 z "},"7":{"ha":671,"x_min":35,"x_max":632,"o":"m 104 944 q 52 926 69 944 q 35 882 35 907 q 52 838 35 857 q 104 819 69 819 q 156 819 128 819 q 232 819 185 819 q 313 819 265 819 q 407 819 361 819 q 478 819 453 819 q 493 819 488 819 q 501 818 499 819 q 502 813 503 817 q 499 801 501 808 q 468 732 489 779 q 420 622 447 685 q 363 491 393 558 q 306 362 333 424 q 258 254 278 300 q 236 203 246 225 q 218 163 226 182 q 201 124 210 143 q 182 81 193 104 q 178 25 168 49 q 210 -8 188 1 q 257 -10 232 -18 q 296 31 282 -1 q 321 86 310 61 q 344 140 332 111 q 374 207 357 168 q 444 370 406 279 q 522 555 482 461 q 597 726 561 649 q 625 809 618 774 q 626 870 632 844 q 603 913 621 896 q 558 937 586 929 q 494 944 531 944 q 415 944 453 944 q 344 944 378 944 q 283 944 311 944 q 232 944 256 944 q 170 944 201 944 q 104 944 139 944 z "},"8":{"ha":743,"x_min":63,"x_max":681,"o":"m 275 0 q 331 4 310 -10 q 359 42 353 18 q 353 88 365 65 q 308 119 342 111 q 243 153 269 131 q 202 207 217 175 q 188 281 188 239 q 201 350 188 321 q 241 399 215 379 q 301 427 267 418 q 374 436 335 436 q 485 455 435 436 q 574 507 536 474 q 632 587 611 540 q 653 689 653 633 q 632 797 653 747 q 574 882 611 846 q 485 938 536 918 q 374 957 435 957 q 228 922 292 957 q 128 826 164 886 q 92 689 92 765 q 128 553 92 610 q 228 467 164 497 q 372 436 292 436 q 467 419 425 436 q 532 369 508 403 q 556 281 556 335 q 541 207 556 240 q 499 151 526 174 q 435 119 472 129 q 388 88 400 110 q 382 41 376 65 q 410 3 388 17 q 465 -3 432 -11 q 579 54 531 14 q 654 152 628 94 q 681 281 681 210 q 657 399 681 347 q 592 488 633 451 q 494 542 550 524 q 372 561 438 561 q 292 574 326 561 q 237 616 257 588 q 217 689 217 644 q 237 764 217 732 q 292 814 257 796 q 374 832 328 832 q 454 815 419 832 q 508 765 489 797 q 528 689 528 733 q 517 635 528 658 q 485 594 506 611 q 435 569 464 578 q 374 561 407 561 q 251 542 308 561 q 152 488 194 524 q 86 399 110 451 q 63 281 63 347 q 78 183 63 228 q 121 101 93 138 q 188 38 149 64 q 275 0 226 13 z "},"9":{"ha":742,"x_min":46,"x_max":686,"o":"m 606 464 q 622 517 626 492 q 598 556 618 542 q 551 567 578 569 q 503 536 525 564 q 435 477 471 497 q 350 457 400 457 q 278 469 311 457 q 222 506 246 482 q 184 563 197 529 q 171 636 171 596 q 193 737 171 693 q 257 805 215 781 q 357 829 299 829 q 459 796 413 829 q 533 692 506 763 q 561 507 561 621 q 525 283 561 371 q 431 155 489 196 q 306 114 374 114 q 247 121 275 114 q 175 150 219 128 q 126 155 149 164 q 93 124 104 146 q 89 76 82 101 q 126 35 96 51 q 184 9 154 19 q 244 -6 214 -1 q 306 -11 275 -11 q 442 17 375 -11 q 565 108 510 46 q 653 269 619 171 q 686 507 686 368 q 658 715 686 629 q 581 853 629 800 q 475 930 533 906 q 357 954 417 954 q 194 913 264 954 q 85 799 124 871 q 46 636 46 726 q 86 478 46 547 q 196 371 126 410 q 350 332 265 332 q 429 342 392 332 q 499 371 467 353 q 558 413 531 389 q 606 464 585 438 z "},"A":{"ha":904,"x_min":46,"x_max":856,"o":"m 58 76 q 58 20 46 43 q 93 -11 69 -3 q 140 -9 117 -19 q 175 35 164 1 q 194 87 185 63 q 211 135 203 111 q 229 188 219 160 q 244 219 238 207 q 264 235 251 231 q 300 240 276 240 q 358 240 329 240 q 417 240 388 240 q 478 240 447 240 q 542 240 508 240 q 587 253 569 240 q 610 284 604 265 q 610 322 615 303 q 587 353 604 340 q 542 365 569 365 q 487 365 521 365 q 420 365 453 365 q 369 365 388 365 q 331 373 344 365 q 315 395 318 381 q 316 430 313 410 q 328 474 319 450 q 354 550 340 511 q 382 628 368 589 q 410 706 396 667 q 436 782 424 744 q 447 810 443 803 q 453 813 450 818 q 464 786 457 807 q 515 644 488 722 q 569 486 542 567 q 622 331 596 406 q 668 199 647 257 q 686 149 676 176 q 706 91 696 121 q 726 35 717 61 q 761 -9 738 1 q 808 -11 785 -19 q 844 20 832 -3 q 843 76 856 43 q 823 134 833 104 q 803 192 813 164 q 785 240 793 219 q 749 344 768 286 q 708 465 729 401 q 664 595 686 529 q 619 725 642 661 q 576 846 597 789 q 520 935 554 906 q 449 965 486 965 q 378 935 411 965 q 325 847 346 906 q 294 756 310 800 q 265 672 279 713 q 235 592 250 631 q 208 515 221 553 q 190 408 189 458 q 210 321 190 358 q 270 262 231 283 q 369 240 310 240 q 397 240 378 240 q 441 240 417 240 q 492 240 465 240 q 542 240 518 240 q 587 253 569 240 q 610 284 604 265 q 610 322 615 303 q 587 353 604 340 q 542 365 569 365 q 487 365 519 365 q 419 365 454 365 q 351 365 383 365 q 300 365 319 365 q 212 349 249 365 q 151 303 175 333 q 113 229 128 274 q 94 177 103 201 q 76 128 85 153 q 58 76 68 104 z "},"B":{"ha":750,"x_min":111,"x_max":707,"o":"m 326 125 q 274 106 292 125 q 256 63 256 88 q 274 19 256 38 q 326 0 292 0 q 418 1 379 0 q 490 8 457 1 q 561 35 524 15 q 638 93 606 57 q 689 175 671 129 q 707 275 707 221 q 682 388 707 336 q 613 475 657 439 q 508 529 568 511 q 472 537 493 533 q 426 542 450 540 q 376 545 401 544 q 326 546 350 546 q 281 533 299 546 q 258 502 264 521 q 258 465 253 483 q 281 433 264 446 q 326 421 299 421 q 435 428 388 421 q 517 451 483 435 q 590 501 556 472 q 647 572 625 529 q 668 678 668 615 q 647 787 668 738 q 588 872 626 836 q 497 926 550 907 q 379 944 444 944 q 337 944 360 944 q 286 944 314 944 q 184 926 222 944 q 128 867 146 907 q 111 764 111 826 q 111 622 111 690 q 111 491 111 553 q 111 373 111 429 q 111 267 111 317 q 111 165 111 221 q 111 63 111 108 q 130 10 111 28 q 174 -8 149 -8 q 217 10 199 -8 q 236 63 236 28 q 236 165 236 118 q 236 267 236 211 q 236 410 236 342 q 236 540 236 478 q 236 658 236 603 q 236 764 236 714 q 238 801 236 790 q 249 816 239 813 q 286 819 260 819 q 328 819 304 819 q 379 819 351 819 q 466 803 429 819 q 523 756 503 788 q 543 678 543 724 q 523 600 543 626 q 469 560 503 574 q 435 551 457 554 q 385 547 413 549 q 326 546 358 546 q 274 527 292 546 q 256 483 256 508 q 274 440 256 458 q 326 421 292 421 q 395 420 367 421 q 444 417 424 419 q 479 410 464 414 q 534 381 511 400 q 569 336 557 363 q 582 275 582 310 q 573 221 582 246 q 547 177 564 196 q 506 146 529 158 q 424 126 465 126 q 326 125 382 125 z "},"C":{"ha":833,"x_min":63,"x_max":788,"o":"m 750 64 q 783 109 779 83 q 774 156 788 135 q 736 183 761 176 q 681 169 711 189 q 585 127 638 140 q 489 114 533 114 q 369 138 424 114 q 273 209 314 163 q 210 322 232 256 q 188 472 188 389 q 228 664 188 583 q 338 788 268 744 q 494 831 407 831 q 589 819 539 831 q 682 779 639 807 q 736 767 711 760 q 774 794 761 774 q 783 840 788 815 q 749 885 778 865 q 623 939 690 922 q 494 956 556 956 q 328 923 407 956 q 190 827 250 890 q 97 674 131 764 q 63 472 63 585 q 120 213 63 322 q 275 46 178 104 q 489 -11 372 -12 q 621 8 551 -11 q 750 64 690 26 z "},"D":{"ha":917,"x_min":111,"x_max":854,"o":"m 111 68 q 130 15 111 33 q 174 -3 149 -3 q 217 15 199 -3 q 236 68 236 33 q 236 112 236 90 q 236 169 236 133 q 236 274 236 206 q 236 431 236 358 q 236 568 236 504 q 236 689 236 632 q 235 731 236 711 q 235 767 235 750 q 236 795 235 783 q 242 813 238 807 q 256 819 247 819 q 313 819 289 819 q 365 819 338 819 q 433 819 393 819 q 565 794 510 819 q 657 722 621 768 q 711 613 693 676 q 729 474 729 550 q 708 333 729 397 q 647 223 686 269 q 550 151 607 176 q 421 125 493 125 q 367 125 392 125 q 313 125 342 125 q 260 106 278 125 q 242 63 242 88 q 260 19 242 38 q 313 0 278 0 q 366 0 339 0 q 421 0 393 0 q 597 35 518 0 q 734 133 676 69 q 823 284 792 197 q 854 474 854 371 q 837 627 854 556 q 785 757 819 699 q 699 857 750 815 q 582 922 649 899 q 433 944 515 944 q 366 944 393 944 q 319 944 339 944 q 281 944 300 944 q 240 944 263 944 q 174 935 200 944 q 135 898 149 925 q 116 821 121 871 q 111 689 111 771 q 111 568 111 625 q 111 460 111 511 q 111 363 111 410 q 111 274 111 317 q 111 174 111 213 q 111 112 111 136 q 111 68 111 88 z "},"E":{"ha":726,"x_min":111,"x_max":658,"o":"m 588 819 q 640 838 622 819 q 658 882 658 857 q 640 926 658 907 q 588 944 622 944 q 519 944 546 944 q 469 944 493 944 q 408 944 444 944 q 372 944 388 944 q 338 944 357 944 q 286 944 318 944 q 184 924 222 944 q 128 860 146 903 q 111 756 111 818 q 111 698 111 729 q 111 638 111 667 q 111 592 111 608 q 123 525 111 556 q 156 472 135 494 q 203 436 176 449 q 263 424 231 424 q 319 424 281 424 q 403 424 358 424 q 491 424 449 424 q 560 424 533 424 q 604 436 588 424 q 626 467 621 449 q 626 505 632 486 q 604 536 621 524 q 560 549 588 549 q 497 549 533 549 q 418 549 460 549 q 337 549 376 549 q 264 549 297 549 q 177 533 211 549 q 127 486 143 517 q 111 413 111 456 q 111 335 111 379 q 111 246 111 290 q 111 169 111 201 q 131 71 111 108 q 190 17 151 33 q 283 0 228 0 q 313 0 300 0 q 346 0 326 0 q 400 0 365 0 q 486 0 432 0 q 588 0 540 0 q 640 19 622 0 q 657 63 657 38 q 640 106 657 88 q 588 125 622 125 q 510 125 540 125 q 456 125 481 125 q 400 125 432 125 q 343 125 365 125 q 283 125 321 125 q 244 131 253 125 q 236 169 236 136 q 236 229 236 190 q 236 316 236 268 q 236 413 236 364 q 243 424 236 424 q 264 424 250 424 q 324 424 286 424 q 407 424 363 424 q 492 424 451 424 q 560 424 533 424 q 604 436 588 424 q 626 467 621 449 q 626 505 632 486 q 604 536 621 524 q 560 549 588 549 q 494 549 533 549 q 413 549 456 549 q 330 549 369 549 q 263 549 290 549 q 251 553 256 549 q 242 563 246 557 q 238 577 239 569 q 236 592 236 585 q 236 640 236 617 q 236 692 236 664 q 236 756 236 719 q 242 807 236 794 q 286 819 247 819 q 324 819 308 819 q 359 819 340 819 q 408 819 378 819 q 495 819 444 819 q 588 819 546 819 z "},"F":{"ha":699,"x_min":111,"x_max":657,"o":"m 557 396 q 609 415 592 396 q 626 458 626 433 q 609 502 626 483 q 557 521 592 521 q 468 521 511 521 q 380 521 425 521 q 281 521 335 521 q 207 508 239 521 q 154 468 175 494 q 122 402 133 442 q 111 310 111 363 q 111 250 111 283 q 111 181 111 217 q 111 113 111 146 q 111 56 111 81 q 124 10 111 28 q 155 -12 136 -7 q 192 -12 174 -18 q 224 10 211 -7 q 236 56 236 28 q 236 182 236 108 q 236 338 236 256 q 236 501 236 421 q 236 651 236 582 q 236 764 236 719 q 238 801 236 789 q 252 816 240 813 q 292 819 264 819 q 382 819 328 819 q 492 819 436 819 q 588 819 547 819 q 640 838 622 819 q 657 882 657 857 q 640 926 657 907 q 588 944 622 944 q 469 944 528 944 q 363 944 410 944 q 292 944 317 944 q 185 924 225 944 q 128 864 146 904 q 111 764 111 824 q 111 686 111 739 q 111 564 111 633 q 111 419 111 494 q 111 272 111 343 q 111 143 111 200 q 111 56 111 86 q 124 10 111 28 q 155 -12 136 -7 q 192 -12 174 -18 q 224 10 211 -7 q 236 56 236 28 q 236 133 236 93 q 236 209 236 172 q 236 276 236 246 q 236 324 236 306 q 238 367 236 351 q 250 390 240 383 q 281 396 260 396 q 369 396 317 396 q 474 396 422 396 q 557 396 526 396 z "},"G":{"ha":907,"x_min":63,"x_max":838,"o":"m 719 789 q 775 787 751 776 q 808 820 799 797 q 809 867 818 843 q 767 906 800 892 q 677 936 721 924 q 592 954 633 949 q 513 960 550 960 q 274 893 375 958 q 118 718 174 828 q 63 474 63 608 q 93 283 63 371 q 181 128 124 194 q 319 24 238 61 q 501 -14 400 -14 q 624 -1 569 -14 q 720 34 679 13 q 786 82 761 56 q 821 135 811 108 q 834 194 831 165 q 838 258 838 222 q 838 346 838 293 q 821 444 838 408 q 774 493 804 479 q 703 507 743 507 q 621 507 668 507 q 538 507 574 507 q 485 488 503 507 q 467 444 467 469 q 485 401 467 419 q 538 382 503 382 q 603 382 561 382 q 696 382 644 382 q 709 370 706 382 q 713 332 713 358 q 713 246 713 286 q 701 174 713 206 q 676 144 697 158 q 612 120 654 129 q 501 111 569 111 q 367 139 426 111 q 269 217 308 167 q 208 332 229 267 q 188 474 188 397 q 210 614 188 549 q 274 728 232 679 q 376 806 315 778 q 513 835 436 833 q 612 824 560 835 q 719 789 664 813 z "},"H":{"ha":956,"x_min":113,"x_max":846,"o":"m 238 889 q 219 942 238 924 q 175 960 200 960 q 131 942 150 960 q 113 889 113 924 q 113 835 113 861 q 113 781 113 808 q 113 728 113 754 q 113 646 113 700 q 113 524 113 592 q 113 383 113 456 q 113 244 113 311 q 113 128 113 178 q 113 56 113 78 q 125 10 113 28 q 156 -12 138 -7 q 194 -12 175 -18 q 225 10 213 -7 q 238 56 238 28 q 238 126 238 85 q 238 211 238 167 q 238 297 238 256 q 238 367 238 338 q 246 404 238 390 q 268 424 254 418 q 300 429 282 429 q 461 429 374 429 q 658 429 549 429 q 763 453 721 429 q 825 519 804 476 q 846 617 846 561 q 846 671 846 639 q 846 740 846 703 q 846 816 846 778 q 846 889 846 854 q 833 934 846 917 q 802 957 821 951 q 765 957 783 963 q 733 934 746 951 q 721 889 721 917 q 721 813 721 867 q 721 687 721 758 q 721 539 721 615 q 721 394 721 463 q 721 279 721 326 q 721 218 721 232 q 721 165 721 192 q 721 110 721 138 q 721 56 721 83 q 740 3 721 21 q 783 -15 758 -15 q 827 3 808 -15 q 846 56 846 21 q 846 112 846 86 q 846 163 846 138 q 846 218 846 189 q 846 288 846 238 q 846 406 846 338 q 846 548 846 474 q 846 692 846 622 q 846 814 846 761 q 846 889 846 867 q 833 934 846 917 q 802 957 821 951 q 765 957 783 963 q 733 934 746 951 q 721 889 721 917 q 721 813 721 854 q 721 733 721 772 q 721 663 721 694 q 721 617 721 632 q 716 581 721 594 q 697 560 711 567 q 658 554 683 554 q 497 554 585 554 q 300 554 410 554 q 210 533 253 554 q 140 471 167 513 q 113 367 113 429 q 113 308 113 347 q 113 222 113 268 q 113 131 113 175 q 113 56 113 86 q 125 10 113 28 q 156 -12 138 -7 q 194 -12 175 -18 q 225 10 213 -7 q 238 56 238 28 q 238 144 238 83 q 238 283 238 204 q 238 446 238 363 q 238 603 238 529 q 238 728 238 678 q 238 808 238 772 q 238 889 238 844 z "},"I":{"ha":375,"x_min":125,"x_max":250,"o":"m 125 56 q 144 2 125 19 q 188 -15 163 -15 q 231 2 213 -15 q 250 56 250 19 q 250 139 250 101 q 250 208 250 176 q 250 265 250 239 q 250 401 250 332 q 250 541 250 471 q 250 676 250 611 q 250 740 250 708 q 250 807 250 771 q 250 889 250 843 q 231 941 250 924 q 188 958 213 958 q 144 941 163 958 q 125 889 125 924 q 125 807 125 843 q 125 740 125 771 q 125 676 125 708 q 125 541 125 611 q 125 401 125 471 q 125 265 125 332 q 125 208 125 239 q 125 139 125 176 q 125 56 125 101 z "},"J":{"ha":622,"x_min":21,"x_max":524,"o":"m 115 157 q 64 161 86 171 q 31 128 42 151 q 29 81 21 106 q 69 40 38 56 q 170 4 122 15 q 261 -7 218 -7 q 397 28 338 -7 q 490 127 457 63 q 524 283 524 192 q 524 426 524 365 q 524 540 524 488 q 524 647 524 592 q 524 715 524 683 q 524 774 524 746 q 524 829 524 801 q 524 889 524 857 q 505 941 524 924 q 461 958 486 958 q 417 941 436 958 q 399 889 399 924 q 399 807 399 846 q 399 728 399 768 q 399 647 399 689 q 399 518 399 581 q 399 397 399 456 q 399 283 399 339 q 383 194 399 231 q 336 138 367 157 q 261 118 306 118 q 195 127 231 118 q 115 157 160 136 z "},"K":{"ha":821,"x_min":111,"x_max":782,"o":"m 236 889 q 217 942 236 924 q 174 960 199 960 q 130 942 149 960 q 111 889 111 924 q 111 829 111 861 q 111 765 111 797 q 111 706 111 733 q 111 560 111 629 q 111 428 111 490 q 111 310 111 367 q 111 203 111 254 q 111 152 111 178 q 111 101 111 126 q 111 56 111 76 q 130 3 111 21 q 174 -15 149 -15 q 217 3 199 -15 q 236 56 236 21 q 236 103 236 81 q 236 149 236 125 q 236 203 236 174 q 236 348 236 279 q 236 479 236 417 q 236 598 236 542 q 236 706 236 654 q 236 768 236 739 q 236 826 236 797 q 236 889 236 856 m 747 843 q 772 892 772 867 q 756 936 772 918 q 713 956 739 954 q 661 935 688 958 q 619 896 640 915 q 578 858 599 876 q 537 820 558 839 q 494 782 515 801 q 450 744 476 767 q 394 696 424 721 q 338 648 364 671 q 294 610 311 625 q 231 541 250 572 q 215 481 211 510 q 244 419 219 451 q 314 347 269 386 q 385 281 342 321 q 478 194 428 242 q 578 99 528 147 q 668 11 628 51 q 719 -12 693 -14 q 763 6 744 -11 q 781 49 781 24 q 757 100 782 75 q 664 190 714 142 q 563 285 614 238 q 469 374 513 333 q 397 439 426 414 q 369 472 376 458 q 369 500 363 486 q 397 532 376 514 q 453 581 421 551 q 519 638 486 610 q 575 688 551 667 q 633 738 604 713 q 690 790 661 764 q 747 843 718 817 z "},"L":{"ha":692,"x_min":111,"x_max":643,"o":"m 574 0 q 626 19 608 0 q 643 63 643 38 q 626 106 643 88 q 574 125 608 125 q 504 125 538 125 q 440 125 471 125 q 378 125 408 125 q 314 125 347 125 q 264 128 281 125 q 242 145 247 131 q 236 192 236 160 q 236 282 236 224 q 236 408 236 349 q 236 520 236 467 q 236 624 236 574 q 236 722 236 674 q 236 779 236 753 q 236 832 236 806 q 236 889 236 858 q 217 941 236 924 q 174 958 199 958 q 130 941 149 958 q 111 889 111 924 q 111 831 111 858 q 111 777 111 803 q 111 722 111 751 q 111 578 111 656 q 111 419 111 501 q 111 253 111 338 q 115 124 111 174 q 136 47 119 74 q 189 10 153 21 q 288 0 225 0 q 399 0 347 0 q 494 0 450 0 q 574 0 538 0 z "},"M":{"ha":1122,"x_min":111,"x_max":1011,"o":"m 886 56 q 905 3 886 21 q 949 -15 924 -15 q 992 3 974 -15 q 1011 56 1011 21 q 1011 112 1011 86 q 1011 163 1011 138 q 1011 218 1011 189 q 1011 308 1011 267 q 1011 392 1011 350 q 1011 483 1011 435 q 1011 537 1011 507 q 1011 606 1011 567 q 1011 699 1011 646 q 1011 822 1011 751 q 995 908 1011 875 q 953 953 979 940 q 896 958 926 967 q 836 917 865 949 q 786 829 807 885 q 740 708 764 772 q 692 577 717 644 q 643 442 668 510 q 593 307 618 374 q 549 218 571 249 q 510 173 528 188 q 480 151 492 158 q 466 131 468 143 q 474 93 464 119 q 507 33 489 56 q 544 2 525 10 q 583 2 564 -6 q 619 35 601 10 q 653 101 638 60 q 665 153 667 139 q 649 174 663 168 q 616 189 636 179 q 573 226 596 199 q 528 313 550 253 q 478 446 503 379 q 431 578 454 513 q 384 705 407 643 q 339 822 361 767 q 287 913 317 881 q 226 955 257 946 q 169 951 196 964 q 127 903 143 938 q 111 817 111 869 q 111 700 111 747 q 111 619 111 653 q 111 553 111 585 q 111 483 111 521 q 111 397 111 446 q 111 298 111 347 q 111 211 111 249 q 111 161 111 189 q 111 106 111 133 q 111 56 111 79 q 130 3 111 21 q 174 -15 149 -15 q 217 3 199 -15 q 236 56 236 21 q 236 109 236 85 q 236 158 236 133 q 236 211 236 183 q 236 272 236 244 q 236 323 236 299 q 236 372 236 347 q 236 423 236 396 q 236 483 236 450 q 236 519 236 500 q 236 557 236 538 q 236 595 236 576 q 236 631 236 614 q 236 663 236 649 q 236 689 236 678 q 237 707 236 700 q 238 717 238 714 q 241 717 239 719 q 246 709 243 715 q 253 692 249 703 q 265 660 258 678 q 281 619 272 642 q 298 573 289 597 q 316 524 307 549 q 334 475 325 499 q 351 429 343 451 q 365 389 358 407 q 387 328 378 354 q 406 274 396 303 q 431 203 415 246 q 474 93 447 161 q 507 33 489 56 q 544 2 525 10 q 583 2 564 -6 q 619 35 601 10 q 653 101 638 60 q 691 208 676 167 q 717 278 706 250 q 738 334 728 307 q 760 396 747 361 q 774 435 767 414 q 791 481 782 457 q 808 530 800 506 q 826 578 817 554 q 843 623 835 601 q 858 663 851 644 q 869 696 864 682 q 876 712 874 706 q 881 721 879 718 q 884 722 883 724 q 885 713 885 719 q 886 694 886 707 q 886 661 886 676 q 886 632 886 646 q 886 604 886 618 q 886 576 886 590 q 886 548 886 563 q 886 517 886 533 q 886 483 886 501 q 886 432 886 458 q 886 378 886 406 q 886 322 886 350 q 886 268 886 294 q 886 218 886 242 q 886 137 886 182 q 886 56 886 92 z "},"N":{"ha":956,"x_min":111,"x_max":844,"o":"m 111 56 q 130 3 111 21 q 174 -14 149 -14 q 217 3 199 -14 q 236 56 236 21 q 236 115 236 88 q 236 169 236 142 q 236 228 236 197 q 236 317 236 275 q 236 397 236 358 q 236 474 236 436 q 236 553 236 513 q 236 590 236 574 q 236 620 236 607 q 236 645 236 633 q 236 667 236 657 q 236 688 236 678 q 236 703 236 697 q 236 711 236 708 q 238 713 236 714 q 243 707 240 711 q 251 696 246 703 q 263 678 257 688 q 278 657 269 669 q 298 628 286 644 q 325 589 310 611 q 371 523 346 558 q 423 449 396 488 q 478 372 450 411 q 531 296 506 333 q 578 226 556 258 q 603 189 592 206 q 624 157 614 172 q 646 126 635 142 q 669 92 657 110 q 699 51 682 74 q 739 10 718 25 q 778 -9 760 -6 q 812 -5 797 -12 q 835 20 826 3 q 844 65 844 38 q 844 106 844 86 q 844 146 844 126 q 844 185 844 165 q 844 224 844 204 q 844 263 844 243 q 844 355 844 299 q 844 474 844 411 q 844 597 844 538 q 844 697 844 656 q 844 770 844 739 q 844 830 844 801 q 844 889 844 858 q 826 942 844 925 q 782 960 807 960 q 738 942 757 960 q 719 889 719 925 q 719 828 719 858 q 719 767 719 797 q 719 707 719 738 q 719 645 719 685 q 719 557 719 606 q 719 458 719 508 q 719 360 719 407 q 719 276 719 313 q 709 198 719 229 q 689 144 699 167 q 678 101 679 122 q 699 51 678 79 q 739 10 718 25 q 778 -9 760 -6 q 812 -5 797 -12 q 835 20 826 3 q 844 65 844 38 q 828 119 844 92 q 785 178 811 147 q 728 243 758 208 q 671 318 699 278 q 606 413 642 361 q 531 517 569 464 q 458 617 493 569 q 399 701 424 665 q 365 749 382 725 q 331 797 349 772 q 295 848 314 822 q 256 901 276 874 q 215 943 236 929 q 176 959 194 957 q 142 951 157 961 q 119 922 128 942 q 111 872 111 901 q 111 802 111 835 q 111 738 111 769 q 111 673 111 707 q 111 600 111 639 q 111 526 111 567 q 111 444 111 486 q 111 363 111 403 q 111 288 111 322 q 111 228 111 253 q 111 174 111 203 q 111 116 111 146 q 111 56 111 86 z "},"O":{"ha":1017,"x_min":63,"x_max":954,"o":"m 417 -3 q 472 6 451 -10 q 497 45 492 21 q 488 91 501 69 q 439 119 474 113 q 381 137 407 126 q 328 165 356 147 q 251 242 283 196 q 203 348 219 289 q 188 474 188 407 q 210 619 188 553 q 276 733 233 685 q 379 807 319 781 q 511 833 439 833 q 642 807 583 833 q 742 732 700 781 q 806 618 783 683 q 829 474 829 553 q 813 351 829 408 q 767 247 797 293 q 694 169 738 201 q 641 138 668 150 q 582 119 614 126 q 534 91 547 113 q 526 45 521 69 q 551 6 531 21 q 607 -3 572 -10 q 691 23 651 6 q 769 69 731 40 q 868 173 826 113 q 932 310 910 233 q 954 474 954 386 q 897 724 954 615 q 740 896 840 833 q 511 958 640 958 q 281 897 382 958 q 121 725 179 835 q 63 474 63 615 q 86 305 63 383 q 154 165 110 226 q 258 63 199 104 q 334 22 296 38 q 417 -3 372 6 z "},"P":{"ha":771,"x_min":111,"x_max":722,"o":"m 313 476 q 259 458 276 476 q 242 414 242 439 q 259 370 242 389 q 313 351 276 351 q 374 351 353 351 q 426 351 396 351 q 578 390 511 351 q 684 494 646 428 q 722 647 722 561 q 700 765 722 711 q 637 860 678 819 q 538 922 596 900 q 410 944 481 944 q 369 944 390 944 q 326 944 347 944 q 286 944 306 944 q 205 934 239 944 q 151 901 171 924 q 121 845 131 879 q 111 764 111 811 q 111 613 111 685 q 111 475 111 540 q 111 352 111 410 q 111 247 111 294 q 111 188 111 218 q 111 124 111 157 q 111 56 111 90 q 130 2 111 19 q 174 -15 149 -15 q 217 3 199 -15 q 236 56 236 21 q 236 121 236 90 q 236 182 236 151 q 236 247 236 213 q 236 388 236 318 q 236 524 236 458 q 236 651 236 590 q 236 764 236 711 q 237 794 236 783 q 242 811 238 806 q 256 818 246 817 q 286 819 267 819 q 348 819 321 819 q 410 819 375 819 q 510 798 468 819 q 574 738 551 776 q 597 647 597 700 q 576 558 597 596 q 515 498 554 519 q 426 476 476 476 q 375 476 399 476 q 313 476 351 476 z "},"Q":{"ha":1017,"x_min":63,"x_max":954,"o":"m 729 -75 q 774 -109 749 -104 q 819 -100 799 -114 q 847 -61 840 -86 q 835 -7 854 -36 q 798 52 821 14 q 748 135 775 90 q 693 222 721 179 q 674 254 683 239 q 656 283 664 269 q 640 309 647 297 q 625 332 632 321 q 613 353 618 343 q 579 384 599 376 q 541 387 560 392 q 509 368 522 382 q 493 333 496 354 q 504 289 490 313 q 520 262 511 276 q 540 230 529 247 q 562 194 550 213 q 588 154 574 175 q 642 67 615 113 q 692 -15 669 22 q 729 -75 715 -53 m 554 -11 q 604 13 589 -7 q 617 58 619 33 q 594 101 614 83 q 540 114 575 118 q 401 128 465 106 q 290 199 338 150 q 215 317 242 247 q 188 474 188 388 q 210 619 188 553 q 276 733 233 685 q 379 807 319 781 q 511 833 439 833 q 678 787 607 833 q 790 660 750 740 q 829 474 829 579 q 821 385 829 428 q 797 303 813 342 q 760 232 782 265 q 735 203 746 211 q 716 199 725 194 q 696 221 707 204 q 678 249 689 232 q 654 286 667 267 q 631 323 642 306 q 613 353 619 340 q 579 384 599 376 q 541 387 560 392 q 509 368 522 382 q 493 333 496 354 q 504 289 490 313 q 523 258 511 276 q 547 221 535 240 q 571 184 560 201 q 588 157 582 167 q 644 97 611 119 q 717 72 678 74 q 794 92 756 69 q 865 165 832 114 q 930 307 906 229 q 954 474 954 385 q 922 668 954 579 q 829 822 889 757 q 689 922 769 886 q 511 958 608 958 q 281 897 382 958 q 121 725 179 835 q 63 474 63 615 q 101 263 63 357 q 208 104 140 169 q 365 9 276 39 q 554 -11 454 -21 z "},"R":{"ha":826,"x_min":111,"x_max":794,"o":"m 111 56 q 130 3 111 21 q 174 -15 149 -15 q 217 3 199 -15 q 236 56 236 21 q 236 119 236 90 q 236 173 236 147 q 236 224 236 199 q 236 324 236 269 q 236 440 236 378 q 236 572 236 503 q 236 715 236 640 q 235 760 236 740 q 237 792 235 779 q 247 813 239 806 q 274 819 256 819 q 322 819 294 819 q 389 819 349 819 q 485 800 444 819 q 547 745 525 781 q 569 661 569 710 q 549 577 569 613 q 491 523 528 542 q 406 504 454 504 q 383 504 394 504 q 363 504 372 504 q 342 504 353 504 q 319 504 331 504 q 274 492 292 504 q 251 460 257 479 q 251 423 246 442 q 274 392 257 404 q 319 379 292 379 q 404 371 375 379 q 453 343 433 363 q 499 289 474 324 q 541 228 521 260 q 582 163 561 196 q 624 94 603 129 q 669 22 646 58 q 715 -12 689 -8 q 760 -3 740 -17 q 788 35 781 10 q 775 89 794 60 q 730 161 751 126 q 688 230 708 196 q 645 297 667 264 q 601 361 624 329 q 556 416 581 390 q 499 462 532 442 q 423 493 467 482 q 319 504 379 504 q 274 492 292 504 q 251 460 257 479 q 251 423 246 442 q 274 392 257 404 q 319 379 292 379 q 331 379 324 379 q 349 379 339 379 q 369 379 358 379 q 392 379 381 379 q 544 415 475 379 q 653 515 613 451 q 694 661 694 578 q 673 774 694 722 q 611 863 651 825 q 515 923 571 901 q 389 944 458 944 q 327 944 363 944 q 260 944 292 944 q 183 931 213 944 q 138 889 154 917 q 117 817 122 861 q 111 715 111 774 q 111 594 111 665 q 111 450 111 524 q 111 315 111 376 q 111 224 111 254 q 111 174 111 203 q 111 115 111 146 q 111 56 111 83 z "},"S":{"ha":724,"x_min":67,"x_max":658,"o":"m 167 160 q 111 164 135 174 q 77 131 88 154 q 76 84 67 108 q 117 46 85 60 q 178 22 147 32 q 240 4 210 11 q 301 -6 271 -3 q 358 -10 331 -10 q 476 8 421 -10 q 572 59 531 25 q 635 142 613 93 q 658 254 658 190 q 636 363 658 318 q 576 440 614 408 q 491 496 539 472 q 392 542 443 519 q 310 576 351 557 q 240 624 268 594 q 213 700 213 653 q 233 774 213 744 q 291 817 254 803 q 376 831 328 831 q 459 822 415 831 q 549 797 503 814 q 605 796 582 785 q 637 831 628 807 q 636 878 646 854 q 593 914 626 901 q 480 946 535 936 q 376 956 425 956 q 258 938 311 956 q 167 886 206 919 q 108 806 129 853 q 88 700 88 758 q 108 597 88 640 q 165 524 129 554 q 247 469 200 493 q 344 425 293 446 q 430 388 386 408 q 503 337 474 368 q 533 254 533 306 q 510 175 533 206 q 447 130 486 144 q 358 115 407 115 q 297 120 329 115 q 233 135 265 125 q 167 160 200 146 z "},"T":{"ha":692,"x_min":31,"x_max":658,"o":"m 588 819 q 641 838 624 819 q 658 882 658 857 q 641 926 658 907 q 588 944 624 944 q 534 944 574 944 q 439 944 494 944 q 323 944 383 944 q 205 944 263 944 q 104 944 147 944 q 59 932 76 944 q 36 901 42 919 q 36 863 31 882 q 59 832 42 844 q 104 819 76 819 q 169 818 138 819 q 227 807 201 817 q 268 774 253 797 q 283 708 283 751 q 283 600 283 664 q 283 469 283 536 q 283 347 283 401 q 283 265 283 292 q 283 194 283 232 q 283 122 283 157 q 283 56 283 86 q 302 3 283 21 q 346 -15 321 -15 q 390 3 371 -15 q 408 56 408 21 q 408 122 408 86 q 408 194 408 157 q 408 265 408 232 q 408 343 408 292 q 408 458 408 394 q 408 587 408 521 q 408 708 408 653 q 391 800 408 761 q 343 867 374 839 q 274 912 313 894 q 191 937 235 929 q 104 944 147 944 q 59 932 76 944 q 36 901 42 919 q 36 863 31 882 q 59 832 42 844 q 104 819 76 819 q 181 819 131 819 q 292 819 232 819 q 413 819 353 819 q 520 819 474 819 q 588 819 567 819 z "},"U":{"ha":928,"x_min":97,"x_max":831,"o":"m 222 889 q 203 942 222 924 q 160 960 185 960 q 116 942 135 960 q 97 889 97 924 q 97 829 97 864 q 97 759 97 794 q 97 700 97 724 q 97 603 97 650 q 97 502 97 557 q 97 372 97 447 q 125 218 97 289 q 202 95 153 147 q 319 15 251 43 q 465 -14 386 -14 q 614 15 547 -14 q 729 95 681 43 q 804 218 778 147 q 831 372 831 289 q 831 502 831 447 q 831 603 831 557 q 831 700 831 650 q 831 761 831 728 q 831 828 831 794 q 831 889 831 861 q 812 942 831 924 q 768 960 793 960 q 724 942 743 960 q 706 889 706 924 q 706 829 706 864 q 706 759 706 794 q 706 700 706 724 q 706 570 706 625 q 706 469 706 515 q 706 372 706 422 q 676 237 706 296 q 594 144 647 178 q 465 111 540 111 q 338 144 393 111 q 253 237 283 178 q 222 372 222 296 q 222 469 222 422 q 222 570 222 515 q 222 700 222 625 q 222 761 222 728 q 222 828 222 794 q 222 889 222 861 z "},"V":{"ha":861,"x_min":29,"x_max":832,"o":"m 821 869 q 819 925 832 903 q 783 956 807 947 q 736 953 760 964 q 701 908 713 942 q 679 843 690 875 q 658 780 668 811 q 638 719 649 749 q 617 660 628 689 q 588 582 604 628 q 553 484 571 536 q 517 382 535 432 q 485 292 499 332 q 474 262 479 275 q 466 238 469 249 q 459 218 463 228 q 452 199 456 208 q 444 181 449 190 q 438 159 440 168 q 433 146 435 150 q 431 141 432 142 q 428 145 429 140 q 423 158 426 150 q 414 181 419 167 q 406 201 410 192 q 397 219 401 210 q 390 240 393 229 q 382 262 386 250 q 372 288 378 274 q 340 378 357 329 q 307 478 324 426 q 274 578 290 529 q 242 669 257 628 q 216 748 229 706 q 188 833 203 790 q 158 913 174 875 q 120 955 144 946 q 73 954 96 964 q 40 921 50 944 q 42 865 29 897 q 71 789 57 829 q 98 708 85 749 q 124 628 111 667 q 157 535 139 585 q 194 433 175 485 q 231 330 213 381 q 263 235 249 279 q 278 191 272 208 q 290 158 283 174 q 304 118 296 143 q 342 35 322 68 q 383 -12 363 3 q 424 -27 403 -28 q 467 -10 446 -26 q 510 40 489 7 q 551 119 531 72 q 567 157 561 143 q 578 188 572 171 q 596 235 585 206 q 631 330 613 278 q 669 435 650 382 q 704 535 688 488 q 733 615 721 582 q 756 676 744 646 q 777 738 767 707 q 799 802 788 769 q 821 869 810 835 z "},"W":{"ha":1233,"x_min":42,"x_max":1193,"o":"m 171 907 q 138 952 161 940 q 90 956 114 964 q 54 926 67 949 q 51 871 42 904 q 74 798 61 842 q 103 707 88 754 q 131 618 118 660 q 164 505 147 561 q 197 396 181 449 q 226 296 213 343 q 240 249 233 272 q 254 204 247 226 q 269 159 261 182 q 284 111 276 136 q 300 58 292 86 q 325 13 308 31 q 363 -10 342 -4 q 403 -10 383 -15 q 440 14 424 -4 q 465 63 457 32 q 481 119 474 93 q 494 169 488 146 q 508 215 501 193 q 520 260 514 238 q 532 306 526 282 q 548 370 539 335 q 567 447 557 406 q 590 538 578 489 q 617 642 603 586 q 642 710 626 682 q 669 760 657 738 q 688 808 682 782 q 685 869 693 833 q 656 924 676 906 q 614 942 636 942 q 572 924 592 942 q 543 871 551 907 q 540 810 535 836 q 559 760 546 783 q 588 708 572 736 q 613 639 603 679 q 639 535 626 583 q 662 444 651 486 q 682 367 672 403 q 699 303 692 332 q 710 256 704 279 q 722 208 717 232 q 734 160 728 185 q 747 110 740 136 q 758 57 753 85 q 781 14 765 31 q 819 -8 797 -3 q 863 -7 840 -12 q 903 15 885 -1 q 932 60 922 32 q 951 114 943 88 q 968 165 960 140 q 983 212 976 189 q 997 257 990 235 q 1010 300 1003 279 q 1035 381 1022 340 q 1060 463 1047 421 q 1086 551 1072 504 q 1115 650 1100 597 q 1140 728 1128 689 q 1163 805 1151 768 q 1182 871 1174 842 q 1180 926 1193 904 q 1143 956 1167 949 q 1097 952 1119 964 q 1063 907 1074 940 q 1042 841 1054 878 q 1018 763 1031 804 q 993 678 1006 721 q 964 578 979 629 q 935 481 949 528 q 910 399 921 435 q 893 344 899 364 q 885 319 889 332 q 876 294 881 307 q 869 269 872 281 q 863 247 865 257 q 857 231 860 238 q 854 220 856 224 q 852 215 853 217 q 851 215 851 214 q 849 221 850 217 q 847 231 849 225 q 843 245 846 236 q 838 266 840 254 q 831 291 835 278 q 824 317 828 304 q 817 344 819 331 q 798 415 811 365 q 770 522 785 464 q 744 624 756 579 q 733 674 739 646 q 719 733 726 701 q 702 799 711 764 q 685 869 693 833 q 656 924 676 906 q 614 942 636 942 q 572 924 592 942 q 543 871 551 907 q 526 801 535 836 q 509 735 517 767 q 494 674 501 703 q 481 621 488 644 q 463 549 474 590 q 443 467 453 508 q 425 393 433 425 q 414 347 417 361 q 406 320 410 333 q 400 295 403 307 q 394 273 397 283 q 390 254 392 263 q 386 240 388 246 q 383 231 385 235 q 381 227 382 228 q 379 228 381 226 q 376 233 378 229 q 374 243 375 238 q 369 256 372 249 q 364 273 367 264 q 358 292 361 282 q 351 315 354 303 q 343 342 347 328 q 320 416 336 364 q 285 533 304 468 q 249 657 267 599 q 222 744 238 697 q 194 835 207 792 q 171 907 181 879 z "},"X":{"ha":857,"x_min":51,"x_max":807,"o":"m 193 925 q 147 957 172 953 q 101 947 122 961 q 76 907 81 932 q 90 853 71 882 q 141 781 114 818 q 203 696 168 744 q 257 619 228 661 q 317 531 286 576 q 378 444 349 486 q 440 358 410 399 q 499 280 471 317 q 550 210 526 243 q 601 138 578 171 q 644 76 624 106 q 686 19 665 47 q 731 -12 706 -10 q 777 -1 757 -15 q 802 38 797 13 q 786 92 807 64 q 746 149 767 119 q 701 213 725 179 q 650 285 678 246 q 600 353 628 317 q 542 430 572 389 q 481 517 513 471 q 418 605 450 560 q 358 692 386 650 q 306 765 329 733 q 263 826 282 799 q 226 878 243 854 q 193 925 208 901 m 775 853 q 791 906 796 881 q 766 945 786 931 q 720 957 746 960 q 675 925 694 954 q 640 878 658 903 q 602 826 622 854 q 557 761 582 797 q 505 690 535 731 q 443 606 475 650 q 379 518 411 561 q 317 432 347 474 q 259 353 286 390 q 208 282 232 315 q 135 179 168 225 q 72 92 101 133 q 56 38 51 64 q 81 -1 61 13 q 127 -12 101 -15 q 172 19 153 -10 q 213 75 192 46 q 258 137 235 104 q 307 206 281 169 q 359 277 332 239 q 417 357 386 315 q 479 443 447 399 q 528 510 504 476 q 576 576 553 543 q 621 638 600 608 q 660 692 642 667 q 704 753 685 726 q 741 805 724 781 q 775 853 758 829 z "},"Y":{"ha":808,"x_min":39,"x_max":769,"o":"m 751 858 q 761 914 769 889 q 731 951 753 939 q 685 956 710 963 q 643 919 660 950 q 613 867 628 893 q 585 814 599 840 q 557 761 571 788 q 504 667 528 710 q 457 581 481 624 q 406 486 433 538 q 360 382 379 438 q 342 261 342 326 q 342 199 342 228 q 342 146 342 171 q 342 99 342 121 q 342 56 342 76 q 354 10 342 28 q 385 -12 367 -7 q 423 -12 404 -18 q 454 10 442 -7 q 467 56 467 28 q 467 117 467 86 q 467 185 467 149 q 467 263 467 221 q 459 369 467 328 q 435 442 451 410 q 394 510 418 474 q 336 604 369 547 q 295 678 314 643 q 258 748 276 713 q 217 824 239 783 q 167 918 194 865 q 125 956 150 950 q 78 951 100 963 q 47 915 56 939 q 56 860 39 890 q 107 764 85 806 q 148 686 129 722 q 186 616 167 650 q 228 542 206 582 q 276 466 254 496 q 312 409 297 436 q 334 349 326 382 q 342 263 342 315 q 342 200 342 229 q 342 146 342 171 q 342 99 342 121 q 342 56 342 76 q 354 10 342 28 q 385 -12 367 -7 q 423 -12 404 -18 q 454 10 442 -7 q 467 56 467 28 q 467 101 467 78 q 467 150 467 125 q 467 203 467 175 q 467 261 467 231 q 482 350 467 308 q 517 428 497 392 q 567 521 543 478 q 614 607 590 564 q 665 700 638 650 q 708 778 688 739 q 751 858 729 818 z "},"Z":{"ha":826,"x_min":67,"x_max":758,"o":"m 146 944 q 93 926 111 944 q 75 882 75 907 q 92 838 75 857 q 146 819 110 819 q 208 819 176 819 q 278 819 239 819 q 373 819 317 819 q 511 819 429 819 q 614 813 576 819 q 670 799 651 807 q 697 788 689 792 q 713 790 706 785 q 733 814 719 794 q 753 852 747 833 q 756 888 758 871 q 742 917 753 904 q 714 937 732 929 q 672 944 696 944 q 639 941 649 944 q 626 926 629 938 q 615 893 622 915 q 587 833 607 871 q 525 738 567 794 q 445 628 483 681 q 375 530 407 575 q 317 447 343 485 q 271 383 290 410 q 240 339 251 356 q 208 292 226 318 q 170 238 190 267 q 130 182 150 210 q 92 131 110 154 q 72 92 78 111 q 69 57 67 74 q 83 28 72 40 q 111 8 93 15 q 153 0 129 0 q 203 0 183 0 q 241 0 224 0 q 280 0 258 0 q 333 0 301 0 q 412 0 365 0 q 508 0 458 0 q 604 0 558 0 q 681 0 650 0 q 733 19 715 0 q 750 63 750 38 q 733 106 750 88 q 681 125 715 125 q 616 125 649 125 q 549 125 583 125 q 479 125 515 125 q 406 125 443 125 q 364 125 381 125 q 337 125 347 125 q 318 125 326 125 q 301 125 310 125 q 281 125 293 125 q 261 126 268 125 q 252 128 254 126 q 251 135 250 131 q 257 144 253 139 q 267 158 261 150 q 278 176 272 167 q 292 195 285 185 q 308 217 300 206 q 326 243 317 229 q 349 274 336 257 q 389 329 361 290 q 451 418 417 368 q 521 517 486 468 q 583 606 556 567 q 622 660 611 644 q 650 698 638 681 q 675 733 663 715 q 701 771 688 751 q 733 814 715 790 q 753 852 747 833 q 756 888 758 871 q 742 917 753 904 q 714 937 732 929 q 672 944 696 944 q 622 944 642 944 q 584 944 601 944 q 545 944 567 944 q 492 944 524 944 q 414 944 460 944 q 318 944 368 944 q 222 944 268 944 q 146 944 176 944 z "},"a":{"ha":811,"x_min":54,"x_max":721,"o":"m 721 628 q 702 681 721 663 q 658 699 683 699 q 615 681 633 699 q 596 628 596 663 q 596 567 596 604 q 596 488 596 531 q 596 400 596 444 q 596 315 596 356 q 581 225 596 264 q 539 160 567 186 q 473 122 511 135 q 389 110 435 110 q 304 127 343 110 q 238 176 265 144 q 194 251 210 208 q 179 346 179 294 q 194 440 179 397 q 237 515 210 483 q 303 563 264 546 q 388 581 342 581 q 496 551 449 581 q 569 469 543 522 q 596 349 596 417 q 596 294 596 328 q 596 227 596 260 q 596 179 596 194 q 596 133 596 156 q 596 86 596 110 q 596 40 596 63 q 615 -12 596 6 q 658 -31 633 -31 q 702 -12 683 -31 q 721 40 721 6 q 721 110 721 78 q 721 179 721 142 q 721 230 721 203 q 721 287 721 257 q 721 349 721 317 q 695 493 721 428 q 624 606 669 558 q 519 680 579 654 q 388 706 458 706 q 217 660 293 706 q 98 533 142 614 q 54 346 54 451 q 79 201 54 267 q 150 86 104 135 q 257 11 196 38 q 389 -15 318 -15 q 520 7 460 -15 q 626 72 581 29 q 696 175 671 114 q 721 315 721 236 q 721 419 721 375 q 721 497 721 463 q 721 561 721 531 q 721 628 721 592 z "},"b":{"ha":811,"x_min":92,"x_max":758,"o":"m 92 61 q 110 8 92 26 q 154 -10 129 -10 q 198 8 179 -10 q 217 61 217 26 q 217 116 217 96 q 217 159 217 136 q 217 225 217 182 q 217 347 217 268 q 242 468 217 415 q 315 551 268 521 q 424 581 361 581 q 508 563 469 581 q 575 514 547 546 q 618 439 603 482 q 633 344 633 396 q 617 250 633 293 q 574 176 601 207 q 508 127 546 144 q 425 110 469 110 q 343 126 381 110 q 277 167 306 142 q 233 222 249 192 q 217 282 217 253 q 217 456 217 389 q 217 571 217 524 q 217 662 217 618 q 217 765 217 706 q 217 842 217 813 q 217 898 217 871 q 217 965 217 925 q 198 1017 217 1000 q 154 1035 179 1035 q 110 1017 129 1035 q 92 965 92 1000 q 92 897 92 928 q 92 834 92 867 q 92 757 92 801 q 92 657 92 700 q 92 566 92 614 q 92 450 92 518 q 92 274 92 382 q 116 174 92 225 q 185 81 140 124 q 290 11 229 38 q 425 -15 351 -15 q 555 11 494 -15 q 661 85 615 38 q 733 199 707 133 q 758 344 758 265 q 714 531 758 450 q 594 659 669 613 q 424 706 518 706 q 253 660 328 706 q 135 533 178 614 q 92 347 92 453 q 92 224 92 276 q 92 131 92 171 q 92 61 92 92 z "},"c":{"ha":660,"x_min":54,"x_max":621,"o":"m 583 43 q 616 89 613 64 q 606 134 619 114 q 569 160 593 154 q 518 150 546 167 q 447 118 481 126 q 385 110 414 110 q 281 137 328 108 q 206 219 233 165 q 179 344 179 272 q 206 469 179 417 q 279 550 233 521 q 382 579 325 579 q 445 572 411 579 q 518 540 479 564 q 570 530 546 524 q 608 556 594 536 q 617 601 621 576 q 583 647 613 626 q 487 690 542 676 q 382 704 432 704 q 219 660 293 704 q 99 535 144 617 q 54 344 54 454 q 100 151 54 232 q 222 27 146 71 q 388 -15 297 -17 q 489 0 435 -15 q 583 43 543 15 z "},"d":{"ha":811,"x_min":54,"x_max":721,"o":"m 721 967 q 702 1019 721 1001 q 658 1036 683 1036 q 615 1019 633 1036 q 596 967 596 1001 q 596 910 596 936 q 596 860 596 885 q 596 811 596 836 q 596 715 596 757 q 596 635 596 674 q 596 554 596 597 q 596 457 596 511 q 596 329 596 403 q 581 237 596 278 q 539 167 567 196 q 473 124 511 139 q 389 110 435 110 q 279 140 326 110 q 206 224 232 171 q 179 346 179 278 q 194 440 179 397 q 237 515 210 483 q 303 563 264 546 q 388 581 342 581 q 496 551 449 581 q 569 469 543 522 q 596 349 596 417 q 596 294 596 328 q 596 227 596 260 q 596 179 596 194 q 596 115 596 149 q 596 40 596 81 q 615 -13 596 4 q 658 -31 633 -31 q 702 -12 683 -31 q 721 40 721 6 q 721 110 721 78 q 721 179 721 142 q 721 258 721 215 q 721 349 721 301 q 695 493 721 428 q 624 606 669 558 q 519 680 579 654 q 388 706 458 706 q 217 660 293 706 q 98 533 142 614 q 54 346 54 451 q 79 201 54 267 q 150 86 104 135 q 257 11 196 38 q 389 -15 318 -15 q 520 9 460 -15 q 626 78 581 33 q 696 187 671 124 q 721 329 721 250 q 721 465 721 408 q 721 570 721 521 q 721 676 721 619 q 721 811 721 732 q 721 869 721 846 q 721 915 721 893 q 721 967 721 938 z "},"e":{"ha":761,"x_min":54,"x_max":703,"o":"m 236 408 q 183 390 201 408 q 165 346 165 371 q 183 302 165 321 q 236 283 201 283 q 295 283 265 283 q 358 283 325 283 q 428 283 390 283 q 510 283 465 283 q 608 294 568 283 q 669 327 647 306 q 697 382 692 349 q 694 458 703 415 q 638 590 681 535 q 532 675 596 644 q 392 706 468 706 q 219 660 296 706 q 99 534 143 615 q 54 344 54 453 q 101 151 54 232 q 228 28 149 71 q 404 -15 307 -15 q 485 -8 443 -15 q 571 16 528 0 q 657 57 614 32 q 694 99 688 74 q 688 145 700 124 q 651 175 675 167 q 596 165 626 183 q 530 135 563 147 q 465 116 497 122 q 404 110 433 110 q 288 137 339 110 q 208 217 238 164 q 179 344 179 269 q 206 469 179 415 q 281 551 233 522 q 392 581 329 581 q 476 563 439 581 q 538 513 514 546 q 572 436 563 481 q 572 417 575 422 q 560 409 568 411 q 540 408 553 407 q 510 408 526 408 q 416 408 464 408 q 322 408 368 408 q 236 408 276 408 z "},"f":{"ha":506,"x_min":8,"x_max":543,"o":"m 442 883 q 497 876 472 867 q 532 907 521 885 q 536 954 543 929 q 497 994 529 979 q 399 1025 447 1019 q 308 1017 351 1031 q 233 976 265 1004 q 183 906 201 947 q 164 811 164 864 q 164 640 164 722 q 164 486 164 557 q 164 360 164 415 q 164 271 164 306 q 164 205 164 242 q 164 129 164 168 q 164 56 164 90 q 183 2 164 19 q 226 -15 201 -15 q 270 3 251 -15 q 289 56 289 21 q 289 124 289 92 q 289 191 289 156 q 289 271 289 226 q 289 390 289 322 q 289 533 289 458 q 289 679 289 607 q 289 811 289 751 q 310 877 289 854 q 367 901 332 900 q 442 883 401 903 m 429 567 q 482 585 464 567 q 500 629 500 604 q 482 673 500 654 q 429 692 464 692 q 381 692 400 692 q 346 692 363 692 q 308 692 329 692 q 231 692 268 692 q 154 692 193 692 q 118 692 133 692 q 79 692 103 692 q 26 673 44 692 q 8 629 8 654 q 26 585 8 604 q 79 567 44 567 q 106 567 93 567 q 129 567 118 567 q 154 567 140 567 q 231 567 197 567 q 308 567 265 567 q 344 567 325 567 q 385 567 364 567 q 429 567 406 567 z "},"g":{"ha":772,"x_min":54,"x_max":681,"o":"m 192 -76 q 135 -71 160 -61 q 101 -103 111 -81 q 98 -150 90 -125 q 136 -190 106 -175 q 283 -233 207 -224 q 429 -227 358 -242 q 557 -174 500 -212 q 647 -75 614 -136 q 681 68 681 -14 q 681 213 681 133 q 681 389 681 292 q 640 552 681 481 q 528 665 599 624 q 367 706 457 706 q 208 664 279 706 q 96 550 138 622 q 54 386 54 478 q 78 258 54 317 q 144 155 101 199 q 244 88 188 111 q 368 64 301 64 q 492 88 435 64 q 591 154 549 111 q 657 256 633 197 q 681 383 681 314 q 681 470 681 431 q 681 550 681 510 q 681 636 681 590 q 662 689 681 671 q 618 707 643 707 q 574 690 593 707 q 556 636 556 672 q 556 554 556 599 q 556 466 556 510 q 556 383 556 422 q 542 305 556 340 q 503 243 528 269 q 444 203 479 217 q 368 189 410 189 q 292 203 326 189 q 232 244 257 218 q 193 306 207 269 q 179 386 179 343 q 193 465 179 429 q 232 526 207 500 q 291 566 257 551 q 367 581 325 581 q 465 556 422 581 q 531 489 507 532 q 556 389 556 446 q 556 245 556 324 q 556 68 556 167 q 521 -40 556 1 q 430 -98 486 -81 q 311 -110 374 -115 q 192 -76 249 -104 z "},"h":{"ha":789,"x_min":92,"x_max":710,"o":"m 585 56 q 603 3 585 21 q 647 -15 622 -15 q 691 3 672 -15 q 710 56 710 21 q 710 120 710 90 q 710 180 710 150 q 710 243 710 210 q 710 333 710 292 q 710 407 710 375 q 689 535 710 479 q 631 628 668 590 q 542 686 593 667 q 432 706 492 706 q 298 676 360 706 q 190 597 236 647 q 117 481 143 546 q 92 344 92 415 q 92 272 92 310 q 92 196 92 233 q 92 123 92 158 q 92 56 92 88 q 104 10 92 28 q 135 -12 117 -7 q 173 -12 154 -18 q 204 10 192 -7 q 217 56 217 28 q 217 145 217 85 q 217 282 217 206 q 217 438 217 358 q 217 586 217 517 q 217 701 217 656 q 217 754 217 747 q 217 822 217 793 q 217 873 217 850 q 217 917 217 896 q 217 963 217 939 q 198 1015 217 997 q 154 1032 179 1032 q 110 1015 129 1032 q 92 963 92 997 q 92 905 92 939 q 92 832 92 871 q 92 754 92 793 q 92 694 92 743 q 92 573 92 644 q 92 421 92 501 q 92 265 92 340 q 92 133 92 189 q 92 56 92 78 q 104 10 92 28 q 135 -12 117 -7 q 173 -12 154 -18 q 204 10 192 -7 q 217 56 217 28 q 217 158 217 99 q 217 272 217 217 q 217 358 217 326 q 232 454 217 413 q 274 524 247 496 q 339 567 301 553 q 422 581 376 581 q 511 562 475 581 q 566 504 547 543 q 585 407 585 465 q 585 318 585 360 q 585 243 585 276 q 585 183 585 215 q 585 117 585 150 q 585 56 585 85 z "},"i":{"ha":321,"x_min":97,"x_max":222,"o":"m 97 56 q 116 2 97 19 q 160 -15 135 -15 q 203 3 185 -15 q 222 56 222 21 q 222 115 222 88 q 222 169 222 142 q 222 229 222 197 q 222 303 222 261 q 222 388 222 346 q 222 463 222 431 q 222 520 222 494 q 222 573 222 546 q 222 636 222 600 q 203 688 222 671 q 160 706 185 706 q 116 688 135 706 q 97 636 97 671 q 97 572 97 601 q 97 515 97 542 q 97 463 97 489 q 97 381 97 415 q 97 311 97 346 q 97 229 97 276 q 97 174 97 203 q 97 115 97 146 q 97 56 97 85 m 97 883 q 116 835 97 851 q 160 819 135 819 q 203 835 185 819 q 222 883 222 851 q 222 908 222 899 q 222 928 222 918 q 222 951 222 938 q 203 999 222 983 q 160 1015 185 1015 q 116 999 135 1015 q 97 951 97 983 q 97 928 97 938 q 97 908 97 918 q 97 883 97 899 z "},"j":{"ha":340,"x_min":-96,"x_max":242,"o":"m 242 636 q 223 688 242 671 q 179 706 204 706 q 135 688 154 706 q 117 636 117 671 q 117 555 117 596 q 117 472 117 514 q 117 386 117 429 q 117 271 117 328 q 117 144 117 214 q 117 -24 117 75 q 101 -89 117 -68 q 59 -111 85 -110 q 1 -100 33 -112 q -55 -99 -32 -87 q -87 -133 -78 -110 q -86 -181 -96 -157 q -43 -217 -76 -204 q 58 -235 7 -236 q 150 -210 108 -233 q 217 -141 192 -187 q 242 -24 242 -94 q 242 85 242 26 q 242 201 242 143 q 242 308 242 260 q 242 386 242 357 q 242 469 242 435 q 242 530 242 503 q 242 582 242 557 q 242 636 242 607 m 117 883 q 135 835 117 851 q 179 819 154 819 q 223 835 204 819 q 242 883 242 851 q 242 908 242 899 q 242 928 242 918 q 242 951 242 938 q 223 999 242 983 q 179 1015 204 1015 q 135 999 154 1015 q 117 951 117 983 q 117 928 117 938 q 117 908 117 918 q 117 883 117 899 z "},"k":{"ha":696,"x_min":97,"x_max":657,"o":"m 222 965 q 203 1017 222 1000 q 160 1035 185 1035 q 116 1017 135 1035 q 97 965 97 1000 q 97 895 97 926 q 97 836 97 864 q 97 781 97 808 q 97 634 97 699 q 97 510 97 569 q 97 385 97 450 q 97 239 97 321 q 97 151 97 197 q 97 56 97 106 q 116 2 97 19 q 160 -15 135 -15 q 203 3 185 -15 q 222 56 222 21 q 222 118 222 89 q 222 176 222 147 q 222 239 222 206 q 222 365 222 294 q 222 510 222 435 q 222 655 222 585 q 222 781 222 725 q 222 843 222 814 q 222 902 222 872 q 222 965 222 932 m 613 586 q 643 633 640 607 q 631 678 646 658 q 591 703 617 699 q 538 686 565 707 q 462 630 501 658 q 381 572 422 601 q 297 511 340 543 q 210 435 239 468 q 180 373 181 403 q 208 309 179 343 q 293 231 236 275 q 379 159 336 197 q 465 83 422 121 q 547 10 508 44 q 598 -12 572 -14 q 640 8 624 -10 q 657 52 657 26 q 631 101 657 78 q 547 178 590 139 q 459 255 504 217 q 371 328 414 293 q 328 362 339 353 q 328 378 317 371 q 372 411 339 386 q 455 471 414 442 q 535 529 496 500 q 613 586 575 558 z "},"l":{"ha":321,"x_min":97,"x_max":222,"o":"m 97 56 q 116 3 97 21 q 160 -15 135 -15 q 203 3 185 -15 q 222 56 222 21 q 222 121 222 90 q 222 182 222 151 q 222 247 222 213 q 222 452 222 357 q 222 631 222 547 q 222 788 222 714 q 222 847 222 818 q 222 903 222 875 q 222 965 222 932 q 203 1018 222 1000 q 160 1036 185 1036 q 116 1018 135 1036 q 97 965 97 1000 q 97 875 97 925 q 97 788 97 825 q 97 490 97 622 q 97 247 97 358 q 97 185 97 218 q 97 118 97 151 q 97 56 97 85 z "},"m":{"ha":1150,"x_min":92,"x_max":1069,"o":"m 217 636 q 198 688 217 671 q 154 706 179 706 q 110 688 129 706 q 92 636 92 671 q 92 581 92 608 q 92 525 92 553 q 92 469 92 497 q 92 424 92 461 q 92 334 92 386 q 92 226 92 282 q 92 125 92 171 q 92 56 92 79 q 104 10 92 28 q 135 -12 117 -7 q 173 -12 154 -18 q 204 10 192 -7 q 217 56 217 28 q 217 132 217 86 q 217 227 217 178 q 217 319 217 276 q 217 386 217 363 q 229 471 217 435 q 265 531 242 507 q 322 568 289 556 q 396 581 356 581 q 462 564 435 581 q 503 513 489 547 q 518 421 518 478 q 518 347 518 397 q 518 239 518 297 q 518 131 518 181 q 518 56 518 81 q 531 10 518 28 q 562 -12 543 -7 q 599 -12 581 -18 q 631 10 618 -7 q 643 56 643 28 q 643 124 643 81 q 643 216 643 167 q 643 310 643 265 q 643 386 643 356 q 656 471 643 435 q 692 531 668 507 q 749 568 715 556 q 822 581 782 581 q 888 564 861 581 q 930 513 915 547 q 944 421 944 478 q 944 333 944 374 q 944 243 944 292 q 944 183 944 215 q 944 117 944 150 q 944 56 944 85 q 963 3 944 21 q 1007 -15 982 -15 q 1051 3 1032 -15 q 1069 56 1069 21 q 1069 120 1069 90 q 1069 180 1069 150 q 1069 243 1069 210 q 1069 299 1069 265 q 1069 366 1069 332 q 1069 421 1069 400 q 1050 548 1069 494 q 996 637 1031 601 q 917 689 961 672 q 822 706 872 706 q 703 680 758 706 q 606 608 647 654 q 541 498 564 561 q 518 358 518 435 q 518 299 518 338 q 518 213 518 260 q 518 124 518 167 q 518 56 518 82 q 531 10 518 28 q 562 -12 543 -7 q 599 -12 581 -18 q 631 10 618 -7 q 643 56 643 28 q 643 117 643 78 q 643 203 643 156 q 643 295 643 250 q 643 374 643 340 q 643 421 643 408 q 624 548 643 494 q 569 637 604 601 q 490 689 535 672 q 396 706 446 706 q 276 680 332 706 q 179 608 221 654 q 115 498 138 561 q 92 358 92 435 q 92 283 92 324 q 92 201 92 242 q 92 122 92 160 q 92 56 92 85 q 104 10 92 28 q 135 -12 117 -7 q 173 -12 154 -18 q 204 10 192 -7 q 217 56 217 28 q 217 124 217 79 q 217 223 217 169 q 217 328 217 276 q 217 417 217 379 q 217 469 217 456 q 217 526 217 500 q 217 579 217 553 q 217 636 217 606 z "},"n":{"ha":789,"x_min":92,"x_max":710,"o":"m 585 56 q 603 3 585 21 q 647 -15 622 -15 q 691 3 672 -15 q 710 56 710 21 q 710 119 710 90 q 710 178 710 149 q 710 243 710 208 q 710 334 710 293 q 710 407 710 375 q 689 535 710 479 q 631 628 668 590 q 542 686 593 667 q 432 706 492 706 q 297 676 360 706 q 189 597 235 647 q 117 481 143 546 q 92 344 92 415 q 92 272 92 310 q 92 196 92 233 q 92 123 92 158 q 92 56 92 88 q 104 10 92 28 q 135 -12 117 -7 q 173 -12 154 -18 q 204 10 192 -7 q 217 56 217 28 q 217 127 217 81 q 217 228 217 174 q 217 335 217 283 q 217 424 217 388 q 217 469 217 461 q 217 526 217 500 q 217 579 217 553 q 217 636 217 606 q 198 689 217 671 q 154 707 179 707 q 110 689 129 707 q 92 636 92 671 q 92 581 92 608 q 92 525 92 553 q 92 469 92 497 q 92 418 92 456 q 92 330 92 381 q 92 226 92 279 q 92 127 92 172 q 92 56 92 82 q 104 10 92 28 q 135 -12 117 -7 q 173 -12 154 -18 q 204 10 192 -7 q 217 56 217 28 q 217 130 217 88 q 217 215 217 172 q 217 297 217 258 q 217 358 217 335 q 232 454 217 413 q 274 524 247 496 q 339 566 301 551 q 422 581 376 581 q 511 561 475 581 q 566 503 547 542 q 585 407 585 465 q 585 317 585 358 q 585 243 585 276 q 585 183 585 215 q 585 117 585 150 q 585 56 585 85 z "},"o":{"ha":801,"x_min":54,"x_max":747,"o":"m 296 -1 q 352 0 329 -12 q 383 36 375 13 q 381 83 392 60 q 336 118 369 106 q 290 138 311 126 q 252 164 269 149 q 219 201 235 179 q 190 267 200 231 q 179 346 179 304 q 207 467 179 414 q 285 551 235 521 q 400 581 335 581 q 515 551 465 581 q 594 467 565 521 q 622 346 622 414 q 612 268 622 304 q 582 203 601 232 q 532 151 558 169 q 464 118 506 132 q 419 83 431 106 q 417 36 408 60 q 448 0 425 13 q 503 -1 471 -12 q 608 51 565 21 q 685 133 651 82 q 731 231 715 178 q 747 346 747 285 q 702 531 747 450 q 578 659 657 613 q 400 706 500 706 q 223 659 301 706 q 99 531 144 613 q 54 346 54 450 q 71 229 54 283 q 117 132 88 175 q 194 51 150 82 q 296 -1 238 19 z "},"p":{"ha":811,"x_min":92,"x_max":758,"o":"m 92 -174 q 110 -226 92 -208 q 154 -244 129 -244 q 198 -226 179 -244 q 217 -174 217 -208 q 217 -108 217 -139 q 217 -43 217 -78 q 217 39 217 -8 q 217 147 217 93 q 217 251 217 200 q 217 347 217 301 q 242 468 217 415 q 315 551 268 521 q 424 581 361 581 q 508 563 469 581 q 575 514 547 546 q 618 439 603 482 q 633 344 633 396 q 617 250 633 293 q 574 176 601 207 q 508 127 546 144 q 425 110 469 110 q 341 127 379 110 q 275 176 303 144 q 232 250 247 208 q 217 342 217 292 q 217 454 217 410 q 217 538 217 499 q 217 626 217 576 q 198 679 217 661 q 154 697 179 697 q 110 680 129 697 q 92 626 92 663 q 92 544 92 593 q 92 441 92 494 q 92 342 92 388 q 117 200 92 265 q 187 87 142 135 q 293 12 232 39 q 425 -15 354 -15 q 555 11 494 -15 q 661 85 615 38 q 733 199 707 133 q 758 344 758 265 q 714 531 758 450 q 594 659 669 613 q 424 706 518 706 q 253 660 328 706 q 135 533 178 614 q 92 347 92 453 q 92 222 92 281 q 92 115 92 163 q 92 32 92 68 q 92 -42 92 -6 q 92 -112 92 -79 q 92 -174 92 -146 z "},"q":{"ha":811,"x_min":54,"x_max":721,"o":"m 596 -174 q 615 -226 596 -208 q 658 -244 633 -244 q 702 -226 683 -244 q 721 -174 721 -208 q 721 -120 721 -149 q 721 -63 721 -92 q 721 -11 721 -35 q 721 49 721 11 q 721 133 721 88 q 721 224 721 178 q 721 306 721 269 q 695 484 721 408 q 624 609 669 560 q 519 682 579 658 q 389 706 458 706 q 258 679 319 706 q 151 604 197 653 q 80 490 106 556 q 54 344 54 424 q 98 159 54 240 q 217 31 142 78 q 388 -15 293 -15 q 519 11 458 -15 q 625 86 579 38 q 696 200 671 135 q 721 344 721 265 q 721 442 721 401 q 721 515 721 483 q 721 574 721 546 q 721 636 721 603 q 702 688 721 671 q 658 706 683 706 q 615 688 633 706 q 596 636 596 671 q 596 558 596 607 q 596 452 596 508 q 596 344 596 396 q 569 223 596 276 q 496 140 543 169 q 388 110 449 110 q 303 127 342 110 q 238 176 265 144 q 194 250 210 207 q 179 344 179 293 q 195 439 179 396 q 239 514 211 482 q 305 563 267 546 q 389 581 343 581 q 476 565 438 581 q 540 515 514 549 q 581 428 567 481 q 596 306 596 376 q 596 207 596 251 q 596 125 596 163 q 596 54 596 88 q 596 -11 596 21 q 596 -66 596 -40 q 596 -117 596 -92 q 596 -174 596 -143 z "},"r":{"ha":540,"x_min":92,"x_max":531,"o":"m 449 571 q 503 583 483 567 q 527 624 524 599 q 515 669 531 649 q 465 696 500 690 q 328 690 389 706 q 224 640 268 675 q 150 557 179 606 q 106 451 121 508 q 92 335 92 394 q 92 257 92 308 q 92 150 92 206 q 92 56 92 94 q 104 10 92 28 q 135 -12 117 -7 q 173 -12 154 -18 q 204 11 192 -6 q 217 56 217 28 q 217 130 217 83 q 217 228 217 176 q 217 321 217 279 q 217 381 217 363 q 217 466 217 426 q 217 545 217 506 q 217 631 217 585 q 198 683 217 665 q 154 701 179 701 q 110 684 129 701 q 92 631 92 667 q 92 549 92 593 q 92 463 92 506 q 92 381 92 419 q 92 311 92 354 q 92 220 92 268 q 92 128 92 172 q 92 56 92 85 q 104 10 92 28 q 135 -12 117 -7 q 173 -12 154 -18 q 204 11 192 -6 q 217 56 217 28 q 217 122 217 83 q 217 204 217 161 q 217 289 217 247 q 217 363 217 331 q 229 453 217 411 q 269 524 242 494 q 340 567 296 554 q 449 571 385 581 z "},"s":{"ha":642,"x_min":57,"x_max":585,"o":"m 465 544 q 522 538 497 528 q 556 569 546 547 q 559 616 567 592 q 521 656 551 640 q 417 694 468 682 q 318 706 365 706 q 190 680 246 706 q 103 608 135 654 q 71 501 71 563 q 102 401 71 439 q 186 337 133 363 q 304 289 239 311 q 370 266 333 279 q 433 233 407 253 q 460 183 460 213 q 442 141 460 157 q 398 117 425 125 q 339 110 371 110 q 281 116 311 110 q 221 133 251 122 q 160 161 190 144 q 105 169 129 178 q 69 139 81 161 q 63 92 57 117 q 101 50 69 67 q 222 1 161 18 q 339 -15 283 -15 q 466 9 411 -15 q 553 78 521 33 q 585 183 585 124 q 552 290 585 249 q 465 359 519 332 q 343 408 410 386 q 299 423 324 414 q 250 443 274 432 q 211 469 226 454 q 196 501 196 483 q 213 547 196 529 q 258 572 231 564 q 318 581 286 581 q 366 576 342 581 q 415 564 390 572 q 465 544 440 556 z "},"t":{"ha":467,"x_min":8,"x_max":458,"o":"m 164 56 q 183 2 164 19 q 226 -15 201 -15 q 270 3 251 -15 q 289 56 289 21 q 289 117 289 93 q 289 167 289 142 q 289 229 289 192 q 289 353 289 299 q 289 454 289 407 q 289 547 289 501 q 289 643 289 592 q 289 698 289 675 q 289 739 289 721 q 289 775 289 757 q 289 817 289 793 q 270 869 289 851 q 226 888 251 888 q 183 869 201 888 q 164 817 164 851 q 164 766 164 796 q 164 704 164 736 q 164 643 164 672 q 164 510 164 567 q 164 406 164 453 q 164 317 164 360 q 164 229 164 275 q 164 168 164 194 q 164 115 164 142 q 164 56 164 89 m 388 567 q 440 585 422 567 q 458 629 458 604 q 440 673 458 654 q 388 692 422 692 q 348 692 365 692 q 308 692 331 692 q 231 692 269 692 q 154 692 193 692 q 130 692 140 692 q 108 692 119 692 q 79 692 97 692 q 26 673 44 692 q 8 629 8 654 q 26 585 8 604 q 79 567 44 567 q 106 567 93 567 q 131 567 119 567 q 154 567 142 567 q 231 567 196 567 q 308 567 267 567 q 347 567 328 567 q 388 567 367 567 z "},"u":{"ha":789,"x_min":79,"x_max":699,"o":"m 204 636 q 185 688 204 671 q 142 706 167 706 q 98 688 117 706 q 79 636 79 671 q 79 527 79 589 q 79 403 79 465 q 79 288 79 340 q 115 124 79 192 q 213 20 150 56 q 358 -15 276 -15 q 494 11 432 -15 q 601 83 556 38 q 673 187 647 128 q 699 311 699 246 q 699 376 699 336 q 699 461 699 415 q 699 553 699 507 q 699 636 699 599 q 686 681 699 664 q 655 703 674 697 q 617 703 636 708 q 586 681 599 697 q 574 636 574 664 q 574 547 574 600 q 574 435 574 494 q 574 317 574 375 q 574 213 574 260 q 574 165 574 190 q 574 113 574 140 q 574 53 574 85 q 592 1 574 18 q 636 -17 611 -17 q 680 1 661 -17 q 699 53 699 18 q 699 106 699 83 q 699 154 699 129 q 699 213 699 179 q 699 300 699 244 q 699 419 699 356 q 699 541 699 483 q 699 636 699 599 q 686 681 699 664 q 655 703 674 697 q 617 703 636 708 q 586 681 599 697 q 574 636 574 664 q 574 551 574 600 q 574 454 574 503 q 574 367 574 406 q 574 311 574 328 q 558 233 574 269 q 513 169 542 197 q 444 126 483 142 q 358 110 404 110 q 274 130 308 110 q 222 190 239 150 q 204 288 204 229 q 204 413 204 351 q 204 531 204 474 q 204 636 204 588 z "},"v":{"ha":679,"x_min":18,"x_max":663,"o":"m 147 658 q 111 701 135 692 q 64 702 88 711 q 29 670 40 693 q 31 614 18 647 q 60 537 47 571 q 85 470 72 503 q 113 397 97 438 q 144 317 129 357 q 181 223 160 276 q 236 92 203 169 q 286 11 258 38 q 344 -15 314 -15 q 401 13 374 -14 q 449 94 428 40 q 488 198 471 153 q 520 279 506 243 q 547 347 535 315 q 571 408 558 378 q 599 478 586 447 q 624 542 611 510 q 651 615 638 575 q 651 672 663 649 q 615 702 639 694 q 567 700 590 710 q 532 657 543 690 q 507 585 519 618 q 482 522 494 553 q 456 456 469 492 q 424 373 440 414 q 392 292 408 332 q 358 208 376 251 q 347 181 351 190 q 340 171 343 171 q 333 181 338 171 q 321 210 329 190 q 289 291 304 253 q 260 367 274 329 q 229 444 246 404 q 201 515 214 483 q 176 581 189 547 q 147 658 164 615 z "},"w":{"ha":1007,"x_min":26,"x_max":981,"o":"m 156 657 q 119 701 143 690 q 73 703 96 711 q 38 672 50 694 q 39 615 26 649 q 69 528 54 572 q 99 439 85 483 q 135 326 117 388 q 175 206 154 264 q 186 174 182 188 q 197 144 190 161 q 213 99 203 128 q 250 19 231 50 q 290 -22 269 -11 q 330 -22 310 -32 q 369 20 350 -11 q 406 104 389 51 q 421 148 415 132 q 431 176 426 164 q 439 203 435 188 q 464 284 450 239 q 494 383 478 329 q 528 497 511 438 q 547 526 535 519 q 572 534 560 532 q 590 547 585 536 q 585 586 594 557 q 550 661 569 638 q 510 685 531 685 q 469 667 489 686 q 432 615 449 649 q 404 539 415 582 q 406 521 399 517 q 426 538 413 525 q 452 554 439 550 q 472 538 465 558 q 513 407 494 472 q 544 288 531 342 q 568 201 558 233 q 577 171 574 183 q 585 143 581 158 q 597 103 590 128 q 625 33 610 61 q 658 -10 640 4 q 693 -26 675 -25 q 729 -15 711 -28 q 765 26 747 -1 q 797 93 782 53 q 810 128 806 114 q 819 154 815 143 q 826 176 822 165 q 835 201 829 188 q 860 280 849 240 q 885 359 872 319 q 910 439 897 399 q 938 524 921 475 q 969 617 956 572 q 968 672 981 650 q 932 703 956 694 q 885 700 908 711 q 850 656 861 689 q 821 565 836 613 q 793 481 806 517 q 769 406 781 440 q 745 337 757 371 q 721 267 733 303 q 714 247 717 256 q 709 233 711 239 q 706 222 707 226 q 703 213 704 217 q 700 206 701 208 q 698 197 699 201 q 697 192 697 193 q 698 190 697 190 q 699 190 699 189 q 698 196 699 192 q 696 206 697 200 q 694 213 694 210 q 692 222 693 217 q 688 235 690 228 q 683 251 686 242 q 668 310 678 275 q 647 387 658 346 q 624 465 636 428 q 616 488 619 478 q 608 512 613 499 q 599 542 604 525 q 585 586 593 560 q 550 661 569 638 q 510 685 531 685 q 469 667 489 686 q 432 615 449 649 q 404 539 415 582 q 390 487 396 508 q 381 451 385 465 q 373 425 376 436 q 367 404 369 414 q 354 356 360 376 q 344 319 349 336 q 332 278 339 301 q 328 264 331 271 q 324 251 326 257 q 321 240 322 244 q 318 232 319 235 q 314 221 315 225 q 311 215 313 217 q 309 215 310 214 q 307 221 308 217 q 303 231 306 225 q 300 238 301 233 q 297 247 299 242 q 293 258 296 251 q 288 274 290 265 q 268 331 281 296 q 242 406 256 367 q 217 481 229 446 q 187 569 203 525 q 156 657 171 614 z "},"x":{"ha":693,"x_min":43,"x_max":649,"o":"m 175 675 q 128 705 154 703 q 83 692 101 707 q 60 651 64 676 q 78 597 56 625 q 126 535 101 567 q 172 475 151 504 q 219 417 190 454 q 285 332 249 379 q 363 232 322 285 q 444 126 404 179 q 474 88 460 107 q 501 51 488 69 q 529 17 515 33 q 576 -13 550 -11 q 621 0 601 -15 q 644 41 640 15 q 626 94 649 67 q 601 128 614 111 q 573 164 588 146 q 544 201 558 182 q 438 340 492 271 q 340 465 383 408 q 272 553 296 522 q 241 592 257 571 q 208 633 225 613 q 175 675 192 654 m 619 597 q 638 651 642 625 q 614 692 633 676 q 569 705 594 707 q 522 675 543 703 q 475 616 499 646 q 429 557 451 586 q 337 440 383 499 q 247 325 290 381 q 167 222 204 269 q 116 159 142 192 q 64 94 90 126 q 47 41 43 67 q 71 0 51 15 q 116 -13 90 -15 q 164 17 142 -11 q 197 60 179 39 q 231 103 214 82 q 264 144 247 124 q 387 301 318 213 q 526 479 456 390 q 574 538 550 508 q 619 597 597 568 z "},"y":{"ha":678,"x_min":18,"x_max":663,"o":"m 169 -147 q 163 -193 158 -172 q 181 -227 167 -214 q 215 -243 196 -240 q 252 -235 233 -246 q 283 -200 271 -225 q 297 -169 290 -185 q 312 -136 304 -153 q 326 -103 319 -119 q 340 -69 333 -86 q 351 -43 346 -57 q 363 -17 357 -29 q 374 6 369 -4 q 394 72 390 43 q 388 134 397 101 q 358 212 379 167 q 303 325 336 257 q 270 394 289 354 q 230 481 251 435 q 187 573 208 526 q 146 663 165 619 q 106 702 131 694 q 60 699 82 710 q 28 665 38 689 q 32 610 18 642 q 74 521 51 568 q 117 427 96 474 q 158 340 139 381 q 192 269 178 299 q 226 201 210 232 q 254 146 243 171 q 268 99 265 121 q 261 57 271 78 q 251 34 257 46 q 240 10 246 22 q 229 -17 235 -3 q 215 -49 222 -33 q 199 -82 207 -65 q 184 -115 192 -99 q 169 -147 176 -132 m 647 611 q 652 667 663 643 q 619 700 642 690 q 572 701 596 710 q 533 661 547 693 q 503 592 519 629 q 472 522 486 556 q 446 465 457 489 q 397 356 424 414 q 345 240 371 297 q 297 135 319 183 q 261 56 275 88 q 251 31 256 42 q 241 8 246 19 q 231 -17 236 -3 q 216 -49 224 -32 q 200 -82 208 -65 q 184 -115 192 -99 q 169 -147 176 -132 q 163 -193 158 -172 q 181 -227 167 -214 q 215 -243 196 -240 q 252 -235 233 -246 q 283 -200 271 -225 q 298 -169 290 -185 q 313 -137 306 -153 q 326 -105 319 -121 q 340 -72 333 -89 q 352 -46 346 -58 q 364 -20 358 -33 q 375 6 369 -7 q 428 122 396 51 q 495 271 460 193 q 560 415 531 349 q 578 457 568 433 q 601 507 589 481 q 624 560 613 533 q 647 611 636 586 z "},"z":{"ha":658,"x_min":49,"x_max":625,"o":"m 125 692 q 78 673 94 692 q 63 629 63 654 q 78 585 63 604 q 125 567 94 567 q 201 567 167 567 q 276 567 236 567 q 376 567 317 567 q 454 559 421 567 q 513 544 488 551 q 558 541 538 538 q 597 567 578 544 q 619 603 613 585 q 623 637 625 621 q 612 665 621 653 q 588 685 603 678 q 551 692 572 692 q 511 681 525 692 q 485 650 497 671 q 454 597 474 629 q 397 521 435 565 q 314 423 347 463 q 258 356 281 383 q 215 306 235 329 q 173 254 196 283 q 126 194 150 225 q 76 135 101 164 q 56 98 63 117 q 50 62 49 79 q 60 31 51 44 q 83 8 68 17 q 119 0 99 0 q 175 0 146 0 q 233 0 204 0 q 290 0 263 0 q 339 0 317 0 q 398 0 368 0 q 462 0 428 0 q 539 0 496 0 q 587 19 571 0 q 603 63 603 38 q 587 106 603 88 q 539 125 571 125 q 469 125 497 125 q 418 125 442 125 q 361 125 394 125 q 322 125 336 125 q 297 125 307 125 q 277 125 286 125 q 254 125 268 125 q 237 125 243 125 q 228 126 231 125 q 226 128 225 126 q 231 135 226 131 q 242 147 235 140 q 256 164 250 157 q 269 178 263 171 q 286 197 276 186 q 310 225 296 208 q 356 280 329 247 q 410 345 383 313 q 456 400 436 378 q 498 451 475 424 q 547 508 521 478 q 597 567 572 538 q 619 603 613 585 q 623 637 625 621 q 612 665 621 653 q 588 685 603 678 q 551 692 572 692 q 490 692 517 692 q 435 692 463 692 q 372 692 408 692 q 294 692 336 692 q 210 692 253 692 q 125 692 167 692 z "},".":{"ha":361,"x_min":124,"x_max":249,"o":"m 124 50 q 142 -3 124 15 q 186 -21 161 -21 q 230 -3 211 -21 q 249 50 249 15 q 249 79 249 71 q 249 96 249 88 q 249 125 249 104 q 230 177 249 160 q 186 194 211 194 q 142 177 161 194 q 124 125 124 160 q 124 96 124 104 q 124 79 124 88 q 124 50 124 71 z "},",":{"ha":374,"x_min":74,"x_max":264,"o":"m 94 -119 q 80 -183 74 -156 q 108 -222 86 -210 q 156 -227 131 -233 q 200 -190 182 -221 q 245 -90 229 -140 q 263 7 261 -39 q 251 92 264 53 q 207 158 238 131 q 153 180 181 182 q 108 158 126 178 q 92 110 90 139 q 125 54 94 82 q 145 8 146 35 q 130 -51 144 -19 q 94 -119 115 -83 z "},":":{"ha":361,"x_min":124,"x_max":249,"o":"m 124 50 q 142 -3 124 15 q 186 -21 161 -21 q 230 -3 211 -21 q 249 50 249 15 q 249 79 249 71 q 249 96 249 88 q 249 125 249 104 q 230 177 249 160 q 186 194 211 194 q 142 177 161 194 q 124 125 124 160 q 124 96 124 104 q 124 79 124 88 q 124 50 124 71 m 124 549 q 142 496 124 514 q 186 478 161 478 q 230 496 211 478 q 249 549 249 514 q 249 578 249 569 q 249 594 249 586 q 249 624 249 603 q 230 676 249 658 q 186 693 211 693 q 142 676 161 693 q 124 624 124 658 q 124 594 124 603 q 124 578 124 586 q 124 549 124 569 z "},";":{"ha":388,"x_min":88,"x_max":278,"o":"m 124 549 q 142 496 124 514 q 186 478 161 478 q 230 496 211 478 q 249 549 249 514 q 249 578 249 569 q 249 594 249 586 q 249 624 249 603 q 230 676 249 658 q 186 693 211 693 q 142 676 161 693 q 124 624 124 658 q 124 594 124 603 q 124 578 124 586 q 124 549 124 569 m 108 -119 q 94 -183 88 -156 q 122 -222 100 -210 q 170 -227 144 -233 q 214 -190 196 -221 q 259 -90 243 -140 q 276 7 275 -39 q 265 92 278 53 q 221 158 251 131 q 167 180 194 182 q 122 158 140 178 q 106 110 104 139 q 139 54 108 82 q 159 8 160 35 q 144 -51 158 -19 q 108 -119 129 -83 z "},"":{"ha":361,"x_min":124,"x_max":249,"o":"m 124 397 q 142 344 124 363 q 186 326 161 326 q 230 344 211 326 q 249 397 249 363 q 249 426 249 418 q 249 443 249 435 q 249 472 249 451 q 230 524 249 507 q 186 542 211 542 q 142 524 161 542 q 124 472 124 507 q 124 443 124 451 q 124 426 124 435 q 124 397 124 418 z "},"":{"ha":1083,"x_min":124,"x_max":971,"o":"m 124 50 q 142 -3 124 15 q 186 -21 161 -21 q 230 -3 211 -21 q 249 50 249 15 q 249 79 249 71 q 249 96 249 88 q 249 125 249 104 q 230 177 249 160 q 186 194 211 194 q 142 177 161 194 q 124 125 124 160 q 124 96 124 104 q 124 79 124 88 q 124 50 124 71 m 485 50 q 503 -3 485 15 q 547 -21 522 -21 q 591 -3 572 -21 q 610 50 610 15 q 610 79 610 71 q 610 96 610 88 q 610 125 610 104 q 591 177 610 160 q 547 194 572 194 q 503 177 522 194 q 485 125 485 160 q 485 96 485 104 q 485 79 485 88 q 485 50 485 71 m 846 50 q 865 -3 846 15 q 908 -21 883 -21 q 952 -3 933 -21 q 971 50 971 15 q 971 79 971 71 q 971 96 971 88 q 971 125 971 104 q 952 177 971 160 q 908 194 933 194 q 865 177 883 194 q 846 125 846 160 q 846 96 846 104 q 846 79 846 88 q 846 50 846 71 z "},"!":{"ha":363,"x_min":121,"x_max":249,"o":"m 246 889 q 227 942 246 925 q 183 960 208 960 q 140 942 158 960 q 121 889 121 925 q 121 836 121 861 q 121 790 121 811 q 121 749 121 768 q 121 679 121 717 q 121 601 121 642 q 121 518 121 561 q 121 481 121 497 q 121 444 121 464 q 121 396 121 425 q 140 344 121 361 q 183 326 158 326 q 227 344 208 326 q 246 396 246 361 q 246 442 246 426 q 246 474 246 458 q 246 517 246 489 q 246 616 246 557 q 246 749 246 675 q 246 790 246 768 q 246 836 246 811 q 246 889 246 861 m 124 50 q 142 -3 124 15 q 186 -21 161 -21 q 230 -3 211 -21 q 249 50 249 15 q 249 79 249 71 q 249 96 249 88 q 249 125 249 104 q 230 177 249 160 q 186 194 211 194 q 142 177 161 194 q 124 125 124 160 q 124 96 124 104 q 124 79 124 88 q 124 50 124 71 z "},"":{"ha":363,"x_min":118,"x_max":246,"o":"m 121 -82 q 140 -135 121 -117 q 183 -153 158 -153 q 227 -135 208 -153 q 246 -82 246 -117 q 246 -28 246 -53 q 246 17 246 -4 q 246 58 246 39 q 246 128 246 92 q 246 206 246 165 q 246 289 246 246 q 246 326 246 310 q 246 363 246 343 q 246 411 246 383 q 227 463 246 446 q 183 481 208 481 q 140 463 158 481 q 121 411 121 446 q 121 365 121 382 q 121 333 121 349 q 121 290 121 318 q 121 191 121 250 q 121 58 121 132 q 121 17 121 39 q 121 -28 121 -4 q 121 -82 121 -53 m 243 757 q 224 810 243 793 q 181 828 206 828 q 137 810 156 828 q 118 757 118 793 q 118 728 118 736 q 118 712 118 719 q 118 682 118 704 q 137 630 118 647 q 181 613 156 613 q 224 630 206 613 q 243 682 243 647 q 243 712 243 704 q 243 728 243 719 q 243 757 243 736 z "},"?":{"ha":710,"x_min":47,"x_max":656,"o":"m 99 907 q 56 869 65 893 q 57 822 47 844 q 90 788 67 799 q 146 790 114 778 q 243 821 194 811 q 335 831 292 831 q 432 816 388 831 q 503 774 476 801 q 531 707 531 747 q 517 658 531 682 q 480 615 504 635 q 422 583 456 596 q 310 517 346 551 q 263 445 274 482 q 251 369 251 408 q 270 317 251 335 q 314 300 289 300 q 358 317 339 300 q 376 369 376 335 q 382 413 376 399 q 408 439 388 428 q 469 467 428 450 q 572 529 531 492 q 634 613 613 567 q 656 707 656 658 q 615 835 656 779 q 503 924 575 892 q 335 956 431 956 q 260 951 299 956 q 181 935 221 946 q 99 907 140 924 m 253 50 q 272 -3 253 15 q 315 -21 290 -21 q 359 -3 340 -21 q 378 50 378 15 q 378 79 378 71 q 378 96 378 88 q 378 125 378 104 q 359 177 378 160 q 315 194 340 194 q 272 177 290 194 q 253 125 253 160 q 253 96 253 104 q 253 79 253 88 q 253 50 253 71 z "},"":{"ha":710,"x_min":68,"x_max":676,"o":"m 625 -104 q 667 -66 658 -90 q 667 -19 676 -42 q 633 15 657 4 q 578 13 610 25 q 481 -18 529 -8 q 389 -28 433 -28 q 292 -13 336 -28 q 220 29 247 1 q 193 96 193 57 q 206 145 193 122 q 244 188 219 168 q 301 219 269 207 q 414 286 378 251 q 461 358 450 321 q 472 433 472 396 q 453 485 472 468 q 410 503 435 503 q 366 485 385 503 q 347 433 347 468 q 342 390 347 406 q 317 365 336 375 q 254 336 297 354 q 153 274 194 313 q 90 190 111 236 q 68 96 68 144 q 108 -33 68 24 q 222 -121 149 -89 q 389 -153 294 -153 q 464 -147 425 -153 q 544 -131 503 -142 q 625 -104 585 -121 m 471 753 q 452 806 471 789 q 408 824 433 824 q 365 806 383 824 q 346 753 346 789 q 346 724 346 732 q 346 708 346 715 q 346 678 346 700 q 365 626 346 643 q 408 608 383 608 q 452 626 433 608 q 471 678 471 643 q 471 708 471 700 q 471 724 471 715 q 471 753 471 732 z "},"'":{"ha":413,"x_min":143,"x_max":268,"o":"m 143 608 q 162 556 143 574 q 206 539 181 539 q 249 556 231 539 q 268 608 268 574 q 268 678 268 642 q 268 751 268 714 q 268 824 268 789 q 268 889 268 860 q 249 942 268 925 q 206 960 231 960 q 162 942 181 960 q 143 889 143 925 q 143 801 143 850 q 143 703 143 753 q 143 608 143 653 z "},"\"":{"ha":689,"x_min":143,"x_max":546,"o":"m 143 608 q 162 556 143 574 q 206 539 181 539 q 249 556 231 539 q 268 608 268 574 q 268 703 268 653 q 268 801 268 753 q 268 889 268 850 q 249 942 268 925 q 206 960 231 960 q 162 942 181 960 q 143 889 143 925 q 143 801 143 850 q 143 703 143 753 q 143 608 143 653 m 421 608 q 440 556 421 574 q 483 539 458 539 q 527 556 508 539 q 546 608 546 574 q 546 678 546 642 q 546 751 546 714 q 546 824 546 789 q 546 889 546 860 q 527 942 546 925 q 483 960 508 960 q 440 942 458 960 q 421 889 421 925 q 421 801 421 850 q 421 703 421 753 q 421 608 421 653 z "},"":{"ha":381,"x_min":103,"x_max":293,"o":"m 272 857 q 287 920 293 893 q 258 959 281 947 q 210 965 236 971 q 167 928 185 958 q 122 827 138 878 q 104 731 106 776 q 116 646 103 685 q 160 579 129 607 q 214 557 186 556 q 260 577 242 558 q 277 624 278 596 q 244 679 276 651 q 224 727 224 700 q 238 788 224 754 q 272 857 251 821 z "},"":{"ha":388,"x_min":89,"x_max":279,"o":"m 110 658 q 95 595 89 622 q 124 556 101 568 q 172 551 146 544 q 215 588 197 557 q 260 688 244 638 q 278 785 276 739 q 266 869 279 831 q 222 936 253 908 q 169 958 196 960 q 124 936 142 956 q 108 888 106 917 q 140 832 110 860 q 160 785 161 813 q 145 726 160 758 q 110 658 131 694 z "},"":{"ha":381,"x_min":89,"x_max":279,"o":"m 110 -119 q 95 -183 89 -156 q 124 -222 101 -210 q 172 -227 146 -233 q 215 -190 197 -221 q 260 -90 244 -140 q 278 7 276 -39 q 266 92 279 53 q 222 158 253 131 q 169 180 196 182 q 124 158 142 178 q 108 110 106 139 q 140 54 110 82 q 160 8 161 35 q 145 -51 160 -19 q 110 -119 131 -83 z "},"":{"ha":658,"x_min":103,"x_max":571,"o":"m 550 857 q 565 920 571 893 q 536 959 558 947 q 488 965 514 971 q 444 928 463 958 q 399 827 415 878 q 382 731 383 776 q 394 646 381 685 q 438 579 407 607 q 491 558 464 556 q 536 579 518 560 q 553 627 554 599 q 519 683 551 656 q 499 731 499 704 q 515 789 500 757 q 550 857 529 821 m 272 857 q 287 920 293 893 q 258 959 281 947 q 210 965 236 971 q 167 928 185 958 q 122 827 138 878 q 104 731 106 776 q 116 646 103 685 q 160 579 129 607 q 214 557 186 556 q 260 577 242 558 q 277 624 278 596 q 244 679 276 651 q 224 727 224 700 q 238 788 224 754 q 272 857 251 821 z "},"":{"ha":658,"x_min":89,"x_max":557,"o":"m 110 658 q 95 595 89 622 q 124 556 101 568 q 172 551 146 544 q 215 588 197 557 q 260 688 244 638 q 278 785 276 739 q 266 869 279 831 q 222 936 253 908 q 169 958 196 960 q 124 936 142 956 q 108 888 106 917 q 140 832 110 860 q 160 785 161 813 q 145 726 160 758 q 110 658 131 694 m 388 658 q 373 595 367 622 q 401 556 379 568 q 449 551 424 544 q 493 588 475 557 q 538 688 522 638 q 556 785 554 739 q 544 869 557 831 q 500 936 531 908 q 446 958 474 960 q 400 938 418 957 q 383 892 382 919 q 415 836 385 864 q 436 789 436 817 q 422 728 436 761 q 388 658 408 694 z "},"":{"ha":658,"x_min":89,"x_max":557,"o":"m 110 -119 q 95 -183 89 -156 q 124 -222 101 -210 q 172 -227 146 -233 q 215 -190 197 -221 q 260 -90 244 -140 q 278 7 276 -39 q 266 92 279 53 q 222 158 253 131 q 169 180 196 182 q 124 158 142 178 q 108 110 106 139 q 140 54 110 82 q 160 8 161 35 q 145 -51 160 -19 q 110 -119 131 -83 m 388 -119 q 373 -183 367 -156 q 401 -222 379 -210 q 449 -227 424 -233 q 493 -190 475 -221 q 538 -90 522 -140 q 556 7 554 -39 q 544 92 557 53 q 500 158 531 131 q 446 181 474 182 q 400 160 418 179 q 383 114 382 142 q 415 58 385 86 q 436 11 436 39 q 422 -50 436 -17 q 388 -119 408 -83 z "},"":{"ha":551,"x_min":69,"x_max":481,"o":"m 454 589 q 481 638 481 613 q 465 683 481 664 q 423 704 449 701 q 371 683 397 707 q 322 639 346 661 q 272 593 297 617 q 218 544 246 569 q 160 490 190 518 q 92 418 114 449 q 70 361 69 388 q 93 306 71 335 q 158 238 115 276 q 235 167 200 201 q 305 102 271 133 q 371 42 339 71 q 423 21 397 18 q 465 42 449 24 q 481 87 481 61 q 454 136 481 113 q 389 196 422 165 q 319 260 356 226 q 242 329 283 293 q 212 356 219 350 q 212 370 204 363 q 243 399 219 378 q 301 451 274 426 q 353 499 328 475 q 404 544 379 522 q 454 589 429 567 z "},"":{"ha":551,"x_min":71,"x_max":482,"o":"m 97 589 q 147 544 122 567 q 198 499 172 522 q 251 451 224 475 q 308 399 278 426 q 340 370 332 378 q 340 356 347 363 q 310 329 332 350 q 233 260 269 293 q 163 196 196 226 q 97 136 131 165 q 71 87 71 113 q 87 42 71 61 q 128 21 103 24 q 181 42 154 18 q 247 102 214 71 q 315 167 279 133 q 393 238 351 201 q 458 306 436 276 q 481 361 481 335 q 460 418 482 388 q 392 490 438 449 q 333 544 361 518 q 280 593 306 569 q 230 639 254 617 q 181 683 206 661 q 128 704 154 707 q 87 683 103 701 q 71 638 71 664 q 97 589 71 613 z "},"":{"ha":885,"x_min":51,"x_max":824,"o":"m 436 589 q 463 638 463 613 q 447 683 463 664 q 405 704 431 701 q 353 683 379 707 q 303 639 328 661 q 253 593 279 617 q 200 544 228 569 q 142 490 172 518 q 74 418 96 449 q 52 361 51 388 q 75 306 53 335 q 140 238 97 276 q 217 167 182 201 q 287 102 253 133 q 353 42 321 71 q 405 21 379 18 q 447 42 431 24 q 463 87 463 61 q 436 136 463 113 q 370 196 404 165 q 301 260 336 226 q 224 329 265 293 q 194 356 201 350 q 194 370 186 363 q 225 399 201 378 q 283 451 256 426 q 335 499 310 475 q 386 544 361 522 q 436 589 411 567 m 797 589 q 824 638 824 613 q 808 683 824 664 q 766 704 792 701 q 714 683 740 707 q 665 639 689 661 q 615 593 640 617 q 561 544 589 569 q 503 490 533 518 q 435 418 457 449 q 413 361 413 388 q 436 306 414 335 q 501 238 458 276 q 579 167 543 201 q 649 102 615 133 q 714 42 682 71 q 766 21 740 18 q 808 42 792 24 q 824 87 824 61 q 797 136 824 113 q 732 196 765 165 q 663 260 699 226 q 585 329 626 293 q 555 356 563 350 q 555 370 547 363 q 586 399 563 378 q 644 451 617 426 q 697 499 671 475 q 747 544 722 522 q 797 589 772 567 z "},"":{"ha":885,"x_min":65,"x_max":838,"o":"m 453 589 q 503 544 478 567 q 553 499 528 522 q 606 451 579 475 q 664 399 633 426 q 695 370 688 378 q 695 356 703 363 q 665 329 688 350 q 588 260 625 293 q 519 196 551 226 q 453 136 486 165 q 426 87 426 113 q 442 42 426 61 q 484 21 458 24 q 536 42 510 18 q 602 102 569 71 q 672 167 635 133 q 749 238 708 201 q 814 306 792 276 q 837 361 836 335 q 815 418 838 388 q 747 490 793 449 q 689 544 717 518 q 635 593 661 569 q 585 639 610 617 q 536 683 561 661 q 484 704 510 707 q 442 683 458 701 q 426 638 426 664 q 453 589 426 613 m 92 589 q 142 544 117 567 q 192 499 167 522 q 245 451 218 475 q 303 399 272 426 q 334 370 326 378 q 334 356 342 363 q 304 329 326 350 q 227 260 264 293 q 158 196 190 226 q 92 136 125 165 q 65 87 65 113 q 81 42 65 61 q 123 21 97 24 q 175 42 149 18 q 241 102 208 71 q 310 167 274 133 q 388 238 346 201 q 453 306 431 276 q 476 361 475 335 q 454 418 476 388 q 386 490 432 449 q 328 544 356 518 q 274 593 300 569 q 224 639 249 617 q 175 683 200 661 q 123 704 149 707 q 81 683 97 701 q 65 638 65 664 q 92 589 65 613 z "},"(":{"ha":628,"x_min":96,"x_max":618,"o":"m 526 -249 q 582 -245 560 -258 q 611 -208 604 -232 q 606 -162 618 -185 q 560 -129 593 -139 q 472 -92 515 -117 q 390 -31 428 -67 q 268 154 315 40 q 221 424 221 268 q 268 694 221 581 q 390 878 315 807 q 472 939 428 914 q 560 976 515 964 q 606 1009 593 986 q 611 1056 618 1032 q 582 1092 604 1079 q 526 1096 560 1106 q 449 1067 488 1085 q 374 1026 410 1050 q 304 969 338 1001 q 156 748 215 885 q 96 424 96 611 q 156 100 96 236 q 304 -122 215 -36 q 374 -178 338 -153 q 449 -220 410 -203 q 526 -249 488 -237 z "},")":{"ha":628,"x_min":10,"x_max":531,"o":"m 100 1097 q 44 1094 67 1107 q 16 1057 22 1081 q 22 1010 10 1033 q 67 978 33 988 q 155 940 111 965 q 236 879 199 915 q 358 695 311 808 q 406 425 406 582 q 358 156 406 269 q 236 -29 311 42 q 155 -90 199 -65 q 67 -128 111 -115 q 22 -160 33 -137 q 16 -207 10 -183 q 44 -244 22 -231 q 100 -247 67 -257 q 178 -219 140 -236 q 253 -176 217 -201 q 322 -121 289 -151 q 472 101 413 -35 q 531 425 531 238 q 472 749 531 613 q 322 971 413 886 q 253 1027 289 1003 q 178 1069 217 1051 q 100 1097 140 1086 z "},"[":{"ha":597,"x_min":157,"x_max":550,"o":"m 479 942 q 533 960 515 942 q 550 1004 550 979 q 533 1048 550 1029 q 479 1067 515 1067 q 331 1063 390 1067 q 238 1047 272 1060 q 185 1003 203 1033 q 163 922 168 974 q 157 790 157 871 q 157 653 157 717 q 157 527 157 589 q 157 395 157 465 q 157 240 157 325 q 157 46 157 156 q 163 -85 157 -35 q 188 -164 169 -136 q 241 -203 206 -192 q 335 -217 276 -215 q 479 -219 393 -219 q 533 -201 515 -219 q 550 -157 550 -182 q 533 -113 550 -132 q 479 -94 515 -94 q 382 -94 419 -94 q 324 -89 344 -94 q 294 -66 303 -83 q 284 -15 286 -49 q 282 74 282 18 q 282 205 282 147 q 282 317 282 263 q 282 433 282 371 q 282 574 282 494 q 282 763 282 653 q 283 854 282 819 q 291 908 283 889 q 319 933 299 926 q 378 941 339 940 q 479 942 417 942 z "},"]":{"ha":597,"x_min":47,"x_max":440,"o":"m 118 942 q 215 942 178 942 q 274 936 253 942 q 303 913 294 931 q 313 863 311 896 q 315 774 315 829 q 315 642 315 700 q 315 531 315 585 q 315 415 315 476 q 315 274 315 353 q 315 85 315 194 q 315 -7 315 28 q 306 -60 314 -42 q 278 -86 299 -79 q 219 -94 258 -93 q 118 -94 181 -94 q 65 -113 83 -94 q 47 -157 47 -132 q 65 -201 47 -182 q 118 -219 83 -219 q 266 -216 207 -219 q 360 -199 325 -212 q 412 -156 394 -186 q 435 -75 429 -126 q 440 57 440 -24 q 440 194 440 131 q 440 320 440 258 q 440 452 440 382 q 440 607 440 522 q 440 801 440 692 q 434 933 440 882 q 410 1011 428 983 q 356 1051 392 1039 q 263 1065 321 1063 q 118 1067 204 1067 q 65 1048 83 1067 q 47 1004 47 1029 q 65 960 47 979 q 118 942 83 942 z "},"{":{"ha":647,"x_min":29,"x_max":604,"o":"m 510 936 q 565 938 543 925 q 596 974 588 950 q 593 1021 604 997 q 549 1056 582 1044 q 433 1077 488 1075 q 333 1068 378 1079 q 250 1026 286 1056 q 194 956 214 997 q 175 860 175 914 q 188 771 175 815 q 215 685 200 726 q 243 606 231 643 q 256 540 256 569 q 244 508 256 519 q 213 492 233 497 q 165 486 193 488 q 101 485 136 485 q 57 472 74 485 q 35 441 40 460 q 35 403 29 422 q 57 372 40 385 q 101 360 74 360 q 182 358 147 360 q 236 344 217 356 q 256 306 256 333 q 235 213 256 265 q 195 102 215 160 q 175 -14 175 44 q 193 -106 175 -65 q 244 -176 211 -147 q 319 -219 276 -204 q 424 -233 367 -235 q 549 -210 482 -232 q 592 -175 582 -199 q 595 -127 603 -151 q 565 -91 588 -103 q 510 -90 543 -79 q 428 -107 467 -104 q 358 -100 389 -110 q 315 -69 329 -90 q 300 -14 300 -47 q 313 56 300 18 q 340 136 325 94 q 368 221 356 178 q 381 306 381 264 q 351 387 381 353 q 276 442 321 421 q 183 474 231 464 q 101 485 136 485 q 57 472 74 485 q 35 441 40 460 q 35 403 29 422 q 57 372 40 385 q 101 360 74 360 q 165 367 129 360 q 239 388 201 374 q 308 423 276 401 q 360 474 340 444 q 381 540 381 503 q 368 623 381 581 q 340 708 356 665 q 313 789 325 750 q 300 860 300 828 q 317 917 300 896 q 367 949 335 939 q 432 953 394 956 q 510 936 469 950 z "},"}":{"ha":647,"x_min":43,"x_max":618,"o":"m 138 936 q 215 953 178 950 q 281 949 253 956 q 330 917 313 939 q 347 860 347 896 q 335 789 347 828 q 307 708 322 750 q 279 623 292 665 q 267 540 267 581 q 287 474 267 503 q 339 423 307 444 q 408 388 371 401 q 482 367 446 374 q 546 360 518 360 q 590 372 574 360 q 613 403 607 385 q 613 441 618 422 q 590 472 607 460 q 546 485 574 485 q 464 474 511 485 q 372 442 417 464 q 297 387 326 421 q 267 306 267 353 q 279 221 267 264 q 307 136 292 178 q 335 56 322 94 q 347 -14 347 18 q 333 -69 347 -47 q 289 -100 318 -90 q 220 -108 258 -110 q 138 -90 182 -106 q 82 -92 104 -79 q 52 -128 60 -104 q 55 -175 44 -151 q 99 -210 65 -199 q 223 -233 165 -232 q 328 -219 281 -235 q 404 -176 372 -204 q 454 -106 436 -147 q 472 -14 472 -65 q 452 102 472 44 q 412 213 432 160 q 392 306 392 265 q 411 344 392 333 q 465 358 431 356 q 546 360 500 360 q 590 372 574 360 q 613 403 607 385 q 613 441 618 422 q 590 472 607 460 q 546 485 574 485 q 483 486 511 485 q 435 492 456 488 q 403 508 414 497 q 392 540 392 519 q 404 606 392 569 q 432 685 417 643 q 460 771 447 726 q 472 860 472 815 q 453 956 472 914 q 398 1027 433 999 q 314 1068 363 1056 q 215 1078 271 1081 q 99 1056 160 1075 q 54 1021 65 1044 q 51 974 43 997 q 82 938 60 950 q 138 936 104 925 z "},"/":{"ha":681,"x_min":67,"x_max":596,"o":"m 585 994 q 583 1050 596 1028 q 547 1081 571 1072 q 500 1078 524 1089 q 465 1033 476 1067 q 446 974 456 1004 q 426 915 436 944 q 407 856 417 886 q 277 460 343 658 q 146 63 211 261 q 110 -42 128 10 q 76 -147 93 -94 q 79 -203 67 -181 q 115 -234 92 -226 q 162 -231 139 -242 q 196 -186 185 -219 q 219 -117 207 -151 q 242 -47 231 -82 q 265 24 254 -11 q 354 296 310 161 q 442 560 399 431 q 526 817 485 690 q 556 906 542 861 q 585 994 571 951 z "},"|":{"ha":438,"x_min":157,"x_max":282,"o":"m 282 1014 q 263 1067 282 1050 q 219 1085 244 1085 q 176 1067 194 1085 q 157 1014 157 1050 q 157 957 157 983 q 157 903 157 931 q 157 838 157 875 q 157 647 157 749 q 157 438 157 544 q 157 232 157 332 q 157 46 157 132 q 157 -40 157 -6 q 157 -102 157 -74 q 157 -167 157 -131 q 176 -219 157 -201 q 219 -236 194 -236 q 263 -219 244 -236 q 282 -167 282 -201 q 282 -103 282 -131 q 282 -42 282 -75 q 282 46 282 -8 q 282 231 282 131 q 282 437 282 331 q 282 646 282 543 q 282 838 282 749 q 282 906 282 878 q 282 960 282 935 q 282 1014 282 985 z "},"":{"ha":438,"x_min":157,"x_max":282,"o":"m 282 319 q 263 373 282 356 q 219 390 244 390 q 176 373 194 390 q 157 319 157 356 q 157 173 157 256 q 157 2 157 90 q 157 -167 157 -86 q 176 -219 157 -201 q 219 -236 194 -236 q 263 -219 244 -236 q 282 -167 282 -201 q 282 4 282 -83 q 282 174 282 92 q 282 319 282 256 m 282 1014 q 263 1067 282 1050 q 219 1085 244 1085 q 176 1067 194 1085 q 157 1014 157 1050 q 157 854 157 943 q 157 679 157 765 q 157 528 157 593 q 176 476 157 493 q 219 458 194 458 q 263 476 244 458 q 282 528 282 493 q 282 678 282 593 q 282 853 282 764 q 282 1014 282 942 z "},"\\":{"ha":681,"x_min":86,"x_max":615,"o":"m 485 -186 q 518 -231 494 -219 q 566 -234 542 -242 q 603 -203 590 -226 q 604 -147 615 -181 q 580 -75 592 -110 q 554 4 568 -40 q 518 113 540 49 q 462 284 492 192 q 401 472 432 376 q 340 657 369 568 q 288 818 311 746 q 257 911 269 875 q 235 975 244 947 q 215 1033 225 1003 q 182 1078 206 1067 q 135 1081 158 1089 q 99 1050 111 1072 q 96 994 86 1028 q 111 949 104 969 q 126 904 118 928 q 144 851 133 881 q 169 776 156 821 q 223 615 193 706 q 283 429 253 525 q 344 242 314 333 q 397 78 374 151 q 426 -10 414 28 q 449 -76 439 -47 q 468 -132 460 -106 q 485 -186 476 -158 z "},"":{"ha":789,"x_min":63,"x_max":728,"o":"m 708 856 q 721 910 728 885 q 693 948 714 935 q 647 956 672 961 q 603 922 622 951 q 563 857 583 890 q 521 790 542 824 q 478 724 500 757 q 386 576 431 647 q 300 438 342 504 q 221 311 258 372 q 185 255 203 283 q 150 199 168 226 q 115 144 132 171 q 81 89 97 117 q 69 33 63 58 q 97 -5 75 8 q 143 -12 118 -18 q 186 22 168 -7 q 233 97 210 60 q 281 172 257 135 q 326 244 304 208 q 418 392 374 321 q 504 531 463 464 q 583 657 546 597 q 624 722 604 689 q 666 789 644 756 q 708 856 688 822 z "},"":{"ha":767,"x_min":136,"x_max":628,"o":"m 432 386 q 469 371 447 368 q 510 391 492 374 q 531 433 528 408 q 513 485 535 458 q 449 524 488 514 q 373 523 411 533 q 307 483 335 513 q 275 403 279 453 q 294 312 271 349 q 356 256 317 275 q 440 236 394 236 q 526 256 485 236 q 594 319 567 276 q 625 426 622 361 q 596 547 628 492 q 508 635 564 601 q 385 669 453 669 q 259 635 315 669 q 169 543 203 600 q 136 421 136 486 q 152 329 136 372 q 198 253 168 286 q 269 201 228 221 q 324 197 301 188 q 356 228 346 206 q 361 274 367 250 q 331 310 356 297 q 298 332 311 321 q 276 356 285 343 q 265 385 268 369 q 261 421 261 401 q 276 483 261 456 q 319 528 292 511 q 385 544 347 544 q 446 528 419 544 q 487 488 472 513 q 500 432 501 463 q 488 393 499 408 q 463 369 478 378 q 433 360 447 361 q 408 365 418 358 q 400 385 399 371 q 401 399 400 393 q 406 406 403 406 q 416 403 410 407 q 432 386 422 399 z "},"-":{"ha":472,"x_min":33,"x_max":439,"o":"m 368 365 q 422 384 404 365 q 439 428 439 403 q 422 472 439 453 q 368 490 404 490 q 272 490 319 490 q 183 490 225 490 q 104 490 140 490 q 51 472 69 490 q 33 428 33 453 q 51 384 33 403 q 104 365 69 365 q 183 365 140 365 q 274 365 226 365 q 368 365 321 365 z "},"":{"ha":472,"x_min":33,"x_max":439,"o":"m 368 365 q 422 384 404 365 q 439 428 439 403 q 422 472 439 453 q 368 490 404 490 q 272 490 319 490 q 183 490 225 490 q 104 490 140 490 q 51 472 69 490 q 33 428 33 453 q 51 384 33 403 q 104 365 69 365 q 183 365 140 365 q 274 365 226 365 q 368 365 321 365 z "},"":{"ha":771,"x_min":75,"x_max":696,"o":"m 625 365 q 678 384 661 365 q 696 428 696 403 q 678 472 696 453 q 625 490 661 490 q 553 490 586 490 q 483 490 521 490 q 388 490 444 490 q 308 490 349 490 q 227 490 268 490 q 146 490 186 490 q 93 472 111 490 q 75 428 75 453 q 93 384 75 403 q 146 365 111 365 q 220 365 188 365 q 291 365 253 365 q 388 365 329 365 q 505 365 444 365 q 625 365 565 365 z "},"":{"ha":1118,"x_min":75,"x_max":1043,"o":"m 972 365 q 1026 384 1008 365 q 1043 428 1043 403 q 1026 472 1043 453 q 972 490 1008 490 q 899 490 929 490 q 836 490 869 490 q 747 490 803 490 q 581 490 676 490 q 379 490 485 490 q 302 490 342 490 q 224 490 263 490 q 146 490 185 490 q 93 472 111 490 q 75 428 75 453 q 93 384 75 403 q 146 365 111 365 q 215 365 183 365 q 284 365 246 365 q 379 365 322 365 q 546 365 450 365 q 747 365 642 365 q 820 365 785 365 q 893 365 856 365 q 972 365 931 365 z "},"_":{"ha":743,"x_min":-74,"x_max":817,"o":"m 746 -171 q 799 -152 782 -171 q 817 -108 817 -133 q 799 -65 817 -83 q 746 -46 782 -46 q 410 -46 594 -46 q -3 -46 225 -46 q -56 -65 -37 -46 q -74 -108 -74 -83 q -56 -152 -74 -133 q -3 -171 -37 -171 q 335 -171 150 -171 q 746 -171 519 -171 z "},"$":{"ha":694,"x_min":78,"x_max":647,"o":"m 446 1008 q 431 1063 449 1044 q 389 1084 414 1082 q 344 1070 364 1086 q 321 1019 324 1054 q 335 890 315 940 q 390 809 356 839 q 464 764 425 779 q 536 742 503 749 q 593 749 572 733 q 618 788 614 764 q 608 835 622 813 q 558 865 593 858 q 488 880 517 874 q 438 890 460 886 q 397 897 417 894 q 357 899 378 899 q 263 885 311 899 q 172 842 214 871 q 103 769 129 813 q 78 664 78 725 q 113 553 78 597 q 206 476 147 508 q 335 415 264 444 q 395 391 363 404 q 457 361 428 378 q 504 324 486 344 q 522 275 522 303 q 503 222 522 243 q 456 187 485 200 q 394 167 426 174 q 332 161 361 161 q 299 163 313 161 q 275 167 286 164 q 251 174 264 169 q 222 183 239 178 q 179 193 206 188 q 132 190 151 199 q 103 165 113 182 q 97 127 94 147 q 115 91 100 107 q 157 69 129 75 q 237 42 213 58 q 267 -1 261 26 q 269 -74 274 -28 q 284 -128 267 -108 q 326 -149 301 -147 q 372 -135 351 -151 q 394 -85 392 -119 q 386 24 399 -21 q 350 99 374 68 q 297 148 326 129 q 236 177 267 167 q 179 193 206 188 q 132 190 151 199 q 103 165 113 182 q 97 127 94 147 q 115 91 100 107 q 157 69 129 75 q 226 55 199 61 q 274 44 254 49 q 314 38 294 40 q 356 36 333 36 q 453 51 403 36 q 548 94 504 65 q 619 169 592 124 q 647 275 647 214 q 611 392 647 346 q 515 470 575 438 q 382 532 454 503 q 305 564 347 546 q 233 607 263 582 q 203 664 203 632 q 232 729 203 706 q 303 763 261 753 q 383 774 346 774 q 422 772 407 774 q 451 765 438 769 q 483 755 464 761 q 536 742 503 749 q 593 749 572 733 q 618 788 614 764 q 608 835 622 813 q 558 865 593 858 q 493 885 517 874 q 458 911 469 896 q 445 950 447 926 q 446 1008 443 974 z "},"":{"ha":660,"x_min":65,"x_max":600,"o":"m 453 885 q 438 938 454 919 q 397 958 421 957 q 353 944 374 960 q 328 893 333 928 q 326 801 319 843 q 349 725 332 758 q 390 666 365 692 q 445 623 415 640 q 506 597 475 606 q 563 601 540 588 q 592 639 585 615 q 586 685 599 663 q 539 718 574 708 q 478 733 507 726 q 421 742 449 739 q 367 747 393 746 q 315 744 340 747 q 267 733 290 740 q 200 703 235 724 q 135 649 165 683 q 85 563 104 615 q 65 436 65 511 q 96 288 65 349 q 173 190 126 226 q 264 139 219 153 q 325 128 293 131 q 392 127 357 125 q 464 136 426 129 q 540 154 501 143 q 588 187 575 164 q 593 233 600 210 q 564 271 586 257 q 507 275 542 285 q 444 249 476 267 q 381 206 411 232 q 327 148 351 181 q 289 76 303 115 q 274 -10 275 36 q 291 -63 274 -44 q 333 -83 308 -82 q 376 -67 357 -85 q 399 -15 396 -50 q 407 42 401 18 q 422 84 413 67 q 447 114 432 101 q 485 136 463 126 q 540 154 508 146 q 588 187 575 164 q 593 233 600 210 q 564 271 586 257 q 507 275 542 285 q 451 261 476 267 q 404 253 425 256 q 366 249 383 250 q 334 251 349 249 q 304 257 319 253 q 251 287 278 265 q 208 346 225 308 q 190 436 190 383 q 210 537 190 501 q 258 590 229 572 q 314 615 286 607 q 340 621 326 619 q 370 622 354 622 q 406 619 386 622 q 450 611 425 617 q 506 597 475 606 q 563 601 540 588 q 592 639 585 615 q 586 685 599 663 q 539 718 574 708 q 480 741 500 729 q 454 771 460 753 q 450 816 449 789 q 453 885 451 843 z "},"":{"ha":751,"x_min":26,"x_max":704,"o":"m 586 794 q 642 791 618 781 q 676 824 665 801 q 677 870 686 846 q 636 908 668 894 q 560 935 597 925 q 489 951 524 946 q 422 956 454 956 q 282 924 343 956 q 186 832 221 892 q 151 690 151 772 q 167 562 151 628 q 201 433 182 496 q 236 315 221 369 q 251 224 251 261 q 233 174 251 196 q 180 138 214 151 q 99 125 146 125 q 54 113 71 125 q 32 81 38 100 q 32 44 26 63 q 54 13 38 25 q 99 0 71 0 q 200 0 144 0 q 314 0 256 0 q 425 0 372 0 q 528 0 472 0 q 633 0 583 0 q 687 19 669 0 q 704 63 704 38 q 687 106 704 88 q 633 125 669 125 q 581 125 611 125 q 511 125 550 125 q 425 125 472 125 q 330 125 389 125 q 208 125 271 125 q 99 125 146 125 q 54 113 71 125 q 32 81 38 100 q 32 44 26 63 q 54 13 38 25 q 99 0 71 0 q 180 15 133 0 q 272 58 226 29 q 347 128 317 86 q 376 224 376 169 q 361 328 376 269 q 326 451 346 388 q 292 577 307 515 q 276 690 276 639 q 315 796 276 761 q 422 831 354 831 q 501 822 460 831 q 586 794 543 814 m 125 513 q 73 494 90 513 q 56 450 56 475 q 73 406 56 425 q 125 388 90 388 q 206 388 171 388 q 277 388 242 388 q 356 388 313 388 q 419 388 386 388 q 492 388 453 388 q 578 388 532 388 q 631 406 614 388 q 649 450 649 425 q 631 494 649 475 q 578 513 614 513 q 500 513 533 513 q 434 513 467 513 q 356 513 401 513 q 290 513 326 513 q 213 513 254 513 q 125 513 172 513 z "},"":{"ha":832,"x_min":51,"x_max":782,"o":"m 679 157 q 733 176 715 157 q 750 219 750 194 q 733 263 750 244 q 679 282 715 282 q 526 282 608 282 q 351 282 444 282 q 153 282 258 282 q 100 263 118 282 q 82 219 82 244 q 100 176 82 194 q 153 157 118 157 q 306 157 224 157 q 481 157 388 157 q 679 157 574 157 m 763 854 q 776 909 782 883 q 749 948 769 935 q 702 957 728 961 q 657 924 676 953 q 594 828 629 882 q 526 722 560 774 q 469 633 493 671 q 423 561 442 590 q 381 518 404 532 q 313 504 357 504 q 265 504 288 504 q 215 504 242 504 q 153 504 189 504 q 100 485 118 504 q 82 442 82 467 q 100 398 82 417 q 153 379 118 379 q 200 379 178 379 q 249 379 222 379 q 313 379 275 379 q 399 389 364 379 q 462 421 435 399 q 515 479 489 443 q 575 567 542 515 q 632 655 599 604 q 700 759 665 706 q 763 854 735 813 m 176 924 q 131 957 157 953 q 85 948 106 961 q 58 909 64 935 q 71 854 51 883 q 121 778 94 818 q 174 699 147 739 q 250 584 214 639 q 313 486 286 529 q 344 426 336 450 q 353 376 353 401 q 354 310 354 350 q 354 196 354 258 q 354 56 354 133 q 373 3 354 21 q 417 -15 392 -15 q 460 3 442 -15 q 479 56 479 21 q 479 171 479 108 q 479 310 479 233 q 476 399 479 363 q 461 470 474 435 q 418 553 449 506 q 356 652 392 596 q 279 768 319 708 q 226 847 253 807 q 176 924 200 886 m 501 504 q 449 485 467 504 q 432 442 432 467 q 449 398 432 417 q 501 379 467 379 q 555 379 529 379 q 611 379 581 379 q 679 379 642 379 q 733 398 715 379 q 750 442 750 417 q 733 485 750 467 q 679 504 715 504 q 628 504 654 504 q 572 504 603 504 q 501 504 542 504 z "},"":{"ha":842,"x_min":28,"x_max":806,"o":"m 751 69 q 795 104 785 81 q 797 151 806 128 q 766 187 789 175 q 710 186 743 199 q 628 165 668 172 q 553 157 589 157 q 402 194 467 157 q 303 303 338 232 q 268 472 268 374 q 302 640 268 569 q 399 749 336 711 q 547 788 463 788 q 626 780 585 788 q 710 757 667 772 q 766 758 743 746 q 797 794 789 771 q 794 842 804 818 q 751 876 785 865 q 681 897 715 889 q 613 908 646 904 q 547 913 579 913 q 339 858 431 913 q 195 706 247 804 q 143 472 143 607 q 196 238 143 336 q 342 85 249 139 q 553 32 435 32 q 617 36 585 32 q 683 49 649 40 q 751 69 717 57 m 97 646 q 45 627 63 646 q 28 583 28 608 q 45 540 28 558 q 97 521 63 521 q 150 521 121 521 q 213 521 179 521 q 279 521 246 521 q 319 521 304 521 q 346 521 333 521 q 378 521 358 521 q 432 521 397 521 q 491 521 460 521 q 558 521 522 521 q 633 521 593 521 q 687 540 669 521 q 704 583 704 558 q 687 627 704 608 q 633 646 669 646 q 576 646 607 646 q 509 646 544 646 q 432 646 474 646 q 395 646 408 646 q 369 646 382 646 q 337 646 357 646 q 279 646 317 646 q 228 646 257 646 q 165 646 199 646 q 97 646 132 646 m 97 426 q 45 408 63 426 q 28 364 28 389 q 45 320 28 339 q 97 301 63 301 q 182 301 132 301 q 279 301 232 301 q 319 301 304 301 q 346 301 333 301 q 378 301 358 301 q 432 301 397 301 q 485 301 457 301 q 546 301 514 301 q 614 301 578 301 q 667 320 650 301 q 685 364 685 339 q 667 408 685 389 q 614 426 650 426 q 562 426 590 426 q 501 426 533 426 q 432 426 469 426 q 395 426 408 426 q 370 426 382 426 q 338 426 358 426 q 279 426 317 426 q 228 426 258 426 q 165 426 199 426 q 97 426 132 426 z "},"":{"ha":758,"x_min":79,"x_max":694,"o":"m 397 979 q 385 1033 401 1014 q 343 1056 368 1053 q 297 1043 318 1058 q 272 993 276 1028 q 267 949 269 971 q 263 905 265 926 q 258 861 260 883 q 253 817 256 839 q 265 763 249 782 q 307 740 282 743 q 353 753 332 738 q 378 803 374 768 q 383 847 381 825 q 388 891 385 869 q 392 935 390 913 q 397 979 394 957 m 606 979 q 593 1033 610 1014 q 551 1056 576 1053 q 506 1043 526 1058 q 481 993 485 1028 q 477 963 479 979 q 473 930 475 947 q 469 893 471 913 q 464 851 467 874 q 457 788 461 821 q 448 714 453 754 q 436 621 443 674 q 426 530 432 582 q 413 427 419 478 q 403 342 407 376 q 395 273 399 304 q 388 215 392 242 q 382 164 385 188 q 376 119 379 140 q 372 78 374 99 q 367 36 369 57 q 362 -6 364 15 q 357 -47 360 -26 q 369 -102 353 -82 q 410 -126 386 -122 q 456 -114 435 -129 q 482 -64 478 -99 q 487 -22 485 -43 q 492 20 489 -1 q 497 63 494 42 q 501 106 499 85 q 509 167 506 135 q 517 240 513 200 q 528 328 522 279 q 538 410 532 361 q 549 513 543 460 q 561 607 556 565 q 573 700 568 660 q 582 774 578 740 q 589 838 586 807 q 592 868 590 853 q 597 901 594 883 q 601 938 599 918 q 606 979 603 957 m 644 86 q 685 124 676 100 q 684 171 694 149 q 650 203 674 193 q 594 200 626 214 q 444 167 515 165 q 319 206 374 169 q 235 309 265 242 q 204 472 204 376 q 235 635 204 568 q 319 739 265 703 q 444 778 374 775 q 594 744 515 781 q 650 740 626 731 q 683 773 674 750 q 685 820 693 796 q 644 858 676 844 q 435 902 536 907 q 253 845 333 897 q 126 698 172 793 q 79 472 79 603 q 126 247 79 342 q 253 100 172 153 q 435 42 333 47 q 644 86 536 38 m 303 179 q 290 233 307 214 q 249 256 274 253 q 203 243 224 258 q 178 193 182 228 q 172 142 175 168 q 165 85 169 115 q 157 22 161 54 q 149 -49 153 -11 q 161 -103 144 -83 q 203 -125 178 -122 q 249 -112 228 -128 q 274 -62 269 -97 q 279 -11 276 -37 q 286 46 282 15 q 294 109 290 76 q 303 179 299 142 z "},"":{"ha":613,"x_min":-110,"x_max":646,"o":"m 550 889 q 606 888 583 876 q 638 924 629 900 q 635 971 646 947 q 592 1006 625 994 q 463 1026 524 1029 q 352 995 401 1024 q 272 914 303 967 q 235 786 242 861 q 219 568 228 683 q 199 320 210 453 q 176 35 189 188 q 147 -56 172 -24 q 81 -92 122 -87 q -12 -78 40 -97 q -69 -77 -46 -65 q -101 -112 -92 -89 q -100 -158 -110 -135 q -57 -194 -90 -182 q 73 -217 11 -219 q 184 -185 135 -214 q 265 -103 233 -157 q 301 26 296 -50 q 319 244 310 129 q 338 492 328 360 q 360 775 349 624 q 390 865 364 835 q 457 901 415 896 q 550 889 499 907 m 138 692 q 85 673 103 692 q 68 629 68 654 q 85 585 68 604 q 138 567 103 567 q 212 567 174 567 q 293 567 250 567 q 384 567 336 567 q 485 567 432 567 q 538 585 521 567 q 556 629 556 604 q 538 673 556 654 q 485 692 521 692 q 410 692 449 692 q 328 692 371 692 q 238 692 285 692 q 138 692 190 692 z "},"":{"ha":740,"x_min":49,"x_max":657,"o":"m 118 299 q 66 280 83 299 q 49 236 49 261 q 66 192 49 211 q 118 174 83 174 q 201 174 157 174 q 297 174 246 174 q 407 174 349 174 q 460 192 443 174 q 478 236 478 211 q 460 280 478 261 q 407 299 443 299 q 323 299 368 299 q 227 299 278 299 q 118 299 176 299 m 557 396 q 609 415 592 396 q 626 458 626 433 q 609 502 626 483 q 557 521 592 521 q 468 521 511 521 q 380 521 425 521 q 281 521 335 521 q 207 508 239 521 q 154 468 175 494 q 122 402 133 442 q 111 310 111 363 q 111 250 111 283 q 111 181 111 217 q 111 113 111 146 q 111 56 111 81 q 124 10 111 28 q 155 -12 136 -7 q 192 -12 174 -18 q 224 10 211 -7 q 236 56 236 28 q 236 182 236 108 q 236 338 236 256 q 236 501 236 421 q 236 651 236 582 q 236 764 236 719 q 238 801 236 789 q 252 816 240 813 q 292 819 264 819 q 382 819 328 819 q 492 819 436 819 q 588 819 547 819 q 640 838 622 819 q 657 882 657 857 q 640 926 657 907 q 588 944 622 944 q 469 944 528 944 q 363 944 410 944 q 292 944 317 944 q 185 924 225 944 q 128 864 146 904 q 111 764 111 824 q 111 686 111 739 q 111 564 111 633 q 111 419 111 494 q 111 272 111 343 q 111 143 111 200 q 111 56 111 86 q 124 10 111 28 q 155 -12 136 -7 q 192 -12 174 -18 q 224 10 211 -7 q 236 56 236 28 q 236 133 236 93 q 236 209 236 172 q 236 276 236 246 q 236 324 236 306 q 238 367 236 351 q 250 390 240 383 q 281 396 260 396 q 369 396 317 396 q 474 396 422 396 q 557 396 526 396 z "},"":{"ha":751,"x_min":26,"x_max":704,"o":"m 586 794 q 642 791 618 781 q 676 824 665 801 q 677 870 686 846 q 636 908 668 894 q 560 935 597 925 q 489 951 524 946 q 422 956 454 956 q 282 924 343 956 q 186 832 221 892 q 151 690 151 772 q 167 562 151 628 q 201 433 182 496 q 236 315 221 369 q 251 224 251 261 q 233 174 251 196 q 180 138 214 151 q 99 125 146 125 q 54 113 71 125 q 32 81 38 100 q 32 44 26 63 q 54 13 38 25 q 99 0 71 0 q 200 0 144 0 q 314 0 256 0 q 425 0 372 0 q 528 0 472 0 q 633 0 583 0 q 687 19 669 0 q 704 63 704 38 q 687 106 704 88 q 633 125 669 125 q 581 125 611 125 q 511 125 550 125 q 425 125 472 125 q 330 125 389 125 q 208 125 271 125 q 99 125 146 125 q 54 113 71 125 q 32 81 38 100 q 32 44 26 63 q 54 13 38 25 q 99 0 71 0 q 180 15 133 0 q 272 58 226 29 q 347 128 317 86 q 376 224 376 169 q 361 328 376 269 q 326 451 346 388 q 292 577 307 515 q 276 690 276 639 q 315 796 276 761 q 422 831 354 831 q 501 822 460 831 q 586 794 543 814 m 125 513 q 73 494 90 513 q 56 450 56 475 q 73 406 56 425 q 125 388 90 388 q 206 388 171 388 q 277 388 242 388 q 356 388 313 388 q 419 388 386 388 q 492 388 453 388 q 578 388 532 388 q 631 406 614 388 q 649 450 649 425 q 631 494 649 475 q 578 513 614 513 q 500 513 533 513 q 434 513 467 513 q 356 513 401 513 q 290 513 326 513 q 213 513 254 513 q 125 513 172 513 z "},"":{"ha":1067,"x_min":33,"x_max":1033,"o":"m 963 560 q 1016 578 999 560 q 1033 622 1033 597 q 1016 666 1033 647 q 963 685 999 685 q 576 685 788 685 q 104 685 365 685 q 51 666 69 685 q 33 622 33 647 q 51 578 33 597 q 104 560 69 560 q 490 560 279 560 q 963 560 701 560 m 963 254 q 1016 273 999 254 q 1033 317 1033 292 q 1016 360 1033 342 q 963 379 999 379 q 576 379 788 379 q 104 379 365 379 q 51 360 69 379 q 33 317 33 342 q 51 273 33 292 q 104 254 69 254 q 490 254 279 254 q 963 254 701 254 m 167 56 q 185 3 167 21 q 229 -14 204 -14 q 273 3 254 -14 q 292 56 292 21 q 292 115 292 88 q 292 169 292 142 q 292 228 292 197 q 292 317 292 275 q 292 397 292 358 q 292 474 292 436 q 292 553 292 513 q 292 590 292 574 q 292 620 292 607 q 292 645 292 633 q 292 667 292 657 q 292 688 292 678 q 292 703 292 697 q 292 711 292 708 q 294 713 292 714 q 299 707 296 711 q 307 696 301 703 q 319 678 313 688 q 333 657 325 669 q 353 628 342 644 q 381 589 365 611 q 426 523 401 558 q 478 449 451 488 q 533 372 506 411 q 586 296 561 333 q 633 226 611 258 q 658 189 647 206 q 680 157 669 172 q 701 126 690 142 q 725 92 713 110 q 754 51 738 74 q 794 10 774 25 q 834 -9 815 -6 q 867 -5 853 -12 q 891 20 882 3 q 900 65 900 38 q 900 106 900 86 q 900 146 900 126 q 900 185 900 165 q 900 224 900 204 q 900 263 900 243 q 900 355 900 299 q 900 474 900 411 q 900 597 900 538 q 900 697 900 656 q 900 770 900 739 q 900 830 900 801 q 900 889 900 858 q 881 942 900 925 q 838 960 863 960 q 794 942 813 960 q 775 889 775 925 q 775 828 775 858 q 775 767 775 797 q 775 707 775 738 q 775 645 775 685 q 775 557 775 606 q 775 458 775 508 q 775 360 775 407 q 775 276 775 313 q 765 198 775 229 q 744 144 754 167 q 734 101 735 122 q 754 51 733 79 q 794 10 774 25 q 834 -9 815 -6 q 867 -5 853 -12 q 891 20 882 3 q 900 65 900 38 q 883 119 900 92 q 840 178 867 147 q 784 243 814 208 q 726 318 754 278 q 661 413 697 361 q 587 517 625 464 q 514 617 549 569 q 454 701 479 665 q 421 749 438 725 q 387 797 404 772 q 351 848 369 822 q 311 901 332 874 q 271 943 292 929 q 231 959 250 957 q 198 951 213 961 q 175 922 183 942 q 167 872 167 901 q 167 802 167 835 q 167 738 167 769 q 167 673 167 707 q 167 600 167 639 q 167 526 167 567 q 167 444 167 486 q 167 363 167 403 q 167 288 167 322 q 167 228 167 253 q 167 174 167 203 q 167 116 167 146 q 167 56 167 86 z "},"":{"ha":861,"x_min":14,"x_max":863,"o":"m 319 365 q 267 347 285 365 q 250 303 250 328 q 267 259 250 278 q 319 240 285 240 q 365 240 339 240 q 433 240 390 240 q 584 283 517 240 q 690 403 651 325 q 729 592 729 482 q 690 779 729 700 q 580 901 650 858 q 417 944 510 944 q 388 944 400 944 q 362 944 376 944 q 321 944 347 944 q 240 934 274 944 q 185 901 206 924 q 156 845 165 879 q 146 764 146 811 q 146 651 146 711 q 146 524 146 590 q 146 388 146 457 q 146 247 146 318 q 146 161 146 208 q 146 56 146 114 q 165 3 146 21 q 208 -15 183 -15 q 252 3 233 -15 q 271 56 271 21 q 271 142 271 96 q 271 247 271 189 q 271 353 271 296 q 271 475 271 410 q 271 613 271 540 q 271 764 271 685 q 273 801 271 790 q 286 816 275 813 q 321 819 297 819 q 351 819 339 819 q 377 819 363 819 q 417 819 392 819 q 519 792 478 819 q 583 714 561 765 q 604 592 604 663 q 583 472 604 522 q 524 393 563 421 q 433 365 486 365 q 376 365 404 365 q 319 365 347 365 m 83 654 q 31 635 49 654 q 14 592 14 617 q 31 548 14 567 q 83 529 49 529 q 122 529 101 529 q 168 529 143 529 q 222 529 193 529 q 414 529 306 529 q 656 529 522 529 q 717 529 683 529 q 792 529 751 529 q 845 548 828 529 q 863 592 863 567 q 845 635 863 617 q 792 654 828 654 q 731 654 765 654 q 656 654 697 654 q 527 654 596 654 q 382 654 458 654 q 222 654 306 654 q 158 654 192 654 q 83 654 124 654 z "},"":{"ha":949,"x_min":-7,"x_max":957,"o":"m 193 901 q 165 949 186 936 q 119 958 143 963 q 79 932 94 953 q 71 876 64 911 q 80 831 75 856 q 92 773 85 807 q 110 689 100 739 q 135 563 121 633 q 165 416 150 493 q 197 259 181 339 q 228 104 213 179 q 265 15 240 43 q 317 -12 289 -14 q 368 20 344 -10 q 401 107 392 50 q 438 308 419 204 q 474 525 456 411 q 514 764 493 639 q 503 768 515 767 q 473 769 490 769 q 443 768 456 769 q 432 763 431 767 q 470 528 451 640 q 508 311 489 417 q 544 101 526 206 q 578 22 554 49 q 631 -7 601 -6 q 685 17 660 -8 q 721 94 710 43 q 753 257 738 175 q 785 417 769 339 q 814 565 800 496 q 839 688 828 633 q 857 773 850 739 q 869 831 864 807 q 878 876 874 856 q 869 932 885 911 q 830 958 854 953 q 784 949 806 963 q 756 901 763 936 q 741 829 750 869 q 717 713 732 789 q 665 456 694 607 q 599 122 636 304 q 609 119 599 119 q 633 118 619 118 q 656 119 646 118 q 667 124 667 121 q 635 304 651 210 q 605 493 619 399 q 577 672 590 588 q 553 824 564 757 q 522 910 544 881 q 474 939 500 939 q 425 910 447 939 q 393 825 403 882 q 368 672 382 758 q 339 490 354 585 q 309 303 324 396 q 279 129 294 210 q 290 125 279 126 q 315 124 300 124 q 340 125 329 124 q 350 129 350 126 q 304 358 326 250 q 264 556 282 465 q 232 714 246 646 q 215 799 222 765 q 202 856 207 832 q 193 901 197 881 m 63 590 q 10 572 28 590 q -7 528 -7 553 q 10 484 -7 503 q 63 465 28 465 q 138 465 97 465 q 229 465 178 465 q 449 465 329 465 q 717 465 568 465 q 794 465 753 465 q 886 465 835 465 q 940 484 922 465 q 957 528 957 503 q 940 572 957 553 q 886 590 922 590 q 810 590 851 590 q 717 590 769 590 q 497 590 617 590 q 229 590 378 590 q 154 590 194 590 q 63 590 114 590 z "},"":{"ha":718,"x_min":43,"x_max":719,"o":"m 363 868 q 310 849 328 868 q 293 806 293 831 q 310 762 293 781 q 363 743 328 743 q 455 743 407 743 q 552 743 503 743 q 649 743 601 743 q 702 762 685 743 q 719 806 719 781 q 702 849 719 831 q 649 868 685 868 q 552 868 601 868 q 455 868 503 868 q 363 868 407 868 m 600 896 q 581 949 600 932 q 538 967 563 967 q 494 949 513 967 q 475 896 475 932 q 475 767 475 836 q 475 619 475 697 q 475 450 475 540 q 457 388 475 414 q 408 349 439 363 q 339 335 378 335 q 269 349 300 335 q 220 391 238 364 q 203 454 203 418 q 214 505 203 482 q 244 544 225 528 q 288 569 263 560 q 340 578 313 578 q 394 569 369 578 q 437 546 418 561 q 465 508 456 531 q 475 458 475 486 q 475 408 475 435 q 475 349 475 381 q 475 279 475 317 q 494 227 475 244 q 538 210 513 210 q 581 227 563 210 q 600 279 600 244 q 600 342 600 315 q 600 397 600 369 q 600 458 600 424 q 581 556 600 511 q 526 634 561 601 q 444 685 492 667 q 340 703 397 703 q 239 684 286 703 q 155 632 192 665 q 98 553 118 599 q 78 454 78 508 q 112 329 78 385 q 205 242 146 274 q 339 210 264 210 q 473 241 414 210 q 566 326 532 272 q 600 450 600 381 q 600 587 600 511 q 600 743 600 663 q 600 896 600 824 m 113 133 q 60 115 78 133 q 43 71 43 96 q 60 27 43 46 q 113 8 78 8 q 185 8 144 8 q 268 8 225 8 q 353 8 307 8 q 456 8 399 8 q 517 8 483 8 q 593 8 551 8 q 647 27 629 8 q 664 71 664 46 q 647 115 664 96 q 593 133 629 133 q 531 133 565 133 q 456 133 497 133 q 371 133 417 133 q 268 133 325 133 q 199 133 239 133 q 113 133 160 133 z "},"":{"ha":783,"x_min":26,"x_max":746,"o":"m 301 889 q 283 942 301 925 q 239 960 264 960 q 195 942 214 960 q 176 889 176 925 q 176 831 176 856 q 176 782 176 806 q 176 728 176 758 q 176 576 176 651 q 176 414 176 501 q 176 214 176 326 q 176 150 176 188 q 176 56 176 113 q 195 3 176 21 q 239 -15 214 -15 q 283 3 264 -15 q 301 56 301 21 q 301 116 301 90 q 301 165 301 142 q 301 214 301 188 q 301 365 301 290 q 301 528 301 440 q 301 728 301 615 q 301 774 301 749 q 301 830 301 800 q 301 889 301 860 m 675 426 q 728 445 711 426 q 746 489 746 464 q 728 533 746 514 q 675 551 711 551 q 617 551 649 551 q 546 551 586 551 q 402 551 481 551 q 225 551 324 551 q 188 551 208 551 q 146 551 168 551 q 97 551 124 551 q 44 533 63 551 q 26 489 26 514 q 44 445 26 464 q 97 426 63 426 q 155 426 124 426 q 225 426 186 426 q 369 426 290 426 q 546 426 449 426 q 604 426 572 426 q 675 426 636 426 m 708 851 q 724 906 729 881 q 700 945 719 931 q 655 957 681 960 q 608 926 629 954 q 510 793 560 860 q 411 660 461 726 q 353 568 372 608 q 333 492 333 528 q 351 415 332 456 q 406 319 369 374 q 510 169 456 244 q 615 19 564 94 q 661 -13 636 -10 q 706 -2 686 -17 q 732 38 726 13 q 718 92 738 63 q 613 240 667 167 q 508 389 558 314 q 472 448 485 425 q 460 489 460 471 q 472 528 460 507 q 511 585 485 550 q 610 718 561 651 q 708 851 660 785 z "},"":{"ha":861,"x_min":14,"x_max":863,"o":"m 319 365 q 267 347 285 365 q 250 303 250 328 q 267 259 250 278 q 319 240 285 240 q 365 240 339 240 q 433 240 390 240 q 584 283 517 240 q 690 403 651 325 q 729 592 729 482 q 690 779 729 700 q 580 901 650 858 q 417 944 510 944 q 388 944 400 944 q 362 944 376 944 q 321 944 347 944 q 240 934 274 944 q 185 901 206 924 q 156 845 165 879 q 146 764 146 811 q 146 651 146 711 q 146 524 146 590 q 146 388 146 457 q 146 247 146 318 q 146 161 146 208 q 146 56 146 114 q 165 3 146 21 q 208 -15 183 -15 q 252 3 233 -15 q 271 56 271 21 q 271 142 271 96 q 271 247 271 189 q 271 353 271 296 q 271 475 271 410 q 271 613 271 540 q 271 764 271 685 q 273 801 271 790 q 286 816 275 813 q 321 819 297 819 q 351 819 339 819 q 377 819 363 819 q 417 819 392 819 q 519 792 478 819 q 583 714 561 765 q 604 592 604 663 q 583 472 604 522 q 524 393 563 421 q 433 365 486 365 q 376 365 404 365 q 319 365 347 365 m 83 654 q 31 635 49 654 q 14 592 14 617 q 31 548 14 567 q 83 529 49 529 q 122 529 101 529 q 168 529 143 529 q 222 529 193 529 q 414 529 306 529 q 656 529 522 529 q 717 529 683 529 q 792 529 751 529 q 845 548 828 529 q 863 592 863 567 q 845 635 863 617 q 792 654 828 654 q 731 654 765 654 q 656 654 697 654 q 527 654 596 654 q 382 654 458 654 q 222 654 306 654 q 158 654 192 654 q 83 654 124 654 z "},"":{"ha":740,"x_min":63,"x_max":671,"o":"m 558 731 q 614 725 590 715 q 648 757 638 735 q 651 804 658 779 q 611 844 643 829 q 509 881 558 869 q 415 893 460 893 q 230 837 310 893 q 106 683 150 781 q 63 465 63 586 q 105 247 63 344 q 224 94 147 150 q 406 38 301 38 q 515 56 463 38 q 607 104 567 74 q 647 151 633 125 q 665 216 660 176 q 671 315 671 256 q 658 429 671 389 q 622 486 644 469 q 569 503 599 503 q 521 503 542 503 q 480 503 500 503 q 432 503 460 503 q 380 484 397 503 q 363 440 363 465 q 380 397 363 415 q 432 378 397 378 q 488 378 472 378 q 526 378 504 378 q 544 359 542 378 q 546 315 546 340 q 545 271 546 294 q 542 229 544 247 q 529 204 539 211 q 473 174 506 185 q 406 163 440 163 q 311 186 351 163 q 243 252 271 210 q 201 349 215 294 q 188 465 188 403 q 203 582 188 528 q 247 678 218 636 q 319 744 276 721 q 415 768 361 768 q 460 764 438 768 q 508 751 483 760 q 558 731 533 743 m 360 847 q 374 794 357 813 q 417 774 392 775 q 462 788 442 772 q 485 839 482 804 q 492 924 488 883 q 499 1010 496 965 q 484 1063 501 1044 q 442 1083 467 1082 q 397 1069 417 1085 q 374 1018 376 1053 q 367 933 371 974 q 360 847 363 892 m 300 -78 q 315 -132 297 -112 q 356 -153 332 -151 q 401 -140 381 -156 q 425 -89 422 -124 q 433 -2 429 -42 q 440 85 436 38 q 426 139 443 119 q 384 160 408 158 q 339 147 360 163 q 315 96 318 131 q 308 9 311 49 q 300 -78 304 -31 z "},"":{"ha":707,"x_min":63,"x_max":663,"o":"m 557 726 q 611 715 586 708 q 649 742 636 721 q 656 789 661 764 q 621 832 651 814 q 519 879 571 864 q 419 894 468 894 q 242 843 324 894 q 112 696 161 792 q 63 465 63 600 q 110 236 63 332 q 238 89 158 140 q 411 38 317 38 q 513 53 460 38 q 622 103 567 69 q 657 146 651 121 q 649 192 663 171 q 611 221 636 214 q 556 208 586 228 q 483 174 519 186 q 411 163 446 163 q 297 200 347 163 q 217 306 246 238 q 188 465 188 374 q 205 591 188 535 q 253 687 222 647 q 327 748 285 726 q 419 769 369 769 q 465 765 442 769 q 511 750 488 760 q 557 726 535 740 m 360 847 q 374 794 357 813 q 417 774 392 775 q 462 788 442 772 q 485 839 482 804 q 492 924 488 883 q 499 1010 496 965 q 484 1063 501 1044 q 442 1083 467 1082 q 397 1069 417 1085 q 374 1018 376 1053 q 367 933 371 974 q 360 847 363 892 m 300 -78 q 315 -132 297 -112 q 356 -153 332 -151 q 401 -140 381 -156 q 425 -89 422 -124 q 433 -2 429 -44 q 440 85 436 40 q 426 139 443 119 q 384 160 408 158 q 339 147 360 163 q 315 96 318 131 q 308 9 311 51 q 300 -78 304 -33 z "},"":{"ha":739,"x_min":43,"x_max":733,"o":"m 663 538 q 716 556 699 538 q 733 600 733 575 q 716 644 733 625 q 663 663 699 663 q 585 663 619 663 q 497 663 551 663 q 418 663 461 663 q 322 663 375 663 q 274 663 297 663 q 218 663 250 663 q 132 663 186 663 q 79 644 97 663 q 61 600 61 625 q 79 556 61 575 q 132 538 97 538 q 197 538 168 538 q 255 538 225 538 q 322 538 285 538 q 401 538 358 538 q 497 538 443 538 q 576 538 533 538 q 663 538 619 538 m 546 8 q 598 -12 572 -14 q 640 9 624 -10 q 656 53 657 28 q 629 103 656 79 q 567 158 600 129 q 497 218 533 186 q 422 283 461 250 q 359 340 383 318 q 317 372 335 361 q 285 387 300 383 q 250 390 271 390 q 239 390 244 390 q 225 390 233 390 q 203 390 217 390 q 168 390 190 390 q 115 372 133 390 q 97 328 97 353 q 115 284 97 303 q 168 265 133 265 q 210 265 197 265 q 233 265 224 265 q 261 265 243 265 q 420 308 350 265 q 531 427 490 351 q 572 600 572 503 q 531 772 572 696 q 415 893 489 849 q 243 938 340 938 q 215 938 233 938 q 171 938 196 938 q 117 938 146 938 q 72 925 89 938 q 49 894 54 913 q 49 856 43 875 q 72 825 54 838 q 117 813 89 813 q 191 813 139 813 q 308 813 243 813 q 435 813 374 813 q 536 813 496 813 q 592 813 569 813 q 663 813 615 813 q 716 831 699 813 q 733 875 733 850 q 716 919 733 900 q 663 938 699 938 q 626 938 642 938 q 590 938 610 938 q 536 938 569 938 q 471 938 514 938 q 374 938 428 938 q 269 938 321 938 q 176 938 217 938 q 117 938 135 938 q 72 925 89 938 q 49 894 54 913 q 49 856 43 875 q 72 825 54 838 q 117 813 89 813 q 169 813 146 813 q 210 813 192 813 q 243 813 228 813 q 351 785 306 813 q 422 709 397 757 q 447 600 447 661 q 424 491 447 539 q 358 417 400 443 q 261 390 317 390 q 228 390 243 390 q 168 390 213 390 q 115 372 133 390 q 97 328 97 353 q 115 284 97 303 q 168 265 133 265 q 203 265 190 265 q 222 265 215 265 q 235 265 229 265 q 250 265 242 265 q 265 256 254 265 q 291 233 276 247 q 319 208 306 219 q 339 189 332 196 q 449 94 396 139 q 546 8 501 49 z "},"":{"ha":743,"x_min":29,"x_max":701,"o":"m 310 889 q 291 942 310 925 q 247 960 272 960 q 203 942 222 960 q 185 889 185 925 q 185 747 185 821 q 185 590 185 672 q 185 415 185 507 q 185 222 185 324 q 205 88 185 135 q 278 24 225 42 q 432 7 332 7 q 541 23 492 7 q 626 73 590 39 q 682 159 663 107 q 701 282 701 211 q 683 335 701 318 q 639 353 664 353 q 595 335 614 353 q 576 282 576 318 q 560 192 576 225 q 511 146 543 160 q 432 132 479 132 q 349 138 375 132 q 317 163 324 143 q 310 222 310 182 q 310 365 310 290 q 310 523 310 440 q 310 697 310 606 q 310 889 310 788 m 549 726 q 593 761 582 738 q 596 808 604 785 q 565 844 588 832 q 510 846 543 857 q 440 823 475 835 q 369 800 404 811 q 297 775 333 789 q 230 753 265 765 q 158 731 194 742 q 85 707 121 719 q 40 672 51 696 q 38 625 29 649 q 68 589 46 601 q 124 588 90 576 q 197 612 160 600 q 269 635 233 624 q 339 658 306 647 q 408 682 374 671 q 478 704 443 693 q 549 726 514 715 m 549 490 q 593 525 582 501 q 596 572 604 549 q 565 608 588 596 q 510 610 543 621 q 439 587 475 599 q 367 564 403 575 q 296 539 332 553 q 228 517 264 529 q 157 494 193 506 q 85 471 121 483 q 40 436 51 460 q 38 389 29 413 q 68 353 46 365 q 124 351 90 340 q 196 376 160 364 q 268 399 232 388 q 338 422 304 411 q 408 446 372 435 q 478 468 443 457 q 549 490 514 479 z "},"":{"ha":858,"x_min":97,"x_max":761,"o":"m 636 56 q 655 3 636 21 q 699 -15 674 -15 q 742 3 724 -15 q 761 56 761 21 q 761 124 761 94 q 761 184 761 154 q 761 254 761 214 q 761 392 761 317 q 761 560 761 467 q 717 737 761 661 q 599 854 674 813 q 429 896 524 896 q 260 854 335 896 q 141 738 185 813 q 97 561 97 663 q 97 422 97 497 q 97 251 97 346 q 97 194 97 225 q 97 130 97 164 q 97 56 97 96 q 116 3 97 21 q 160 -15 135 -15 q 203 3 185 -15 q 222 56 222 21 q 222 124 222 96 q 222 183 222 153 q 222 251 222 213 q 222 392 222 315 q 222 561 222 468 q 249 673 222 626 q 322 745 275 719 q 429 771 368 771 q 537 745 490 771 q 610 672 583 719 q 636 560 636 625 q 636 422 636 497 q 636 254 636 347 q 636 197 636 228 q 636 131 636 165 q 636 56 636 96 m 492 986 q 473 1040 492 1022 q 429 1057 454 1057 q 385 1040 404 1057 q 367 986 367 1022 q 367 903 367 942 q 367 807 367 864 q 367 683 367 746 q 367 560 367 621 q 367 442 367 500 q 367 335 367 385 q 367 290 367 311 q 367 243 367 268 q 367 183 367 218 q 385 131 367 149 q 429 114 404 114 q 473 131 454 114 q 492 183 492 149 q 492 232 492 211 q 492 276 492 253 q 492 335 492 299 q 492 442 492 385 q 492 561 492 500 q 492 685 492 622 q 492 807 492 747 q 492 890 492 846 q 492 986 492 935 z "},"":{"ha":757,"x_min":0,"x_max":703,"o":"m 76 532 q 24 513 42 532 q 7 469 7 494 q 24 426 7 444 q 76 407 42 407 q 137 407 100 407 q 217 407 174 407 q 301 407 260 407 q 376 407 343 407 q 426 407 410 407 q 535 426 485 407 q 624 481 586 446 q 682 566 661 517 q 703 675 703 615 q 683 784 703 735 q 628 869 663 833 q 546 925 593 906 q 444 944 499 944 q 408 944 428 944 q 368 944 389 944 q 321 944 347 944 q 240 934 274 944 q 185 901 206 924 q 156 845 165 879 q 146 764 146 811 q 146 610 146 694 q 146 434 146 526 q 146 247 146 342 q 146 191 146 221 q 146 128 146 161 q 146 56 146 94 q 165 3 146 21 q 208 -15 183 -15 q 252 3 233 -15 q 271 56 271 21 q 271 111 271 82 q 271 174 271 140 q 271 247 271 208 q 271 353 271 296 q 271 475 271 410 q 271 613 271 540 q 271 764 271 685 q 272 801 271 790 q 284 816 274 813 q 321 819 294 819 q 376 819 347 819 q 444 819 406 819 q 513 801 483 819 q 560 751 543 783 q 578 675 578 719 q 567 615 578 642 q 535 570 556 589 q 487 542 514 551 q 426 532 460 532 q 353 532 400 532 q 252 532 306 532 q 151 532 199 532 q 76 532 104 532 m 69 293 q 17 274 35 293 q 0 231 0 256 q 17 187 0 206 q 69 168 35 168 q 192 168 128 168 q 330 168 256 168 q 489 168 404 168 q 542 187 525 168 q 560 231 560 206 q 542 274 560 256 q 489 293 525 293 q 358 293 432 293 q 209 293 285 293 q 69 293 133 293 z "},"":{"ha":1557,"x_min":111,"x_max":1503,"o":"m 1432 157 q 1485 176 1468 157 q 1503 219 1503 194 q 1485 263 1503 244 q 1432 282 1468 282 q 1313 282 1381 282 q 1169 282 1244 282 q 1015 282 1093 282 q 963 263 981 282 q 946 219 946 244 q 963 176 946 194 q 1015 157 981 157 q 1135 157 1068 157 q 1278 157 1203 157 q 1432 157 1354 157 m 1281 507 q 1243 466 1250 490 q 1247 419 1236 442 q 1283 388 1258 397 q 1339 396 1308 379 q 1413 457 1382 418 q 1463 548 1444 496 q 1481 661 1481 600 q 1461 778 1481 725 q 1407 872 1442 832 q 1325 933 1372 911 q 1224 954 1278 954 q 1122 933 1169 954 q 1040 872 1075 911 q 986 778 1006 832 q 967 661 967 725 q 1006 500 967 568 q 1106 397 1044 432 q 1161 388 1136 381 q 1198 417 1186 396 q 1203 464 1210 439 q 1167 506 1197 489 q 1126 542 1143 519 q 1101 596 1110 565 q 1092 661 1092 626 q 1108 747 1092 708 q 1153 807 1124 785 q 1224 829 1183 829 q 1294 807 1264 829 q 1340 747 1324 785 q 1356 661 1356 708 q 1347 596 1356 626 q 1322 542 1339 565 q 1281 507 1306 519 m 111 56 q 130 3 111 21 q 174 -14 149 -14 q 217 3 199 -14 q 236 56 236 21 q 236 115 236 88 q 236 169 236 142 q 236 228 236 197 q 236 317 236 275 q 236 397 236 358 q 236 474 236 436 q 236 553 236 513 q 236 590 236 574 q 236 620 236 607 q 236 645 236 633 q 236 667 236 657 q 236 688 236 678 q 236 703 236 697 q 236 711 236 708 q 238 713 236 714 q 243 707 240 711 q 251 696 246 703 q 263 678 257 688 q 278 657 269 669 q 298 628 286 644 q 325 589 310 611 q 371 523 346 558 q 423 449 396 488 q 478 372 450 411 q 531 296 506 333 q 578 226 556 258 q 603 189 592 206 q 624 157 614 172 q 646 126 635 142 q 669 92 657 110 q 699 51 682 74 q 739 10 718 25 q 778 -9 760 -6 q 812 -5 797 -12 q 835 20 826 3 q 844 65 844 38 q 844 106 844 86 q 844 146 844 126 q 844 185 844 165 q 844 224 844 204 q 844 263 844 243 q 844 355 844 299 q 844 474 844 411 q 844 597 844 538 q 844 697 844 656 q 844 770 844 739 q 844 830 844 801 q 844 889 844 858 q 826 942 844 925 q 782 960 807 960 q 738 942 757 960 q 719 889 719 925 q 719 828 719 858 q 719 767 719 797 q 719 707 719 738 q 719 645 719 685 q 719 557 719 606 q 719 458 719 508 q 719 360 719 407 q 719 276 719 313 q 709 198 719 229 q 689 144 699 167 q 678 101 679 122 q 699 51 678 79 q 739 10 718 25 q 778 -9 760 -6 q 812 -5 797 -12 q 835 20 826 3 q 844 65 844 38 q 828 119 844 92 q 785 178 811 147 q 728 243 758 208 q 671 318 699 278 q 606 413 642 361 q 531 517 569 464 q 458 617 493 569 q 399 701 424 665 q 365 749 382 725 q 331 797 349 772 q 295 848 314 822 q 256 901 276 874 q 215 943 236 929 q 176 959 194 957 q 142 951 157 961 q 119 922 128 942 q 111 872 111 901 q 111 802 111 835 q 111 738 111 769 q 111 673 111 707 q 111 600 111 639 q 111 526 111 567 q 111 444 111 486 q 111 363 111 403 q 111 288 111 322 q 111 228 111 253 q 111 174 111 203 q 111 116 111 146 q 111 56 111 86 z "},"":{"ha":897,"x_min":69,"x_max":829,"o":"m 221 615 q 272 591 246 590 q 315 610 297 592 q 334 653 333 628 q 310 704 335 679 q 273 740 293 721 q 231 783 253 760 q 183 831 208 806 q 133 855 158 856 q 89 836 107 854 q 70 792 71 818 q 94 742 69 767 q 152 685 121 717 q 221 615 183 654 m 804 742 q 828 792 829 767 q 810 836 828 818 q 766 855 792 854 q 715 831 740 856 q 679 794 699 814 q 638 751 660 774 q 589 704 615 729 q 565 653 564 679 q 583 610 565 628 q 627 591 601 592 q 678 615 653 590 q 714 653 694 633 q 756 694 733 672 q 804 742 779 717 m 94 211 q 70 160 69 186 q 89 117 71 135 q 133 98 107 99 q 183 122 158 97 q 219 160 200 140 q 262 201 239 179 q 310 249 285 224 q 334 299 335 274 q 315 343 333 325 q 272 362 297 361 q 221 338 246 363 q 185 301 204 321 q 143 258 165 281 q 94 211 121 236 m 678 338 q 627 362 653 363 q 583 343 601 361 q 565 299 565 325 q 589 249 564 274 q 647 192 615 224 q 715 122 678 161 q 766 98 740 97 q 810 117 792 99 q 828 160 828 135 q 804 211 829 186 q 747 267 778 236 q 678 338 715 299 m 347 204 q 403 206 381 193 q 433 242 425 218 q 431 289 442 265 q 386 324 419 313 q 333 356 356 335 q 298 410 310 378 q 286 479 286 442 q 306 566 286 529 q 361 624 325 603 q 446 644 397 644 q 531 624 494 644 q 589 566 568 603 q 610 479 610 529 q 597 410 610 442 q 562 356 585 378 q 507 324 539 335 q 463 289 474 313 q 460 242 451 265 q 490 206 468 218 q 546 204 513 193 q 644 263 601 224 q 710 357 686 301 q 735 479 735 413 q 697 629 735 564 q 594 732 660 694 q 446 769 529 769 q 298 732 363 769 q 197 629 233 694 q 161 479 161 564 q 185 357 161 413 q 250 263 208 301 q 347 204 292 224 z "},"+":{"ha":750,"x_min":40,"x_max":710,"o":"m 438 700 q 419 753 438 736 q 375 771 400 771 q 331 753 350 771 q 313 700 313 736 q 313 578 313 646 q 313 438 313 511 q 313 293 313 365 q 313 158 313 221 q 331 106 313 124 q 375 88 350 88 q 419 106 400 88 q 438 158 438 124 q 438 326 438 232 q 438 519 438 421 q 438 700 438 618 m 639 365 q 692 384 675 365 q 710 428 710 403 q 692 472 710 453 q 639 490 675 490 q 508 490 578 490 q 369 490 439 490 q 233 490 299 490 q 111 490 167 490 q 58 472 76 490 q 40 428 40 453 q 58 384 40 403 q 111 365 76 365 q 272 365 182 365 q 456 365 361 365 q 639 365 551 365 z "},"":{"ha":661,"x_min":40,"x_max":621,"o":"m 550 365 q 603 384 586 365 q 621 428 621 403 q 603 472 621 453 q 550 490 586 490 q 424 490 492 490 q 278 490 356 490 q 111 490 200 490 q 58 472 76 490 q 40 428 40 453 q 58 384 40 403 q 111 365 76 365 q 205 365 156 365 q 309 365 254 365 q 424 365 364 365 q 550 365 483 365 z "},"":{"ha":718,"x_min":90,"x_max":629,"o":"m 204 672 q 153 697 179 697 q 110 678 128 696 q 91 634 92 660 q 115 583 90 608 q 231 468 169 531 q 364 335 293 406 q 515 183 435 264 q 566 159 540 158 q 610 178 592 160 q 628 222 628 196 q 604 272 629 247 q 519 357 564 313 q 424 451 474 401 q 319 557 374 501 q 204 672 265 613 m 604 583 q 628 634 629 608 q 610 678 628 660 q 566 697 592 696 q 515 672 540 697 q 448 605 483 640 q 374 531 413 569 q 294 451 336 493 q 208 365 253 410 q 115 272 164 321 q 91 222 90 247 q 110 178 92 196 q 153 159 128 160 q 204 183 179 158 q 289 269 244 224 q 383 364 333 314 q 489 469 433 414 q 604 583 544 524 z "},"":{"ha":361,"x_min":124,"x_max":249,"o":"m 124 397 q 142 344 124 363 q 186 326 161 326 q 230 344 211 326 q 249 397 249 363 q 249 426 249 418 q 249 443 249 435 q 249 472 249 451 q 230 524 249 507 q 186 542 211 542 q 142 524 161 542 q 124 472 124 507 q 124 443 124 451 q 124 426 124 435 q 124 397 124 418 z "},"":{"ha":750,"x_min":42,"x_max":710,"o":"m 311 633 q 330 581 311 599 q 374 563 349 563 q 417 581 399 563 q 436 633 436 599 q 436 663 436 654 q 436 679 436 671 q 436 708 436 688 q 417 760 436 743 q 374 778 399 778 q 330 760 349 778 q 311 708 311 743 q 311 679 311 688 q 311 663 311 671 q 311 633 311 654 m 111 490 q 59 472 76 490 q 42 428 42 453 q 59 384 42 403 q 111 365 76 365 q 224 365 164 365 q 349 365 283 365 q 488 365 415 365 q 639 365 560 365 q 692 384 675 365 q 710 428 710 403 q 692 472 710 453 q 639 490 675 490 q 526 490 586 490 q 401 490 467 490 q 263 490 335 490 q 111 490 190 490 m 311 153 q 330 100 311 118 q 374 82 349 82 q 417 100 399 82 q 436 153 436 118 q 436 182 436 174 q 436 199 436 190 q 436 228 436 207 q 417 280 436 263 q 374 297 399 297 q 330 280 349 297 q 311 228 311 263 q 311 199 311 207 q 311 182 311 190 q 311 153 311 174 z "},"":{"ha":750,"x_min":40,"x_max":710,"o":"m 438 769 q 419 823 438 806 q 375 840 400 840 q 331 823 350 840 q 313 769 313 806 q 313 637 313 708 q 313 484 313 565 q 313 311 313 403 q 331 259 313 276 q 375 242 350 242 q 419 259 400 242 q 438 311 438 276 q 438 444 438 372 q 438 597 438 515 q 438 769 438 678 m 639 463 q 692 481 675 463 q 710 525 710 500 q 692 569 710 550 q 639 588 675 588 q 526 588 586 588 q 401 588 467 588 q 263 588 335 588 q 111 588 190 588 q 58 569 76 588 q 40 525 40 550 q 58 481 40 500 q 111 463 76 463 q 224 463 164 463 q 349 463 283 463 q 488 463 415 463 q 639 463 560 463 m 639 46 q 692 65 675 46 q 710 108 710 83 q 692 152 710 133 q 639 171 675 171 q 526 171 586 171 q 401 171 467 171 q 263 171 335 171 q 111 171 190 171 q 58 152 76 171 q 40 108 40 133 q 58 65 40 83 q 111 46 76 46 q 224 46 164 46 q 349 46 283 46 q 488 46 415 46 q 639 46 560 46 z "},"=":{"ha":681,"x_min":40,"x_max":640,"o":"m 569 532 q 623 551 606 532 q 640 594 640 569 q 623 638 640 619 q 569 657 606 657 q 472 657 524 657 q 363 657 421 657 q 243 657 306 657 q 111 657 181 657 q 58 638 76 657 q 40 594 40 619 q 58 551 40 569 q 111 532 76 532 q 244 532 174 532 q 397 532 315 532 q 569 532 478 532 m 569 199 q 623 217 606 199 q 640 261 640 236 q 623 305 640 286 q 569 324 606 324 q 472 324 524 324 q 363 324 421 324 q 243 324 306 324 q 111 324 181 324 q 58 305 76 324 q 40 261 40 286 q 58 217 40 236 q 111 199 76 199 q 244 199 174 199 q 397 199 315 199 q 569 199 478 199 z "},"":{"ha":681,"x_min":64,"x_max":617,"o":"m 613 682 q 591 735 611 718 q 546 750 571 751 q 503 730 521 749 q 488 676 486 711 q 487 620 490 642 q 476 590 483 599 q 454 581 468 581 q 421 599 439 581 q 379 650 403 617 q 317 714 353 686 q 229 742 281 742 q 167 726 197 742 q 113 682 136 711 q 76 610 89 653 q 68 514 64 568 q 91 463 71 479 q 136 449 111 447 q 178 469 161 450 q 193 522 196 488 q 195 566 192 544 q 208 602 199 588 q 229 617 217 617 q 258 601 242 617 q 296 553 274 585 q 363 483 328 510 q 444 456 397 456 q 509 467 478 456 q 565 503 540 478 q 603 573 590 529 q 613 682 617 617 m 613 344 q 591 397 611 381 q 546 413 571 414 q 503 392 521 411 q 488 339 486 374 q 487 283 490 304 q 476 252 483 261 q 454 243 468 243 q 421 261 439 243 q 379 313 403 279 q 317 376 353 349 q 229 404 281 404 q 167 389 197 404 q 113 344 136 374 q 76 273 89 315 q 68 176 64 231 q 91 126 71 142 q 136 111 111 110 q 178 131 161 113 q 193 185 196 150 q 195 228 192 207 q 208 265 199 250 q 229 279 217 279 q 258 263 242 279 q 296 215 274 247 q 363 145 328 172 q 444 118 397 118 q 509 129 478 118 q 565 166 540 140 q 603 235 590 192 q 613 344 617 279 z "},"":{"ha":681,"x_min":40,"x_max":640,"o":"m 582 767 q 588 822 597 799 q 558 857 579 846 q 511 861 536 868 q 471 822 486 854 q 453 786 463 804 q 434 749 443 768 q 415 713 425 731 q 289 465 353 590 q 163 215 225 339 q 140 171 151 193 q 117 127 128 149 q 94 82 106 106 q 90 26 81 50 q 122 -8 100 3 q 169 -10 144 -18 q 208 29 193 -3 q 240 93 224 61 q 274 160 257 125 q 403 412 339 288 q 526 654 467 536 q 555 712 542 683 q 582 767 568 740 m 569 532 q 623 551 606 532 q 640 594 640 569 q 623 638 640 619 q 569 657 606 657 q 472 657 524 657 q 363 657 421 657 q 243 657 306 657 q 111 657 181 657 q 58 638 76 657 q 40 594 40 619 q 58 551 40 569 q 111 532 76 532 q 244 532 174 532 q 397 532 315 532 q 569 532 478 532 m 569 199 q 623 217 606 199 q 640 261 640 236 q 623 305 640 286 q 569 324 606 324 q 472 324 524 324 q 363 324 421 324 q 243 324 306 324 q 111 324 181 324 q 58 305 76 324 q 40 261 40 286 q 58 217 40 236 q 111 199 76 199 q 244 199 174 199 q 397 199 315 199 q 569 199 478 199 z "},"<":{"ha":621,"x_min":54,"x_max":568,"o":"m 526 606 q 563 649 557 624 q 555 696 568 675 q 517 724 542 717 q 463 714 493 732 q 397 674 431 694 q 324 628 364 653 q 235 575 285 604 q 122 510 186 546 q 68 459 82 488 q 68 401 54 431 q 128 342 82 371 q 238 274 190 303 q 325 222 286 244 q 397 180 364 199 q 463 142 431 161 q 517 131 493 124 q 555 160 542 139 q 563 206 568 181 q 526 250 557 232 q 460 290 494 269 q 391 331 426 310 q 321 374 356 353 q 254 413 286 394 q 234 424 240 421 q 232 429 228 426 q 250 440 236 432 q 340 494 292 465 q 437 553 389 524 q 526 606 485 582 z "},">":{"ha":621,"x_min":49,"x_max":563,"o":"m 90 250 q 54 206 60 232 q 62 160 49 181 q 99 131 75 139 q 154 142 124 124 q 219 182 186 161 q 292 227 253 203 q 381 281 332 251 q 494 346 431 311 q 549 397 535 368 q 549 456 563 425 q 489 514 535 486 q 378 582 426 553 q 292 634 331 611 q 219 676 253 657 q 154 714 186 696 q 99 724 124 732 q 62 696 75 717 q 54 649 49 675 q 90 606 60 624 q 156 567 122 588 q 226 524 190 546 q 296 482 261 503 q 363 443 331 461 q 383 432 378 435 q 385 426 389 429 q 367 415 381 424 q 277 363 325 392 q 181 304 229 333 q 90 250 132 275 z "},"":{"ha":621,"x_min":40,"x_max":568,"o":"m 494 104 q 548 123 531 104 q 565 167 565 142 q 548 210 565 192 q 494 229 531 229 q 364 229 431 229 q 233 229 297 229 q 111 229 169 229 q 58 210 76 229 q 40 167 40 192 q 58 123 40 142 q 111 104 76 104 q 234 104 171 104 q 363 104 297 104 q 494 104 429 104 m 526 754 q 563 798 557 772 q 555 844 568 824 q 517 873 542 865 q 463 863 493 881 q 397 822 431 843 q 324 777 364 801 q 235 724 285 753 q 122 658 186 694 q 68 608 82 636 q 68 549 54 579 q 128 490 82 519 q 238 422 190 451 q 325 370 286 393 q 397 328 364 347 q 463 290 431 310 q 517 280 493 272 q 555 308 542 288 q 563 355 568 329 q 526 399 557 381 q 460 438 494 418 q 391 480 426 458 q 321 522 356 501 q 254 561 286 543 q 234 572 240 569 q 232 578 228 575 q 250 589 236 581 q 340 643 292 614 q 437 701 389 672 q 526 754 485 731 z "},"":{"ha":621,"x_min":38,"x_max":563,"o":"m 492 104 q 545 123 528 104 q 563 167 563 142 q 545 210 563 192 q 492 229 528 229 q 379 229 433 229 q 261 229 325 229 q 108 229 197 229 q 56 210 74 229 q 38 167 38 192 q 56 123 38 142 q 108 104 74 104 q 222 104 168 104 q 340 104 276 104 q 492 104 404 104 m 90 396 q 54 352 60 378 q 62 306 49 326 q 99 277 75 285 q 154 288 124 269 q 219 328 186 307 q 292 373 253 349 q 381 427 332 397 q 494 492 431 457 q 549 542 535 514 q 549 601 563 571 q 489 660 535 632 q 378 728 426 699 q 292 780 331 757 q 219 822 253 803 q 154 860 186 842 q 99 870 124 878 q 62 842 75 863 q 54 795 49 821 q 90 751 60 769 q 156 713 122 733 q 226 670 190 692 q 296 628 261 649 q 363 589 331 607 q 383 578 378 581 q 385 572 389 575 q 367 561 381 569 q 277 508 325 538 q 181 450 229 479 q 90 396 132 421 z "},"":{"ha":533,"x_min":36,"x_max":472,"o":"m 350 18 q 397 -12 371 -10 q 443 -1 424 -15 q 467 40 463 14 q 450 93 471 65 q 409 148 432 118 q 358 214 386 178 q 308 279 333 247 q 258 346 283 311 q 201 418 232 381 q 172 457 181 446 q 170 479 164 468 q 199 518 176 490 q 281 627 244 579 q 351 719 317 675 q 401 785 376 753 q 451 851 426 818 q 468 905 472 879 q 444 945 464 931 q 399 957 425 960 q 351 926 372 954 q 318 883 335 904 q 285 839 301 861 q 251 794 268 817 q 182 704 218 751 q 99 596 146 657 q 51 524 67 554 q 38 469 36 494 q 55 413 39 443 q 101 343 71 383 q 158 269 132 304 q 210 201 185 233 q 258 139 235 169 q 300 84 278 114 q 350 18 322 54 z "},"":{"ha":533,"x_min":60,"x_max":496,"o":"m 182 926 q 135 957 161 954 q 90 945 110 960 q 65 905 69 931 q 82 851 61 879 q 124 797 101 826 q 174 731 146 767 q 224 666 199 699 q 275 599 249 633 q 331 526 301 565 q 360 488 353 499 q 362 466 368 476 q 333 426 356 456 q 251 318 288 367 q 181 225 215 269 q 131 159 156 192 q 81 93 106 126 q 64 40 60 65 q 88 -1 68 14 q 134 -12 108 -15 q 181 18 160 -10 q 214 63 197 40 q 247 106 231 85 q 281 150 264 128 q 350 242 314 194 q 433 349 386 289 q 481 420 465 390 q 494 476 496 450 q 477 531 493 501 q 431 601 461 561 q 374 676 400 642 q 323 743 347 711 q 274 806 299 775 q 233 860 256 831 q 182 926 210 890 z "},"":{"ha":719,"x_min":28,"x_max":693,"o":"m 676 929 q 684 985 693 961 q 653 1021 675 1010 q 607 1026 632 1032 q 565 988 582 1019 q 540 939 553 964 q 515 890 528 914 q 488 839 501 865 q 385 643 438 742 q 282 447 333 544 q 179 250 231 349 q 134 162 157 206 q 88 74 111 118 q 43 -14 65 31 q 37 -69 28 -44 q 67 -104 46 -93 q 114 -108 89 -115 q 154 -69 139 -100 q 199 18 176 -25 q 245 104 222 61 q 290 192 268 147 q 393 388 342 290 q 497 585 444 486 q 599 781 549 683 q 624 830 611 806 q 649 879 636 854 q 676 929 663 904 z "},"":{"ha":681,"x_min":42,"x_max":604,"o":"m 111 601 q 59 583 76 601 q 42 539 42 564 q 59 495 42 514 q 111 476 76 476 q 194 476 150 476 q 288 476 238 476 q 397 476 339 476 q 456 477 439 476 q 476 467 472 478 q 479 424 479 457 q 479 355 479 393 q 479 269 479 317 q 498 217 479 235 q 542 200 517 200 q 585 217 567 200 q 604 269 604 235 q 604 349 604 301 q 604 443 604 396 q 602 532 604 500 q 585 578 600 564 q 534 597 571 593 q 428 601 497 601 q 283 601 369 601 q 111 601 197 601 z "},"":{"ha":789,"x_min":79,"x_max":699,"o":"m 79 -153 q 98 -205 79 -187 q 142 -222 117 -222 q 185 -205 167 -222 q 204 -153 204 -187 q 204 -81 204 -112 q 204 -14 204 -49 q 204 65 204 21 q 204 165 204 101 q 204 304 204 229 q 204 451 204 379 q 204 580 204 524 q 204 660 204 636 q 192 704 204 688 q 160 726 179 721 q 123 726 142 732 q 92 704 104 721 q 79 660 79 688 q 79 578 79 626 q 79 476 79 529 q 79 372 79 422 q 79 288 79 322 q 115 124 79 192 q 213 20 150 56 q 358 -15 276 -15 q 533 30 457 -15 q 654 150 610 75 q 699 311 699 225 q 699 372 699 328 q 699 472 699 417 q 699 579 699 528 q 699 660 699 631 q 686 704 699 688 q 655 726 674 721 q 617 726 636 732 q 586 704 599 721 q 574 660 574 688 q 574 571 574 626 q 574 450 574 515 q 574 322 574 385 q 574 213 574 260 q 574 136 574 179 q 574 49 574 93 q 592 -4 574 14 q 636 -22 611 -22 q 680 -4 661 -22 q 699 49 699 14 q 699 121 699 79 q 699 213 699 163 q 699 283 699 238 q 699 384 699 329 q 699 493 699 439 q 699 592 699 547 q 699 660 699 636 q 686 704 699 688 q 655 726 674 721 q 617 726 636 732 q 586 704 599 721 q 574 660 574 688 q 574 578 574 626 q 574 477 574 529 q 574 381 574 425 q 574 311 574 336 q 546 211 574 257 q 469 138 518 165 q 358 110 421 110 q 274 130 308 110 q 222 190 239 150 q 204 288 204 229 q 204 360 204 311 q 204 467 204 410 q 204 578 204 525 q 204 660 204 631 q 192 704 204 688 q 160 726 179 721 q 123 726 142 732 q 92 704 104 721 q 79 660 79 688 q 79 556 79 626 q 79 398 79 486 q 79 222 79 310 q 79 65 79 135 q 79 1 79 35 q 79 -70 79 -32 q 79 -153 79 -108 z "},"*":{"ha":853,"x_min":47,"x_max":772,"o":"m 318 929 q 275 966 300 960 q 228 960 250 972 q 199 923 207 947 q 210 868 192 899 q 247 803 228 836 q 285 737 265 769 q 322 673 304 704 q 356 613 339 642 q 392 549 374 581 q 428 484 410 517 q 465 420 447 451 q 501 357 483 389 q 544 321 519 326 q 591 328 569 315 q 620 365 613 340 q 610 421 628 390 q 574 484 592 453 q 537 547 556 515 q 500 611 518 579 q 464 674 482 643 q 418 756 443 713 q 368 843 393 799 q 318 929 343 888 m 610 868 q 619 924 626 899 q 590 960 611 949 q 543 966 568 972 q 501 929 518 960 q 464 864 483 897 q 424 797 444 831 q 385 731 404 764 q 349 667 367 699 q 313 605 331 636 q 279 542 296 574 q 245 481 263 511 q 210 419 228 450 q 199 365 192 389 q 228 328 207 340 q 275 322 250 315 q 318 358 300 328 q 365 441 342 400 q 410 523 388 482 q 457 606 433 564 q 507 692 481 647 q 560 781 533 736 q 610 868 586 825 m 701 582 q 755 601 738 582 q 772 644 772 619 q 755 688 772 669 q 701 707 738 707 q 566 707 642 707 q 410 707 490 707 q 253 707 329 707 q 118 707 178 707 q 65 688 83 707 q 47 644 47 669 q 65 601 47 619 q 118 582 83 582 q 253 582 178 582 q 410 582 329 582 q 566 582 490 582 q 701 582 642 582 z "},"":{"ha":576,"x_min":47,"x_max":529,"o":"m 351 958 q 333 1012 351 994 q 289 1029 314 1029 q 245 1012 264 1029 q 226 958 226 994 q 226 772 226 876 q 226 558 226 667 q 226 354 226 449 q 245 302 226 319 q 289 285 264 285 q 333 302 314 285 q 351 354 351 319 q 351 544 351 438 q 351 759 351 650 q 351 958 351 868 m 458 685 q 512 703 494 685 q 529 747 529 722 q 512 791 529 772 q 458 810 494 810 q 338 810 397 810 q 222 810 278 810 q 118 810 167 810 q 65 791 83 810 q 47 747 47 772 q 65 703 47 722 q 118 685 83 685 q 231 685 174 685 q 344 685 288 685 q 458 685 401 685 z "},"":{"ha":576,"x_min":47,"x_max":529,"o":"m 351 958 q 333 1012 351 994 q 289 1029 314 1029 q 245 1012 264 1029 q 226 958 226 994 q 226 837 226 913 q 226 673 226 761 q 226 501 226 585 q 226 354 226 417 q 245 302 226 319 q 289 285 264 285 q 333 302 314 285 q 351 354 351 319 q 351 501 351 417 q 351 674 351 585 q 351 838 351 763 q 351 958 351 914 m 458 713 q 512 731 494 713 q 529 775 529 750 q 512 819 529 800 q 458 838 494 838 q 351 838 413 838 q 228 838 290 838 q 118 838 167 838 q 65 819 83 838 q 47 775 47 800 q 65 731 47 750 q 118 713 83 713 q 225 713 165 713 q 347 713 285 713 q 458 713 408 713 m 458 463 q 512 481 494 463 q 529 525 529 500 q 512 569 529 550 q 458 588 494 588 q 342 588 406 588 q 218 588 278 588 q 118 588 158 588 q 65 569 83 588 q 47 525 47 550 q 65 481 47 500 q 118 463 83 463 q 215 463 157 463 q 338 463 274 463 q 458 463 403 463 z "},"^":{"ha":778,"x_min":85,"x_max":692,"o":"m 100 449 q 94 392 85 417 q 125 358 103 368 q 172 355 147 347 q 211 393 196 363 q 258 486 233 439 q 308 586 282 533 q 363 700 335 639 q 382 742 378 732 q 392 741 386 753 q 413 696 397 729 q 467 585 442 638 q 518 486 493 533 q 565 393 543 439 q 606 355 581 363 q 652 358 631 347 q 683 394 674 369 q 676 449 692 418 q 641 519 660 483 q 601 597 622 556 q 556 690 581 639 q 500 804 531 740 q 424 906 464 882 q 345 906 383 931 q 275 810 307 881 q 205 657 236 721 q 148 544 174 593 q 100 449 122 494 z "},"~":{"ha":888,"x_min":88,"x_max":801,"o":"m 801 538 q 783 591 801 574 q 739 608 764 608 q 695 591 714 608 q 676 538 676 574 q 672 477 676 507 q 659 422 668 447 q 637 382 650 397 q 604 367 624 367 q 568 377 585 367 q 534 408 551 388 q 494 454 517 428 q 401 556 446 515 q 292 596 356 596 q 181 558 226 596 q 111 455 135 521 q 88 300 88 389 q 106 248 88 265 q 150 231 125 231 q 194 248 175 231 q 213 300 213 265 q 216 361 213 331 q 228 417 219 392 q 250 456 236 442 q 283 471 264 471 q 321 460 304 471 q 356 428 338 449 q 397 376 374 407 q 490 281 444 319 q 594 242 535 242 q 706 279 660 242 q 777 383 753 317 q 801 538 801 450 z "},"%":{"ha":1421,"x_min":79,"x_max":1343,"o":"m 986 6 q 1042 1 1018 -8 q 1075 33 1065 11 q 1076 81 1085 56 q 1036 119 1068 106 q 996 151 1013 131 q 971 199 979 171 q 963 258 963 226 q 977 335 963 301 q 1020 387 992 368 q 1089 406 1049 406 q 1158 387 1129 406 q 1203 335 1188 368 q 1218 258 1218 301 q 1209 199 1218 226 q 1183 151 1200 172 q 1140 119 1165 131 q 1099 81 1108 106 q 1101 35 1090 57 q 1135 2 1111 13 q 1190 6 1158 -8 q 1301 102 1260 35 q 1343 258 1343 169 q 1310 399 1343 338 q 1220 495 1278 460 q 1089 531 1163 531 q 958 495 1015 531 q 869 399 901 460 q 838 258 838 338 q 878 103 838 169 q 986 6 919 36 m 1049 856 q 1061 911 1068 886 q 1033 949 1054 936 q 986 957 1011 963 q 943 922 961 951 q 889 840 919 883 q 823 747 858 796 q 751 647 788 699 q 658 516 704 582 q 572 392 613 450 q 500 289 531 333 q 453 224 478 257 q 406 158 429 190 q 358 92 382 125 q 343 38 338 63 q 369 -2 349 13 q 415 -13 389 -17 q 461 19 440 -10 q 508 85 485 53 q 556 151 532 118 q 603 217 581 185 q 674 319 633 261 q 762 444 715 378 q 854 575 808 510 q 927 678 892 629 q 993 771 963 726 q 1049 856 1024 815 m 432 938 q 376 941 400 951 q 342 908 353 931 q 341 862 332 886 q 382 824 350 838 q 424 792 407 813 q 451 744 442 772 q 460 685 460 717 q 444 608 460 642 q 400 556 429 575 q 331 538 371 538 q 262 556 290 538 q 219 608 233 575 q 204 685 204 642 q 213 744 204 717 q 238 793 221 772 q 278 824 254 814 q 318 863 310 839 q 317 910 326 888 q 283 942 307 932 q 228 938 260 953 q 120 841 161 907 q 79 685 79 775 q 111 544 79 606 q 200 448 143 483 q 331 413 257 413 q 462 448 404 413 q 552 544 519 483 q 585 685 585 606 q 543 842 585 775 q 432 938 501 908 z "},"":{"ha":1992,"x_min":79,"x_max":1913,"o":"m 986 6 q 1042 1 1018 -8 q 1075 33 1065 11 q 1076 81 1085 56 q 1036 119 1068 106 q 996 151 1013 131 q 971 199 979 171 q 963 258 963 226 q 977 335 963 301 q 1020 387 992 368 q 1089 406 1049 406 q 1158 387 1129 406 q 1203 335 1188 368 q 1218 258 1218 301 q 1209 199 1218 226 q 1183 151 1200 172 q 1140 119 1165 131 q 1099 81 1108 106 q 1101 35 1090 57 q 1135 2 1111 13 q 1190 6 1158 -8 q 1301 102 1260 35 q 1343 258 1343 169 q 1310 399 1343 338 q 1220 495 1278 460 q 1089 531 1163 531 q 958 495 1015 531 q 869 399 901 460 q 838 258 838 338 q 878 103 838 169 q 986 6 919 36 m 1049 856 q 1061 911 1068 886 q 1033 949 1054 936 q 986 957 1011 963 q 943 922 961 951 q 889 840 919 883 q 823 747 858 796 q 751 647 788 699 q 658 516 704 582 q 572 392 613 450 q 500 289 531 333 q 453 224 478 257 q 406 158 429 190 q 358 92 382 125 q 343 38 338 63 q 369 -2 349 13 q 415 -13 389 -17 q 461 19 440 -10 q 508 85 485 53 q 556 151 532 118 q 603 217 581 185 q 674 319 633 261 q 762 444 715 378 q 854 575 808 510 q 927 678 892 629 q 993 771 963 726 q 1049 856 1024 815 m 432 938 q 376 941 400 951 q 342 908 353 931 q 341 862 332 886 q 382 824 350 838 q 424 792 407 813 q 451 744 442 772 q 460 685 460 717 q 444 608 460 642 q 400 556 429 575 q 331 538 371 538 q 262 556 290 538 q 219 608 233 575 q 204 685 204 642 q 213 744 204 717 q 238 793 221 772 q 278 824 254 814 q 318 863 310 839 q 317 910 326 888 q 283 942 307 932 q 228 938 260 953 q 120 841 161 907 q 79 685 79 775 q 111 544 79 606 q 200 448 143 483 q 331 413 257 413 q 462 448 404 413 q 552 544 519 483 q 585 685 585 606 q 543 842 585 775 q 432 938 501 908 m 1556 6 q 1611 1 1588 -8 q 1644 33 1635 11 q 1646 81 1654 56 q 1606 119 1638 106 q 1565 151 1582 131 q 1540 199 1549 171 q 1532 258 1532 226 q 1547 335 1532 301 q 1590 387 1561 368 q 1658 406 1618 406 q 1728 387 1699 406 q 1772 335 1757 368 q 1788 258 1788 301 q 1778 199 1788 226 q 1752 151 1769 172 q 1710 119 1735 131 q 1669 81 1678 106 q 1670 35 1660 57 q 1704 2 1681 13 q 1760 6 1728 -8 q 1871 102 1829 35 q 1913 258 1913 169 q 1880 399 1913 338 q 1790 495 1847 460 q 1658 531 1732 531 q 1528 495 1585 531 q 1439 399 1471 460 q 1407 258 1407 338 q 1448 103 1407 169 q 1556 6 1489 36 z "},"":{"ha":739,"x_min":83,"x_max":657,"o":"m 269 393 q 325 394 303 382 q 356 431 347 407 q 353 478 364 454 q 308 513 342 501 q 255 545 278 524 q 220 599 232 567 q 208 668 208 631 q 228 755 208 718 q 283 813 247 792 q 368 833 319 833 q 453 813 417 833 q 511 755 490 792 q 532 668 532 718 q 519 599 532 631 q 484 545 507 567 q 429 513 461 524 q 385 478 396 501 q 382 431 374 454 q 413 394 390 407 q 468 393 435 382 q 566 451 524 413 q 633 546 608 490 q 657 668 657 601 q 619 818 657 753 q 517 921 582 883 q 368 958 451 958 q 220 921 285 958 q 119 818 156 883 q 83 668 83 753 q 107 546 83 601 q 172 451 131 490 q 269 393 214 413 z "},"":{"ha":413,"x_min":65,"x_max":346,"o":"m 81 636 q 74 580 65 604 q 106 545 83 556 q 152 542 128 535 q 192 581 176 550 q 227 652 210 617 q 263 723 244 688 q 297 793 281 758 q 331 861 314 828 q 337 917 346 893 q 306 952 328 942 q 259 956 283 963 q 219 917 235 949 q 184 845 201 881 q 149 774 167 810 q 114 704 131 739 q 81 636 97 669 z "},"":{"ha":690,"x_min":65,"x_max":624,"o":"m 81 636 q 74 580 65 604 q 106 545 83 556 q 152 542 128 535 q 192 581 176 550 q 227 652 210 617 q 263 723 244 688 q 297 793 281 758 q 331 861 314 828 q 337 917 346 893 q 306 952 328 942 q 259 956 283 963 q 219 917 235 949 q 184 845 201 881 q 149 774 167 810 q 114 704 131 739 q 81 636 97 669 m 358 636 q 352 580 343 604 q 383 545 361 556 q 430 542 406 535 q 469 581 454 550 q 505 652 488 617 q 540 723 522 688 q 575 793 558 758 q 608 861 592 828 q 615 917 624 893 q 583 952 606 942 q 537 956 561 963 q 497 917 513 949 q 462 845 479 881 q 426 774 444 810 q 392 704 408 739 q 358 636 375 669 z "},"":{"ha":472,"x_min":33,"x_max":439,"o":"m 368 365 q 422 384 404 365 q 439 428 439 403 q 422 472 439 453 q 368 490 404 490 q 272 490 319 490 q 183 490 225 490 q 104 490 140 490 q 51 472 69 490 q 33 428 33 453 q 51 384 33 403 q 104 365 69 365 q 183 365 140 365 q 274 365 226 365 q 368 365 321 365 z "},"":{"ha":756,"x_min":63,"x_max":692,"o":"m 124 703 q 142 650 124 668 q 186 632 161 632 q 230 650 211 632 q 249 703 249 668 q 249 732 249 724 q 249 749 249 740 q 249 778 249 757 q 230 830 249 813 q 186 847 211 847 q 142 830 161 847 q 124 778 124 813 q 124 749 124 757 q 124 732 124 740 q 124 703 124 724 m 675 858 q 684 914 692 889 q 655 951 676 939 q 608 956 633 963 q 567 919 583 950 q 543 878 556 899 q 519 838 531 858 q 494 797 507 818 q 327 515 410 654 q 167 242 244 375 q 144 205 156 224 q 123 167 133 186 q 102 131 113 149 q 81 93 92 113 q 70 38 63 63 q 99 1 78 14 q 147 -5 121 -11 q 189 32 172 1 q 217 80 203 56 q 247 128 232 104 q 275 178 261 153 q 387 367 332 274 q 497 553 442 461 q 603 733 551 644 q 627 775 615 754 q 651 817 639 796 q 675 858 664 838 m 490 168 q 509 115 490 133 q 553 97 528 97 q 597 115 578 97 q 615 168 615 133 q 615 197 615 189 q 615 214 615 206 q 615 243 615 222 q 597 295 615 278 q 553 313 578 313 q 509 295 528 313 q 490 243 490 278 q 490 214 490 222 q 490 197 490 206 q 490 168 490 189 z "},"":{"ha":683,"x_min":76,"x_max":607,"o":"m 536 185 q 590 203 572 185 q 607 247 607 222 q 590 291 607 272 q 536 310 572 310 q 424 310 485 310 q 294 310 363 310 q 147 310 225 310 q 94 291 113 310 q 76 247 76 272 q 94 203 76 222 q 147 185 113 185 q 260 185 200 185 q 390 185 321 185 q 536 185 458 185 m 401 564 q 361 525 369 550 q 363 478 353 500 q 398 446 374 456 q 454 450 422 436 q 559 544 519 481 q 599 692 599 608 q 580 797 599 749 q 526 882 561 846 q 444 938 492 918 q 342 958 397 958 q 239 938 286 958 q 157 882 192 918 q 103 797 122 846 q 85 692 85 749 q 124 546 85 608 q 226 451 163 483 q 283 445 258 436 q 317 476 307 454 q 321 523 328 499 q 282 563 314 547 q 243 593 260 574 q 218 638 226 613 q 210 692 210 663 q 226 765 210 733 q 273 815 243 797 q 342 833 303 833 q 411 815 382 833 q 457 765 440 797 q 474 692 474 733 q 465 638 474 663 q 441 594 457 613 q 401 564 425 575 z "},"":{"ha":688,"x_min":76,"x_max":625,"o":"m 554 185 q 608 203 590 185 q 625 247 625 222 q 608 291 625 272 q 554 310 590 310 q 437 310 500 310 q 301 310 374 310 q 147 310 229 310 q 94 291 113 310 q 76 247 76 272 q 94 203 76 222 q 147 185 113 185 q 265 185 203 185 q 400 185 328 185 q 554 185 472 185 m 599 892 q 580 945 599 928 q 536 963 561 963 q 492 945 511 963 q 474 892 474 928 q 474 843 474 869 q 474 780 474 817 q 474 688 474 743 q 458 615 474 646 q 413 566 442 583 q 343 549 383 549 q 273 567 303 549 q 226 618 243 586 q 210 692 210 650 q 226 765 210 733 q 273 815 243 797 q 342 833 303 833 q 392 824 368 833 q 434 795 415 814 q 463 751 453 776 q 474 696 474 726 q 474 637 474 664 q 474 585 474 610 q 474 538 474 561 q 474 492 474 515 q 492 440 474 457 q 536 422 511 422 q 580 440 561 422 q 599 492 599 457 q 599 523 599 507 q 599 561 599 539 q 599 616 599 583 q 599 696 599 649 q 578 803 599 754 q 521 886 557 851 q 438 940 485 921 q 342 958 392 958 q 240 939 288 958 q 158 883 193 919 q 104 799 124 847 q 85 692 85 750 q 119 554 85 615 q 211 458 153 493 q 343 424 269 424 q 474 457 417 424 q 565 550 532 490 q 599 688 599 610 q 599 792 599 743 q 599 892 599 842 z "},"":{"ha":1115,"x_min":79,"x_max":1036,"o":"m 636 565 q 692 561 668 551 q 725 594 715 571 q 726 641 735 617 q 686 679 718 665 q 565 704 624 707 q 458 672 506 701 q 383 592 411 643 q 354 472 354 542 q 383 353 354 404 q 458 272 411 301 q 565 240 506 243 q 686 265 624 238 q 726 303 718 279 q 725 351 735 328 q 692 384 715 374 q 636 379 668 394 q 558 367 594 361 q 501 399 522 372 q 479 472 479 426 q 501 545 479 518 q 558 578 522 572 q 636 565 594 585 m 468 -4 q 524 6 503 -10 q 549 44 544 21 q 539 90 553 68 q 490 118 525 113 q 415 140 450 125 q 347 176 379 156 q 242 301 281 225 q 204 472 204 378 q 250 658 204 578 q 377 785 296 739 q 564 832 458 832 q 707 806 643 832 q 817 731 771 779 q 887 617 863 682 q 911 472 911 551 q 895 353 911 410 q 848 252 879 297 q 772 175 817 207 q 710 140 744 154 q 636 118 675 125 q 588 90 601 113 q 578 44 574 68 q 603 6 583 21 q 658 -4 624 -10 q 759 26 711 6 q 847 75 807 46 q 985 242 935 139 q 1036 472 1036 344 q 1002 665 1036 576 q 905 819 968 754 q 755 921 842 885 q 564 957 668 957 q 370 921 458 957 q 217 819 282 885 q 115 665 151 754 q 79 472 79 576 q 133 242 79 344 q 278 74 186 139 q 367 25 319 44 q 468 -4 415 6 z "},"":{"ha":894,"x_min":46,"x_max":849,"o":"m 333 164 q 389 168 367 154 q 418 206 411 182 q 413 252 425 229 q 367 283 400 275 q 286 320 322 296 q 224 380 250 344 q 185 459 199 415 q 171 553 171 503 q 191 665 171 614 q 248 753 211 715 q 335 811 285 790 q 447 832 386 832 q 559 811 508 832 q 647 753 610 790 q 703 665 683 715 q 724 553 724 614 q 700 433 724 488 q 633 340 676 378 q 532 285 590 301 q 487 252 499 275 q 481 206 475 229 q 510 169 488 182 q 565 165 532 156 q 714 244 650 189 q 813 379 778 300 q 849 553 849 458 q 797 760 849 669 q 654 904 744 851 q 447 957 564 957 q 240 904 331 957 q 98 760 150 851 q 46 553 46 669 q 82 377 46 457 q 183 242 118 297 q 333 164 249 188 m 286 418 q 305 366 286 383 q 349 349 324 349 q 392 366 374 349 q 411 418 411 383 q 411 504 411 461 q 411 586 411 547 q 417 622 411 614 q 440 631 424 631 q 460 628 451 631 q 475 620 469 625 q 481 606 481 615 q 478 589 481 594 q 471 581 475 583 q 461 575 467 578 q 421 547 435 567 q 406 507 407 528 q 416 472 406 486 q 449 457 426 457 q 476 447 467 457 q 493 422 485 438 q 514 385 501 406 q 557 351 532 356 q 603 359 582 346 q 632 397 625 372 q 619 451 639 421 q 574 515 596 490 q 531 555 551 540 q 492 576 511 569 q 456 582 474 582 q 417 567 433 582 q 394 532 401 553 q 389 490 386 511 q 406 456 392 469 q 447 442 419 442 q 517 464 474 442 q 559 492 539 475 q 592 538 579 510 q 606 606 606 565 q 585 680 606 646 q 528 735 565 714 q 440 756 492 756 q 358 740 393 756 q 305 692 324 724 q 286 613 286 660 q 286 538 286 569 q 286 480 286 507 q 286 418 286 453 z "},"":{"ha":1119,"x_min":19,"x_max":1018,"o":"m 369 826 q 423 845 406 826 q 440 889 440 864 q 423 933 440 914 q 369 951 406 951 q 283 951 332 951 q 183 951 233 951 q 90 951 133 951 q 38 933 56 951 q 19 889 19 914 q 38 845 19 864 q 90 826 56 826 q 163 826 119 826 q 260 826 207 826 q 369 826 313 826 m 293 806 q 274 859 293 842 q 231 876 256 876 q 187 859 206 876 q 168 806 168 842 q 168 708 168 757 q 168 615 168 660 q 168 528 168 569 q 187 476 168 493 q 231 458 206 458 q 274 476 256 458 q 293 528 293 493 q 293 583 293 551 q 293 651 293 615 q 293 727 293 688 q 293 806 293 767 m 485 528 q 503 476 485 493 q 547 458 522 458 q 591 476 572 458 q 610 528 610 493 q 610 605 610 564 q 610 692 610 646 q 610 793 610 739 q 606 820 610 811 q 599 829 603 829 q 593 821 594 829 q 596 796 592 813 q 610 747 603 771 q 626 695 618 722 q 647 634 635 668 q 675 556 658 600 q 710 492 690 514 q 752 471 731 471 q 794 493 774 471 q 831 561 814 515 q 853 626 843 597 q 870 678 863 654 q 885 722 878 701 q 898 761 892 742 q 911 803 904 781 q 913 821 915 815 q 906 826 911 826 q 897 817 901 825 q 893 794 893 808 q 893 717 893 758 q 893 629 893 676 q 893 528 893 582 q 912 476 893 493 q 956 458 931 458 q 999 476 981 458 q 1018 528 1018 493 q 1018 606 1018 564 q 1018 702 1018 649 q 1018 824 1018 756 q 990 912 1018 882 q 921 945 961 942 q 846 928 881 949 q 799 865 811 907 q 778 801 788 829 q 762 749 769 772 q 746 701 754 725 q 729 653 738 678 q 728 613 719 626 q 752 601 738 600 q 776 614 767 601 q 775 650 785 626 q 753 713 763 683 q 733 778 743 743 q 706 860 722 814 q 665 920 692 899 q 608 947 639 942 q 549 939 578 951 q 503 899 521 926 q 485 828 485 871 q 485 726 485 775 q 485 630 485 678 q 485 528 485 582 z "},"@":{"ha":1328,"x_min":93,"x_max":1267,"o":"m 938 594 q 919 647 938 629 q 875 664 900 664 q 831 647 850 664 q 813 594 813 629 q 813 522 813 557 q 813 451 813 488 q 813 367 813 414 q 794 281 813 318 q 744 224 776 244 q 669 204 713 204 q 594 226 626 204 q 543 285 561 247 q 525 371 525 322 q 544 457 525 419 q 595 516 563 494 q 669 538 628 538 q 728 526 701 538 q 773 492 754 514 q 802 441 792 471 q 813 375 813 411 q 831 248 813 300 q 881 163 850 196 q 951 115 913 131 q 1026 100 989 100 q 1120 122 1076 100 q 1197 185 1164 143 q 1249 290 1231 228 q 1267 433 1267 353 q 1225 642 1267 547 q 1108 808 1183 738 q 927 918 1032 879 q 694 957 822 957 q 454 913 564 957 q 263 788 344 868 q 138 598 182 707 q 93 361 93 489 q 137 125 93 231 q 260 -56 181 19 q 446 -173 339 -132 q 678 -214 553 -214 q 767 -208 721 -214 q 860 -192 813 -203 q 956 -165 907 -181 q 999 -131 989 -154 q 1002 -83 1010 -107 q 972 -47 994 -60 q 917 -46 950 -35 q 794 -78 854 -68 q 678 -89 733 -89 q 494 -58 578 -89 q 348 32 410 -26 q 252 174 286 90 q 218 361 218 257 q 253 549 218 464 q 352 699 288 635 q 503 797 417 763 q 694 832 590 832 q 876 803 794 832 q 1018 722 958 775 q 1110 596 1078 669 q 1142 433 1142 522 q 1128 326 1142 374 q 1090 252 1115 279 q 1026 225 1064 225 q 990 234 1007 225 q 962 262 974 243 q 944 309 950 281 q 938 375 938 338 q 917 493 938 440 q 860 583 896 546 q 775 642 824 621 q 669 663 726 663 q 565 642 614 663 q 479 582 517 621 q 421 490 442 543 q 400 371 400 436 q 435 220 400 286 q 532 117 471 154 q 669 79 593 79 q 776 100 726 79 q 861 159 825 121 q 917 250 897 197 q 938 367 938 303 q 938 442 938 399 q 938 528 938 486 q 938 594 938 569 z "},"#":{"ha":972,"x_min":47,"x_max":925,"o":"m 417 886 q 400 940 418 921 q 357 960 382 958 q 313 944 332 961 q 292 892 293 928 q 287 810 290 849 q 279 726 283 771 q 270 624 275 682 q 258 483 265 565 q 247 343 253 404 q 238 233 242 282 q 231 142 233 185 q 225 58 228 100 q 242 5 224 24 q 285 -15 260 -14 q 329 1 310 -17 q 350 53 349 18 q 356 135 353 94 q 363 225 358 176 q 372 333 367 274 q 383 472 378 393 q 395 615 390 556 q 404 719 400 674 q 412 803 408 764 q 417 886 415 843 m 747 886 q 731 940 749 921 q 688 960 713 958 q 643 944 663 961 q 622 892 624 928 q 617 808 621 847 q 610 726 614 769 q 601 624 606 683 q 589 482 596 565 q 578 342 583 403 q 569 233 574 282 q 562 143 565 185 q 556 60 558 101 q 572 6 554 25 q 614 -15 589 -14 q 659 0 639 -17 q 681 51 679 17 q 687 135 683 93 q 694 226 690 178 q 703 335 699 275 q 714 474 708 396 q 726 614 721 556 q 735 717 731 672 q 742 801 739 761 q 747 886 746 840 m 854 579 q 908 598 890 579 q 925 642 925 617 q 908 685 925 667 q 854 704 890 704 q 795 704 822 704 q 743 704 768 704 q 694 704 718 704 q 607 704 647 704 q 526 704 567 704 q 433 704 485 704 q 308 704 381 704 q 260 704 289 704 q 197 704 232 704 q 118 704 161 704 q 65 685 83 704 q 47 642 47 667 q 65 598 47 617 q 118 579 83 579 q 189 579 157 579 q 249 579 221 579 q 308 579 278 579 q 397 579 357 579 q 478 579 436 579 q 571 579 519 579 q 694 579 622 579 q 738 579 711 579 q 795 579 764 579 q 854 579 826 579 m 854 240 q 908 259 890 240 q 925 303 925 278 q 908 347 925 328 q 854 365 890 365 q 753 365 799 365 q 664 365 708 365 q 576 365 617 365 q 494 365 536 365 q 401 365 453 365 q 278 365 350 365 q 238 365 261 365 q 186 365 215 365 q 118 365 157 365 q 65 347 83 365 q 47 303 47 328 q 65 259 47 278 q 118 240 83 240 q 181 240 154 240 q 231 240 208 240 q 278 240 254 240 q 366 240 326 240 q 447 240 406 240 q 540 240 489 240 q 664 240 592 240 q 714 240 685 240 q 779 240 743 240 q 854 240 815 240 z "},"&":{"ha":881,"x_min":88,"x_max":832,"o":"m 576 803 q 633 804 610 792 q 663 840 656 817 q 661 888 671 864 q 618 922 651 911 q 517 949 567 939 q 419 958 468 958 q 301 943 357 958 q 202 895 244 928 q 135 814 160 863 q 111 699 111 765 q 138 590 111 640 q 215 501 164 539 q 340 442 265 463 q 511 421 415 421 q 604 421 569 421 q 661 421 639 421 q 706 421 683 421 q 763 421 728 421 q 815 440 797 421 q 832 483 832 458 q 815 527 832 508 q 763 546 797 546 q 706 546 728 546 q 660 546 683 546 q 603 546 638 546 q 511 546 569 546 q 334 526 413 546 q 201 469 256 507 q 117 376 146 431 q 88 250 88 321 q 110 144 88 192 q 174 60 132 96 q 272 4 215 24 q 400 -15 329 -15 q 528 6 471 -15 q 628 65 586 26 q 694 156 671 103 q 717 275 717 210 q 717 350 717 318 q 717 419 717 382 q 717 514 717 457 q 717 558 717 536 q 717 603 717 579 q 717 654 717 626 q 698 708 717 690 q 654 725 679 725 q 610 708 629 725 q 592 654 592 690 q 592 594 592 625 q 592 514 592 564 q 592 444 592 475 q 592 376 592 414 q 592 275 592 338 q 578 203 592 235 q 539 151 564 172 q 478 120 514 131 q 400 110 443 110 q 303 126 346 110 q 237 174 261 142 q 213 250 213 206 q 235 330 213 297 q 299 383 258 363 q 393 412 339 403 q 511 421 447 421 q 604 421 569 421 q 661 421 639 421 q 706 421 683 421 q 763 421 728 421 q 815 440 797 421 q 832 483 832 458 q 815 527 832 508 q 763 546 797 546 q 706 546 728 546 q 660 546 683 546 q 603 546 638 546 q 511 546 569 546 q 423 552 464 546 q 347 571 382 558 q 288 601 313 583 q 250 644 264 619 q 236 699 236 668 q 261 781 236 751 q 328 822 286 810 q 419 833 371 833 q 472 830 446 833 q 524 819 497 826 q 576 803 550 813 z "},"":{"ha":701,"x_min":64,"x_max":636,"o":"m 524 806 q 579 807 557 794 q 610 843 601 819 q 607 890 618 867 q 563 925 596 914 q 461 950 510 942 q 369 958 413 958 q 231 932 289 958 q 144 860 174 906 q 114 758 114 815 q 144 656 114 697 q 228 584 175 614 q 347 526 282 554 q 417 497 379 514 q 483 458 456 481 q 511 403 511 435 q 489 357 511 376 q 430 327 467 338 q 349 315 393 317 q 297 296 314 315 q 280 251 279 276 q 299 208 281 226 q 351 190 317 190 q 507 222 443 193 q 603 299 571 251 q 636 403 636 347 q 603 513 636 469 q 515 587 569 557 q 394 643 460 617 q 328 672 365 656 q 265 709 292 688 q 239 758 239 731 q 276 815 239 797 q 369 833 314 833 q 442 827 404 833 q 524 806 481 821 m 167 36 q 110 35 133 47 q 79 0 88 24 q 81 -47 71 -24 q 125 -83 92 -71 q 235 -111 182 -101 q 333 -121 288 -121 q 449 -105 399 -121 q 533 -62 499 -89 q 585 0 567 -35 q 603 72 603 35 q 572 168 603 131 q 485 233 540 206 q 360 285 431 260 q 287 313 326 297 q 218 352 247 329 q 189 407 189 375 q 210 455 189 433 q 269 490 232 476 q 350 503 306 503 q 403 522 386 503 q 421 565 421 540 q 403 609 421 590 q 350 628 386 628 q 228 609 282 628 q 138 558 175 590 q 83 487 101 526 q 64 407 64 447 q 99 296 64 340 q 191 222 133 251 q 318 168 249 193 q 382 144 344 158 q 449 113 419 131 q 478 72 478 94 q 465 44 478 57 q 432 23 453 32 q 385 9 411 14 q 333 4 360 4 q 253 12 296 4 q 167 36 211 19 z "},"":{"ha":1081,"x_min":65,"x_max":932,"o":"m 807 56 q 826 3 807 21 q 869 -15 844 -15 q 913 3 894 -15 q 932 56 932 21 q 932 136 932 83 q 932 260 932 189 q 932 414 932 332 q 932 582 932 496 q 932 751 932 668 q 928 832 932 799 q 914 888 925 865 q 878 922 903 910 q 811 940 853 935 q 706 944 769 944 q 610 944 663 944 q 500 944 558 944 q 376 944 442 944 q 251 922 308 944 q 153 859 194 900 q 88 764 111 818 q 65 644 65 710 q 90 525 65 579 q 156 431 114 471 q 250 370 197 392 q 358 349 303 349 q 449 361 404 349 q 531 397 494 374 q 590 455 568 421 q 613 532 613 489 q 613 582 613 554 q 613 641 613 610 q 613 706 613 672 q 613 775 613 740 q 600 820 613 803 q 569 843 588 838 q 531 842 550 849 q 500 819 513 836 q 488 775 488 803 q 488 699 488 753 q 488 574 488 646 q 488 424 488 503 q 488 271 488 344 q 488 140 488 197 q 488 56 488 83 q 506 3 488 21 q 550 -15 525 -15 q 594 3 575 -15 q 613 56 613 21 q 613 137 613 81 q 613 267 613 193 q 613 419 613 340 q 613 571 613 499 q 613 698 613 643 q 613 775 613 753 q 600 820 613 803 q 569 843 588 838 q 531 842 550 849 q 500 819 513 836 q 488 775 488 803 q 488 712 488 742 q 488 653 488 682 q 488 594 488 624 q 488 532 488 564 q 476 506 488 517 q 447 488 465 494 q 406 477 429 481 q 358 474 383 474 q 277 495 315 474 q 215 556 239 517 q 190 644 190 594 q 214 737 190 697 q 280 798 238 776 q 376 819 322 819 q 468 819 419 819 q 572 819 517 819 q 692 819 628 819 q 760 819 736 819 q 794 812 785 818 q 806 788 804 806 q 807 738 807 771 q 807 605 807 682 q 807 444 807 528 q 807 281 807 360 q 807 142 807 201 q 807 56 807 82 z "},"":{"ha":469,"x_min":38,"x_max":326,"o":"m 99 918 q 51 889 64 911 q 42 842 38 867 q 68 803 47 818 q 124 796 89 789 q 170 806 154 803 q 192 806 186 808 q 200 794 199 803 q 201 767 201 785 q 201 642 201 703 q 201 529 201 582 q 201 432 201 476 q 220 380 201 397 q 264 363 239 363 q 308 380 289 363 q 326 432 326 397 q 326 528 326 478 q 326 639 326 579 q 326 767 326 699 q 319 848 326 813 q 288 905 311 883 q 220 931 265 926 q 99 918 175 935 z "},"":{"ha":599,"x_min":83,"x_max":532,"o":"m 461 382 q 515 401 497 382 q 532 444 532 419 q 515 488 532 469 q 461 507 497 507 q 412 507 433 507 q 374 507 390 507 q 346 507 358 507 q 325 507 333 507 q 313 508 318 507 q 307 513 308 510 q 310 521 306 515 q 324 535 314 526 q 351 558 333 544 q 410 606 383 582 q 459 656 438 629 q 492 713 481 682 q 504 778 504 743 q 482 858 504 822 q 422 919 460 894 q 335 954 383 944 q 232 956 286 964 q 125 915 178 947 q 89 872 94 897 q 97 825 83 846 q 134 797 110 804 q 189 807 158 789 q 251 830 218 825 q 313 829 285 835 q 360 809 342 824 q 379 772 379 794 q 363 733 379 754 q 320 689 347 713 q 258 638 293 665 q 182 576 222 610 q 127 517 146 546 q 108 463 108 488 q 122 421 107 439 q 165 392 136 403 q 238 382 194 382 q 314 382 282 382 q 369 382 346 382 q 415 382 393 382 q 461 382 436 382 z "},"":{"ha":582,"x_min":78,"x_max":508,"o":"m 175 521 q 119 522 142 533 q 87 488 96 511 q 88 440 78 464 q 131 404 97 417 q 270 376 203 378 q 392 396 338 375 q 477 458 446 417 q 508 554 508 499 q 499 610 508 583 q 474 656 489 636 q 443 686 458 676 q 425 697 433 693 q 408 706 417 701 q 389 713 399 710 q 367 718 379 715 q 349 722 354 721 q 343 725 343 724 q 347 730 343 726 q 360 740 351 733 q 374 754 365 746 q 394 773 383 763 q 415 795 404 783 q 438 819 426 807 q 461 842 450 831 q 484 872 475 854 q 493 906 493 889 q 483 933 493 922 q 446 944 472 944 q 383 944 419 944 q 306 944 347 944 q 226 944 265 944 q 156 944 188 944 q 103 926 121 944 q 85 882 85 907 q 103 838 85 857 q 156 819 121 819 q 215 818 181 819 q 288 817 250 817 q 362 818 326 817 q 424 825 397 819 q 461 842 450 831 q 484 872 475 854 q 493 906 493 889 q 483 933 493 922 q 446 944 472 944 q 394 926 425 944 q 330 878 364 907 q 263 819 296 850 q 206 761 231 788 q 168 721 181 735 q 147 683 151 701 q 147 651 142 665 q 165 626 153 636 q 193 614 176 617 q 233 609 210 611 q 281 606 257 607 q 325 601 306 604 q 353 594 344 599 q 365 588 360 592 q 373 581 369 585 q 378 572 376 576 q 382 562 381 567 q 383 550 383 557 q 363 516 383 528 q 309 502 342 504 q 241 505 276 500 q 175 521 206 510 z "},"":{"ha":603,"x_min":81,"x_max":569,"o":"m 499 499 q 552 517 535 499 q 569 561 569 536 q 552 605 569 586 q 499 624 535 624 q 417 624 465 624 q 323 624 368 624 q 253 624 278 624 q 231 625 238 624 q 224 631 224 626 q 231 646 225 636 q 249 681 235 656 q 280 737 264 707 q 308 790 296 767 q 322 814 321 813 q 343 810 324 817 q 388 801 363 804 q 433 810 414 799 q 453 857 453 821 q 435 913 453 893 q 390 938 417 932 q 338 942 364 944 q 293 933 311 940 q 278 910 275 928 q 292 872 281 893 q 316 835 304 851 q 328 813 328 818 q 328 776 328 808 q 328 697 328 744 q 328 597 328 649 q 328 501 328 546 q 328 432 328 457 q 347 380 328 397 q 390 363 365 363 q 434 380 415 363 q 453 432 453 397 q 453 500 453 461 q 453 579 453 539 q 453 656 453 619 q 453 715 453 692 q 453 749 453 736 q 453 785 453 763 q 453 857 453 808 q 435 913 453 893 q 390 938 417 932 q 338 942 364 944 q 293 933 311 940 q 252 910 269 925 q 219 873 235 896 q 183 817 203 850 q 164 786 172 800 q 147 757 156 772 q 127 721 139 742 q 99 668 115 700 q 81 606 81 636 q 97 551 82 575 q 138 513 113 526 q 196 499 164 499 q 305 499 256 499 q 401 499 354 499 q 499 499 449 499 z "},"":{"ha":1306,"x_min":38,"x_max":1243,"o":"m 99 918 q 51 889 64 911 q 42 842 38 867 q 68 803 47 818 q 124 796 89 789 q 170 806 154 803 q 192 806 186 808 q 200 794 199 803 q 201 767 201 785 q 201 642 201 703 q 201 529 201 582 q 201 432 201 476 q 220 380 201 397 q 264 363 239 363 q 308 380 289 363 q 326 432 326 397 q 326 528 326 478 q 326 639 326 579 q 326 767 326 699 q 319 848 326 813 q 288 905 311 883 q 220 931 265 926 q 99 918 175 935 m 903 856 q 915 910 922 885 q 888 948 908 935 q 842 956 867 961 q 797 922 817 951 q 757 857 778 890 q 715 790 736 824 q 672 724 694 757 q 581 576 625 647 q 494 438 536 504 q 415 311 453 372 q 380 255 397 283 q 344 199 363 226 q 309 144 326 171 q 275 89 292 117 q 263 33 257 58 q 291 -5 269 8 q 338 -12 313 -18 q 381 22 363 -7 q 428 97 404 60 q 475 172 451 135 q 521 244 499 208 q 613 392 568 321 q 699 531 657 464 q 778 657 740 597 q 819 722 799 689 q 860 789 839 756 q 903 856 882 822 m 1172 6 q 1226 24 1208 6 q 1243 68 1243 43 q 1226 112 1243 93 q 1172 131 1208 131 q 1123 131 1144 131 q 1085 131 1101 131 q 1057 131 1069 131 q 1036 131 1044 131 q 1024 132 1029 131 q 1018 136 1019 133 q 1021 144 1017 139 q 1035 159 1025 150 q 1063 182 1044 168 q 1122 229 1094 206 q 1170 279 1149 253 q 1203 336 1192 306 q 1215 401 1215 367 q 1193 482 1215 446 q 1133 543 1171 518 q 1046 578 1094 568 q 943 579 997 588 q 836 539 889 571 q 800 495 806 521 q 808 449 794 469 q 845 420 821 428 q 900 431 869 413 q 963 453 929 449 q 1024 453 996 458 q 1072 433 1053 447 q 1090 396 1090 418 q 1074 357 1090 378 q 1031 313 1058 336 q 969 261 1004 289 q 893 200 933 233 q 838 140 857 169 q 819 87 819 111 q 833 44 818 63 q 876 16 847 26 q 949 6 906 6 q 1025 6 993 6 q 1081 6 1057 6 q 1126 6 1104 6 q 1172 6 1147 6 z "},"":{"ha":1249,"x_min":38,"x_max":1208,"o":"m 99 918 q 51 889 64 911 q 42 842 38 867 q 68 803 47 818 q 124 796 89 789 q 170 806 154 803 q 192 806 186 808 q 200 794 199 803 q 201 767 201 785 q 201 642 201 703 q 201 529 201 582 q 201 432 201 476 q 220 380 201 397 q 264 363 239 363 q 308 380 289 363 q 326 432 326 397 q 326 528 326 478 q 326 639 326 579 q 326 767 326 699 q 319 848 326 813 q 288 905 311 883 q 220 931 265 926 q 99 918 175 935 m 903 856 q 915 910 922 885 q 888 948 908 935 q 842 956 867 961 q 797 922 817 951 q 757 857 778 890 q 715 790 736 824 q 672 724 694 757 q 581 576 625 647 q 494 438 536 504 q 415 311 453 372 q 380 255 397 283 q 344 199 363 226 q 309 144 326 171 q 275 89 292 117 q 263 33 257 58 q 291 -5 269 8 q 338 -12 313 -18 q 381 22 363 -7 q 428 97 404 60 q 475 172 451 135 q 521 244 499 208 q 613 392 568 321 q 699 531 657 464 q 778 657 740 597 q 819 722 799 689 q 860 789 839 756 q 903 856 882 822 m 1138 122 q 1191 141 1174 122 q 1208 185 1208 160 q 1191 228 1208 210 q 1138 247 1174 247 q 1056 247 1104 247 q 962 247 1007 247 q 892 247 917 247 q 869 249 876 247 q 863 255 863 250 q 869 269 864 260 q 888 305 874 279 q 919 360 903 331 q 947 413 935 390 q 961 438 960 436 q 982 434 963 440 q 1027 425 1001 428 q 1072 433 1053 422 q 1092 481 1092 444 q 1074 536 1092 517 q 1029 562 1056 556 q 976 566 1003 568 q 932 557 950 564 q 917 534 914 551 q 931 496 919 517 q 955 458 943 475 q 967 436 967 442 q 967 400 967 432 q 967 320 967 368 q 967 221 967 272 q 967 125 967 169 q 967 56 967 81 q 985 3 967 21 q 1029 -14 1004 -14 q 1073 3 1054 -14 q 1092 56 1092 21 q 1092 124 1092 85 q 1092 203 1092 163 q 1092 279 1092 243 q 1092 339 1092 315 q 1092 373 1092 360 q 1092 409 1092 386 q 1092 481 1092 432 q 1074 536 1092 517 q 1029 562 1056 556 q 976 566 1003 568 q 932 557 950 564 q 891 534 908 549 q 858 497 874 519 q 822 440 842 474 q 803 410 811 424 q 786 381 794 396 q 766 344 778 365 q 738 292 754 324 q 720 229 719 260 q 736 174 721 199 q 777 136 751 150 q 835 122 803 122 q 944 122 894 122 q 1040 122 993 122 q 1138 122 1088 122 z "},"":{"ha":1333,"x_min":78,"x_max":1293,"o":"m 175 521 q 119 522 142 533 q 87 488 96 511 q 88 440 78 464 q 131 404 97 417 q 270 376 203 378 q 392 396 338 375 q 477 458 446 417 q 508 554 508 499 q 499 610 508 583 q 474 656 489 636 q 443 686 458 676 q 425 697 433 693 q 408 706 417 701 q 389 713 399 710 q 367 718 379 715 q 349 722 354 721 q 343 725 343 724 q 347 730 343 726 q 360 740 351 733 q 374 754 365 746 q 394 773 383 763 q 415 795 404 783 q 438 819 426 807 q 461 842 450 831 q 484 872 475 854 q 493 906 493 889 q 483 933 493 922 q 446 944 472 944 q 383 944 419 944 q 306 944 347 944 q 226 944 265 944 q 156 944 188 944 q 103 926 121 944 q 85 882 85 907 q 103 838 85 857 q 156 819 121 819 q 215 818 181 819 q 288 817 250 817 q 362 818 326 817 q 424 825 397 819 q 461 842 450 831 q 484 872 475 854 q 493 906 493 889 q 483 933 493 922 q 446 944 472 944 q 394 926 425 944 q 330 878 364 907 q 263 819 296 850 q 206 761 231 788 q 168 721 181 735 q 147 683 151 701 q 147 651 142 665 q 165 626 153 636 q 193 614 176 617 q 233 609 210 611 q 281 606 257 607 q 325 601 306 604 q 353 594 344 599 q 365 588 360 592 q 373 581 369 585 q 378 572 376 576 q 382 562 381 567 q 383 550 383 557 q 363 516 383 528 q 309 502 342 504 q 241 505 276 500 q 175 521 206 510 m 986 856 q 999 910 1006 885 q 971 948 992 935 q 925 956 950 961 q 881 922 900 951 q 840 857 861 890 q 799 790 819 824 q 756 724 778 757 q 664 576 708 647 q 578 438 619 504 q 499 311 536 372 q 463 255 481 283 q 428 199 446 226 q 392 144 410 171 q 358 89 375 117 q 347 33 340 58 q 374 -5 353 8 q 421 -12 396 -18 q 464 22 446 -7 q 511 97 488 60 q 558 172 535 135 q 604 244 582 208 q 696 392 651 321 q 782 531 740 464 q 861 657 824 597 q 902 722 882 689 q 944 789 922 756 q 986 856 965 822 m 1222 122 q 1276 141 1258 122 q 1293 185 1293 160 q 1276 228 1293 210 q 1222 247 1258 247 q 1140 247 1189 247 q 1047 247 1092 247 q 976 247 1001 247 q 954 249 961 247 q 948 255 947 250 q 954 269 949 260 q 973 305 958 279 q 1003 360 988 331 q 1032 413 1019 390 q 1046 438 1044 436 q 1067 434 1047 440 q 1112 425 1086 428 q 1157 433 1138 422 q 1176 481 1176 444 q 1158 536 1176 517 q 1114 562 1140 556 q 1061 566 1088 568 q 1017 557 1035 564 q 1001 534 999 551 q 1016 496 1004 517 q 1040 458 1028 475 q 1051 436 1051 442 q 1051 400 1051 432 q 1051 320 1051 368 q 1051 221 1051 272 q 1051 125 1051 169 q 1051 56 1051 81 q 1070 3 1051 21 q 1114 -14 1089 -14 q 1158 3 1139 -14 q 1176 56 1176 21 q 1176 124 1176 85 q 1176 203 1176 163 q 1176 279 1176 243 q 1176 339 1176 315 q 1176 373 1176 360 q 1176 409 1176 386 q 1176 481 1176 432 q 1158 536 1176 517 q 1114 562 1140 556 q 1061 566 1088 568 q 1017 557 1035 564 q 976 534 993 549 q 942 497 958 519 q 907 440 926 474 q 888 410 896 424 q 871 381 879 396 q 851 344 863 365 q 822 292 839 324 q 805 229 804 260 q 821 174 806 199 q 862 136 836 150 q 919 122 888 122 q 1028 122 979 122 q 1125 122 1078 122 q 1222 122 1172 122 z "},"":{"ha":694,"x_min":146,"x_max":549,"o":"m 146 883 q 165 835 146 851 q 208 819 183 819 q 252 835 233 819 q 271 883 271 851 q 271 908 271 899 q 271 928 271 918 q 271 951 271 938 q 252 999 271 983 q 208 1015 233 1015 q 165 999 183 1015 q 146 951 146 983 q 146 928 146 938 q 146 908 146 918 q 146 883 146 899 m 424 883 q 442 835 424 851 q 486 819 461 819 q 530 835 511 819 q 549 883 549 851 q 549 908 549 899 q 549 928 549 918 q 549 951 549 938 q 530 999 549 983 q 486 1015 511 1015 q 442 999 461 1015 q 424 951 424 983 q 424 928 424 938 q 424 908 424 918 q 424 883 424 899 z "},"`":{"ha":694,"x_min":154,"x_max":433,"o":"m 324 792 q 376 772 350 769 q 417 793 401 775 q 433 838 433 811 q 404 886 432 864 q 370 916 388 901 q 335 945 353 931 q 300 975 318 960 q 264 1006 282 990 q 212 1026 238 1029 q 170 1004 186 1022 q 156 960 154 986 q 183 911 157 935 q 217 882 200 897 q 252 852 235 867 q 288 822 269 838 q 324 792 306 807 z "},"":{"ha":694,"x_min":117,"x_max":576,"o":"m 506 810 q 559 828 542 810 q 576 872 576 847 q 559 916 576 897 q 506 935 542 935 q 435 935 475 935 q 351 935 396 935 q 265 935 307 935 q 186 935 222 935 q 134 916 151 935 q 117 872 117 897 q 134 828 117 847 q 186 810 151 810 q 258 810 217 810 q 344 810 299 810 q 431 810 389 810 q 506 810 474 810 z "},"":{"ha":694,"x_min":267,"x_max":546,"o":"m 517 911 q 545 960 544 935 q 530 1004 546 986 q 488 1026 514 1022 q 436 1006 463 1029 q 400 975 418 990 q 365 945 382 960 q 330 916 347 931 q 296 886 313 901 q 268 838 269 864 q 283 793 267 811 q 324 772 299 775 q 376 792 350 769 q 413 822 394 807 q 448 852 431 838 q 483 882 465 867 q 517 911 500 897 z "},"":{"ha":694,"x_min":151,"x_max":517,"o":"m 383 22 q 369 76 386 58 q 326 95 351 94 q 281 79 301 96 q 258 28 261 63 q 254 -67 254 -29 q 265 -125 254 -104 q 297 -156 275 -146 q 342 -167 321 -164 q 376 -173 363 -169 q 390 -190 390 -176 q 365 -212 390 -207 q 305 -216 340 -218 q 238 -208 269 -214 q 182 -216 203 -201 q 156 -255 161 -231 q 165 -301 151 -279 q 213 -331 178 -324 q 344 -342 288 -346 q 438 -317 400 -337 q 496 -265 476 -296 q 515 -194 515 -233 q 504 -124 517 -151 q 470 -81 492 -96 q 419 -60 449 -65 q 397 -52 406 -57 q 385 -39 389 -47 q 382 -15 382 -31 q 383 22 382 0 z "},"":{"ha":694,"x_min":125,"x_max":575,"o":"m 156 888 q 126 840 128 867 q 140 794 125 814 q 181 770 156 774 q 233 790 207 767 q 292 845 268 821 q 330 883 315 869 q 350 896 344 897 q 370 881 356 896 q 409 843 385 867 q 467 790 433 819 q 518 772 493 768 q 559 795 543 775 q 574 841 575 815 q 544 888 572 867 q 486 940 510 915 q 443 982 463 964 q 402 1010 424 1000 q 350 1021 381 1021 q 300 1010 321 1021 q 260 982 279 1000 q 216 940 240 964 q 156 888 192 915 z "},"":{"ha":694,"x_min":175,"x_max":518,"o":"m 268 751 q 316 752 297 740 q 343 787 335 764 q 349 831 351 810 q 332 860 347 853 q 316 868 322 864 q 306 878 310 872 q 301 889 303 883 q 300 900 300 894 q 303 917 300 910 q 311 931 306 925 q 325 939 317 936 q 344 942 333 942 q 370 937 360 942 q 387 923 381 932 q 393 900 393 914 q 391 888 393 893 q 385 877 389 882 q 373 867 381 872 q 353 858 365 863 q 329 830 333 851 q 334 785 325 808 q 363 750 343 763 q 410 747 382 738 q 488 804 458 764 q 518 900 518 844 q 497 983 518 946 q 436 1044 475 1021 q 344 1067 397 1067 q 256 1044 294 1067 q 197 983 218 1021 q 175 900 175 946 q 199 808 175 844 q 268 751 222 771 z "},"":{"ha":694,"x_min":113,"x_max":586,"o":"m 586 958 q 567 1012 586 994 q 524 1030 549 1029 q 480 1015 499 1031 q 461 968 461 1000 q 458 928 461 943 q 451 906 456 913 q 438 900 446 900 q 426 905 432 900 q 413 917 419 910 q 400 934 407 925 q 386 951 393 943 q 338 998 368 975 q 263 1021 308 1021 q 201 1007 229 1021 q 153 969 174 993 q 123 911 133 944 q 113 838 113 878 q 131 785 113 803 q 174 765 150 767 q 217 778 199 764 q 238 819 236 792 q 240 864 239 847 q 247 888 242 881 q 258 896 251 896 q 272 890 265 896 q 287 876 279 885 q 303 854 294 867 q 356 799 326 822 q 433 775 386 775 q 496 789 468 775 q 544 828 524 803 q 575 886 564 853 q 586 958 586 919 z "},"":{"ha":694,"x_min":125,"x_max":575,"o":"m 544 911 q 574 958 572 932 q 560 1005 575 985 q 519 1028 544 1025 q 467 1008 493 1032 q 408 953 432 978 q 371 916 385 929 q 350 903 357 903 q 331 918 346 904 q 291 956 315 932 q 233 1008 267 981 q 182 1027 207 1031 q 141 1003 157 1024 q 126 958 125 983 q 156 911 128 932 q 214 859 190 883 q 257 817 238 835 q 298 788 276 799 q 350 778 319 778 q 400 788 379 778 q 440 817 421 799 q 485 859 460 835 q 544 911 510 883 z "},"":{"ha":694,"x_min":126,"x_max":568,"o":"m 568 964 q 549 1017 568 1000 q 506 1035 531 1035 q 462 1017 481 1035 q 443 964 443 1000 q 431 926 443 942 q 399 901 419 910 q 347 893 378 893 q 297 901 318 893 q 263 926 275 910 q 251 964 251 942 q 233 1017 251 1000 q 189 1035 214 1035 q 145 1017 164 1035 q 126 964 126 1000 q 141 888 126 924 q 185 826 156 853 q 255 783 214 799 q 347 768 296 768 q 440 783 400 768 q 510 826 481 799 q 553 888 539 853 q 568 964 568 924 z "},"":{"ha":694,"x_min":285,"x_max":410,"o":"m 285 883 q 303 835 285 851 q 347 819 322 819 q 391 835 372 819 q 410 883 410 851 q 410 908 410 899 q 410 928 410 918 q 410 951 410 938 q 391 999 410 983 q 347 1015 372 1015 q 303 999 322 1015 q 285 951 285 983 q 285 928 285 938 q 285 908 285 918 q 285 883 285 899 z "},"":{"ha":694,"x_min":218,"x_max":524,"o":"m 457 15 q 501 50 490 26 q 504 97 513 74 q 474 133 496 121 q 418 135 451 146 q 296 76 339 108 q 235 7 253 43 q 218 -69 218 -29 q 239 -146 218 -112 q 295 -199 260 -179 q 376 -220 331 -219 q 474 -199 422 -221 q 515 -160 506 -183 q 513 -115 524 -137 q 479 -83 503 -93 q 424 -85 456 -72 q 374 -99 392 -96 q 350 -94 357 -101 q 343 -69 343 -86 q 373 -22 343 -42 q 457 15 403 -3 z "},"":{"ha":694,"x_min":142,"x_max":644,"o":"m 371 932 q 391 985 394 960 q 369 1026 388 1011 q 324 1041 350 1042 q 276 1013 299 1040 q 244 974 261 994 q 207 930 226 953 q 164 879 188 907 q 144 826 142 853 q 166 785 147 800 q 210 771 185 769 q 258 799 236 772 q 291 838 274 817 q 328 882 308 858 q 371 932 349 906 m 621 932 q 641 985 644 960 q 619 1026 638 1011 q 574 1041 600 1042 q 526 1013 549 1040 q 494 974 511 994 q 457 930 476 953 q 414 879 438 907 q 394 826 392 853 q 416 785 397 800 q 460 771 435 769 q 508 799 486 772 q 541 838 524 817 q 578 882 558 858 q 621 932 599 906 z "},"":{"ha":0,"x_min":-193,"x_max":86,"o":"m -24 792 q 28 772 3 769 q 70 793 54 775 q 85 838 86 811 q 57 886 85 864 q 23 916 40 901 q -12 945 6 931 q -47 975 -29 960 q -83 1006 -65 990 q -135 1026 -110 1029 q -177 1004 -161 1022 q -192 960 -193 986 q -164 911 -190 935 q -130 882 -147 897 q -95 852 -112 867 q -60 822 -78 838 q -24 792 -42 807 z "},"":{"ha":0,"x_min":-81,"x_max":199,"o":"m 169 911 q 198 960 197 935 q 183 1004 199 986 q 141 1026 167 1022 q 89 1006 115 1029 q 53 975 71 990 q 17 945 35 960 q -17 916 0 931 q -51 886 -35 901 q -79 838 -78 864 q -65 793 -81 811 q -23 772 -49 775 q 29 792 3 769 q 65 822 47 807 q 101 852 83 838 q 135 882 118 867 q 169 911 153 897 z "},"":{"ha":0,"x_min":-222,"x_max":228,"o":"m -192 888 q -221 840 -219 867 q -207 794 -222 814 q -166 770 -192 774 q -114 790 -140 767 q -56 845 -79 821 q -17 883 -32 869 q 3 896 -3 897 q 23 881 8 896 q 62 843 38 867 q 119 790 86 819 q 171 772 146 768 q 212 795 196 775 q 226 841 228 815 q 197 888 225 867 q 139 940 163 915 q 96 982 115 964 q 55 1010 76 1000 q 3 1021 33 1021 q -47 1010 -26 1021 q -87 982 -68 1000 q -131 940 -107 964 q -192 888 -156 915 z "},"":{"ha":0,"x_min":-235,"x_max":239,"o":"m 239 958 q 220 1012 239 994 q 176 1030 201 1029 q 133 1015 151 1031 q 114 968 114 1000 q 111 928 114 943 q 103 906 108 913 q 90 900 99 900 q 78 905 85 900 q 66 917 72 910 q 53 934 60 925 q 39 951 46 943 q -9 998 21 975 q -85 1021 -39 1021 q -146 1007 -118 1021 q -194 969 -174 993 q -224 911 -214 944 q -235 838 -235 878 q -216 785 -235 803 q -173 765 -197 767 q -130 778 -149 764 q -110 819 -111 792 q -107 864 -108 847 q -101 888 -106 881 q -89 896 -96 896 q -75 890 -82 896 q -60 876 -68 885 q -44 854 -53 867 q 9 799 -21 822 q 86 775 39 775 q 149 789 121 775 q 197 828 176 803 q 228 886 217 853 q 239 958 239 919 z "},"":{"ha":0,"x_min":-231,"x_max":229,"o":"m 158 810 q 212 828 194 810 q 229 872 229 847 q 212 916 229 897 q 158 935 194 935 q 88 935 128 935 q 4 935 49 935 q -83 935 -40 935 q -161 935 -125 935 q -213 916 -196 935 q -231 872 -231 897 q -213 828 -231 847 q -161 810 -196 810 q -90 810 -131 810 q -3 810 -49 810 q 84 810 42 810 q 158 810 126 810 z "},"":{"ha":0,"x_min":-221,"x_max":221,"o":"m 221 964 q 202 1017 221 1000 q 158 1035 183 1035 q 115 1017 133 1035 q 96 964 96 1000 q 84 926 96 942 q 51 901 72 910 q 0 893 31 893 q -51 901 -29 893 q -84 926 -72 910 q -96 964 -96 942 q -115 1017 -96 1000 q -158 1035 -133 1035 q -202 1017 -183 1035 q -221 964 -221 1000 q -206 888 -221 924 q -162 826 -192 853 q -92 783 -133 799 q 0 768 -51 768 q 93 783 53 768 q 163 826 133 799 q 206 888 192 853 q 221 964 221 924 z "},"":{"ha":0,"x_min":-62,"x_max":63,"o":"m -62 883 q -44 835 -62 851 q 0 819 -25 819 q 44 835 25 819 q 63 883 63 851 q 63 908 63 899 q 63 928 63 918 q 63 951 63 938 q 44 999 63 983 q 0 1015 25 1015 q -44 999 -25 1015 q -62 951 -62 983 q -62 928 -62 938 q -62 908 -62 918 q -62 883 -62 899 z "},"":{"ha":0,"x_min":-201,"x_max":201,"o":"m -201 883 q -183 835 -201 851 q -139 819 -164 819 q -95 835 -114 819 q -76 883 -76 851 q -76 908 -76 899 q -76 928 -76 918 q -76 951 -76 938 q -95 999 -76 983 q -139 1015 -114 1015 q -183 999 -164 1015 q -201 951 -201 983 q -201 928 -201 938 q -201 908 -201 918 q -201 883 -201 899 m 76 883 q 95 835 76 851 q 139 819 114 819 q 183 835 164 819 q 201 883 201 851 q 201 908 201 899 q 201 928 201 918 q 201 951 201 938 q 183 999 201 983 q 139 1015 164 1015 q 95 999 114 1015 q 76 951 76 983 q 76 928 76 938 q 76 908 76 918 q 76 883 76 899 z "},"":{"ha":0,"x_min":-150,"x_max":144,"o":"m -56 865 q -105 839 -90 860 q -116 793 -119 818 q -93 752 -112 768 q -39 740 -74 736 q 57 770 15 749 q 122 829 99 792 q 144 922 144 867 q 133 991 144 961 q 99 1042 121 1021 q 47 1073 76 1063 q -19 1083 17 1083 q -94 1069 -54 1082 q -139 1035 -128 1058 q -142 988 -150 1011 q -111 951 -133 964 q -56 950 -89 939 q -17 959 -33 958 q 10 951 0 960 q 19 922 19 943 q -2 879 19 889 q -56 865 -24 869 z "},"":{"ha":0,"x_min":-172,"x_max":171,"o":"m -79 751 q -31 752 -50 740 q -4 787 -12 764 q 2 831 4 810 q -15 860 0 853 q -31 868 -25 864 q -41 878 -37 872 q -46 889 -44 883 q -47 900 -47 894 q -44 917 -47 910 q -36 931 -42 925 q -22 939 -31 936 q -3 942 -14 942 q 23 937 13 942 q 40 923 33 932 q 46 900 46 914 q 44 888 46 893 q 38 877 42 882 q 26 867 33 872 q 6 858 18 863 q -18 830 -14 851 q -13 785 -22 808 q 15 750 -4 763 q 63 747 35 738 q 141 804 111 764 q 171 900 171 844 q 149 983 171 946 q 89 1044 128 1021 q -3 1067 50 1067 q -91 1044 -53 1067 q -151 983 -129 1021 q -172 900 -172 946 q -149 808 -172 844 q -79 751 -125 771 z "},"":{"ha":0,"x_min":-206,"x_max":297,"o":"m 24 932 q 44 985 47 960 q 22 1026 40 1011 q -23 1041 3 1042 q -71 1013 -49 1040 q -103 974 -86 994 q -140 930 -121 953 q -183 879 -160 907 q -203 826 -206 853 q -181 785 -200 800 q -137 771 -162 769 q -89 799 -111 772 q -56 838 -74 817 q -19 882 -39 858 q 24 932 1 906 m 274 932 q 294 985 297 960 q 272 1026 290 1011 q 227 1041 253 1042 q 179 1013 201 1040 q 147 974 164 994 q 110 930 129 953 q 67 879 90 907 q 47 826 44 853 q 69 785 50 800 q 113 771 88 769 q 161 799 139 772 q 194 838 176 817 q 231 882 211 858 q 274 932 251 906 z "},"":{"ha":0,"x_min":-222,"x_max":228,"o":"m 197 911 q 226 958 225 932 q 213 1005 228 985 q 172 1028 197 1025 q 119 1008 146 1032 q 61 953 85 978 q 24 916 38 929 q 3 903 10 903 q -17 918 -1 904 q -56 956 -32 932 q -114 1008 -81 981 q -165 1027 -140 1031 q -206 1003 -190 1024 q -221 958 -222 983 q -192 911 -219 932 q -133 859 -157 883 q -90 817 -110 835 q -49 788 -71 799 q 3 778 -28 778 q 53 788 32 778 q 93 817 74 799 q 138 859 113 835 q 197 911 163 883 z "},"":{"ha":0,"x_min":-310,"x_max":193,"o":"m -37 932 q 6 882 -14 906 q 42 838 25 858 q 75 799 60 817 q 123 771 97 772 q 167 785 149 769 q 190 826 186 800 q 169 879 193 853 q 127 930 147 907 q 90 974 107 953 q 57 1013 72 994 q 9 1041 35 1040 q -35 1026 -17 1042 q -57 985 -54 1011 q -37 932 -60 960 m -287 932 q -244 882 -264 906 q -208 838 -225 858 q -175 799 -190 817 q -127 771 -153 772 q -83 785 -101 769 q -60 826 -64 800 q -81 879 -57 853 q -123 930 -103 907 q -160 974 -143 953 q -193 1013 -178 994 q -241 1041 -215 1040 q -285 1026 -267 1042 q -307 985 -304 1011 q -287 932 -310 960 z "},"":{"ha":0,"x_min":-221,"x_max":221,"o":"m -221 831 q -202 778 -221 796 q -158 760 -183 760 q -115 778 -133 760 q -96 831 -96 796 q -84 869 -96 854 q -51 893 -72 885 q 0 901 -29 901 q 51 893 31 901 q 84 869 72 885 q 96 831 96 854 q 115 778 96 796 q 158 760 133 760 q 202 778 183 760 q 221 831 221 796 q 206 906 221 871 q 163 969 192 942 q 93 1011 133 996 q 0 1026 53 1026 q -92 1011 -51 1026 q -162 969 -133 996 q -206 906 -192 942 q -221 831 -221 871 z "},"":{"ha":0,"x_min":-68,"x_max":107,"o":"m 89 978 q 99 1033 107 1008 q 70 1071 92 1058 q 24 1078 49 1083 q -19 1042 -1 1072 q -49 972 -39 1008 q -64 901 -60 936 q -68 835 -68 867 q -49 783 -68 800 q -6 765 -31 765 q 38 783 19 765 q 57 835 57 800 q 59 881 57 857 q 68 931 61 906 q 89 978 75 956 z "},"":{"ha":0,"x_min":-69,"x_max":288,"o":"m 0 706 q -52 687 -35 706 q -69 643 -69 668 q -52 599 -69 618 q 0 581 -35 581 q 125 603 71 581 q 215 663 179 625 q 269 750 251 701 q 288 851 288 799 q 268 903 288 886 q 224 920 249 921 q 181 902 199 919 q 163 849 163 885 q 146 776 164 808 q 92 724 128 743 q 0 706 56 706 z "},"":{"ha":0,"x_min":-62,"x_max":63,"o":"m -62 -256 q -44 -303 -62 -287 q 0 -319 -25 -319 q 44 -303 25 -319 q 63 -256 63 -287 q 63 -231 63 -240 q 63 -211 63 -221 q 63 -187 63 -201 q 44 -140 63 -156 q 0 -124 25 -124 q -44 -140 -25 -124 q -62 -187 -62 -156 q -62 -211 -62 -201 q -62 -231 -62 -221 q -62 -256 -62 -240 z "},"":{"ha":0,"x_min":-201,"x_max":201,"o":"m -201 -256 q -183 -303 -201 -287 q -139 -319 -164 -319 q -95 -303 -114 -319 q -76 -256 -76 -287 q -76 -231 -76 -240 q -76 -211 -76 -221 q -76 -187 -76 -201 q -95 -140 -76 -156 q -139 -124 -114 -124 q -183 -140 -164 -124 q -201 -187 -201 -156 q -201 -211 -201 -201 q -201 -231 -201 -221 q -201 -256 -201 -240 m 76 -256 q 95 -303 76 -287 q 139 -319 114 -319 q 183 -303 164 -319 q 201 -256 201 -287 q 201 -231 201 -240 q 201 -211 201 -221 q 201 -187 201 -201 q 183 -140 201 -156 q 139 -124 164 -124 q 95 -140 114 -124 q 76 -187 76 -156 q 76 -211 76 -201 q 76 -231 76 -221 q 76 -256 76 -240 z "},"":{"ha":0,"x_min":-93,"x_max":82,"o":"m -75 -321 q -85 -376 -93 -351 q -56 -414 -78 -401 q -10 -421 -35 -426 q 33 -385 15 -415 q 63 -315 53 -351 q 78 -244 74 -279 q 82 -178 82 -210 q 63 -124 82 -142 q 19 -107 44 -107 q -24 -124 -6 -107 q -43 -178 -43 -142 q -45 -224 -43 -199 q -54 -273 -47 -249 q -75 -321 -61 -297 z "},"":{"ha":0,"x_min":-196,"x_max":169,"o":"m 36 22 q 22 76 39 58 q -21 95 4 94 q -66 79 -46 96 q -89 28 -86 63 q -93 -67 -93 -29 q -83 -125 -93 -104 q -50 -156 -72 -146 q -6 -167 -26 -164 q 29 -173 15 -169 q 43 -190 43 -176 q 18 -212 43 -207 q -42 -216 -7 -218 q -110 -208 -78 -214 q -165 -216 -144 -201 q -191 -255 -186 -231 q -183 -301 -196 -279 q -135 -331 -169 -324 q -3 -342 -60 -346 q 91 -317 53 -337 q 149 -265 129 -296 q 168 -194 168 -233 q 157 -124 169 -151 q 123 -81 144 -96 q 72 -60 101 -65 q 50 -52 58 -57 q 38 -39 42 -47 q 35 -15 35 -31 q 36 22 35 0 z "},"":{"ha":0,"x_min":-129,"x_max":176,"o":"m 110 15 q 154 50 143 26 q 157 97 165 74 q 126 133 149 121 q 71 135 104 146 q -51 76 -8 108 q -112 7 -94 43 q -129 -69 -129 -29 q -108 -146 -129 -112 q -52 -199 -87 -179 q 29 -220 -17 -219 q 126 -199 75 -221 q 167 -160 158 -183 q 166 -115 176 -137 q 132 -83 156 -93 q 76 -85 108 -72 q 27 -99 44 -96 q 3 -94 10 -101 q -4 -69 -4 -86 q 26 -22 -4 -42 q 110 15 56 -3 z "},"":{"ha":0,"x_min":-221,"x_max":221,"o":"m 221 -147 q 202 -94 221 -111 q 158 -76 183 -76 q 115 -94 133 -76 q 96 -147 96 -111 q 84 -185 96 -169 q 51 -210 72 -201 q 0 -218 31 -218 q -51 -210 -29 -218 q -84 -185 -72 -201 q -96 -147 -96 -169 q -115 -94 -96 -111 q -158 -76 -133 -76 q -202 -94 -183 -76 q -221 -147 -221 -111 q -206 -223 -221 -187 q -162 -285 -192 -258 q -92 -328 -133 -312 q 0 -343 -51 -343 q 93 -328 53 -343 q 163 -285 133 -312 q 206 -223 192 -258 q 221 -147 221 -187 z "},"":{"ha":0,"x_min":-231,"x_max":229,"o":"m 158 -246 q 212 -227 194 -246 q 229 -183 229 -208 q 212 -140 229 -158 q 158 -121 194 -121 q 88 -121 128 -121 q 4 -121 49 -121 q -83 -121 -40 -121 q -161 -121 -125 -121 q -213 -140 -196 -121 q -231 -183 -231 -158 q -213 -227 -231 -208 q -161 -246 -196 -246 q -90 -246 -131 -246 q -3 -246 -49 -246 q 84 -246 42 -246 q 158 -246 126 -246 z "},"":{"ha":413,"x_min":65,"x_max":346,"o":"m 81 636 q 74 580 65 604 q 106 545 83 556 q 152 542 128 535 q 192 581 176 550 q 227 652 210 617 q 263 723 244 688 q 297 793 281 758 q 331 861 314 828 q 337 917 346 893 q 306 952 328 942 q 259 956 283 963 q 219 917 235 949 q 184 845 201 881 q 149 774 167 810 q 114 704 131 739 q 81 636 97 669 z "},"":{"ha":690,"x_min":65,"x_max":624,"o":"m 81 636 q 74 580 65 604 q 106 545 83 556 q 152 542 128 535 q 192 581 176 550 q 227 652 210 617 q 263 723 244 688 q 297 793 281 758 q 331 861 314 828 q 337 917 346 893 q 306 952 328 942 q 259 956 283 963 q 219 917 235 949 q 184 845 201 881 q 149 774 167 810 q 114 704 131 739 q 81 636 97 669 m 358 636 q 352 580 343 604 q 383 545 361 556 q 430 542 406 535 q 469 581 454 550 q 505 652 488 617 q 540 723 522 688 q 575 793 558 758 q 608 861 592 828 q 615 917 624 893 q 583 952 606 942 q 537 956 561 963 q 497 917 513 949 q 462 845 479 881 q 426 774 444 810 q 392 704 408 739 q 358 636 375 669 z "},"":{"ha":381,"x_min":103,"x_max":293,"o":"m 272 857 q 287 920 293 893 q 258 959 281 947 q 210 965 236 971 q 167 928 185 958 q 122 827 138 878 q 104 731 106 776 q 116 646 103 685 q 160 579 129 607 q 214 557 186 556 q 260 577 242 558 q 277 624 278 596 q 244 679 276 651 q 224 727 224 700 q 238 788 224 754 q 272 857 251 821 z "},"":{"ha":388,"x_min":89,"x_max":279,"o":"m 110 658 q 95 595 89 622 q 124 556 101 568 q 172 551 146 544 q 215 588 197 557 q 260 688 244 638 q 278 785 276 739 q 266 869 279 831 q 222 936 253 908 q 169 958 196 960 q 124 936 142 956 q 108 888 106 917 q 140 832 110 860 q 160 785 161 813 q 145 726 160 758 q 110 658 131 694 z "},"":{"ha":486,"x_min":118,"x_max":361,"o":"m 188 1061 q 135 1042 153 1061 q 118 999 118 1024 q 135 955 118 974 q 188 936 153 936 q 213 933 201 936 q 230 922 224 929 q 236 903 236 915 q 231 880 236 889 q 215 867 225 871 q 188 863 204 863 q 135 844 153 863 q 118 800 118 825 q 135 756 118 775 q 188 738 153 738 q 279 759 240 738 q 340 818 318 781 q 361 903 361 856 q 340 984 361 949 q 279 1040 318 1019 q 188 1061 240 1061 z "},"":{"ha":482,"x_min":125,"x_max":365,"o":"m 294 738 q 348 756 331 738 q 365 800 365 775 q 348 844 365 825 q 294 863 331 863 q 269 867 279 863 q 255 880 260 871 q 250 903 250 889 q 256 922 250 915 q 271 933 261 929 q 294 936 281 936 q 348 955 331 936 q 365 999 365 974 q 348 1042 365 1024 q 294 1061 331 1061 q 206 1041 244 1061 q 147 985 168 1021 q 125 903 125 949 q 146 818 125 856 q 205 759 167 781 q 294 738 243 738 z "},"":{"ha":417,"x_min":146,"x_max":271,"o":"m 271 882 q 252 935 271 918 q 208 953 233 953 q 165 935 183 953 q 146 882 146 918 q 146 765 146 829 q 146 622 146 701 q 165 570 146 588 q 208 553 183 553 q 252 570 233 553 q 271 622 271 588 q 271 739 271 675 q 271 882 271 803 z "},"":{"ha":417,"x_min":-22,"x_max":438,"o":"m 367 810 q 420 828 403 810 q 438 872 438 847 q 420 916 438 897 q 367 935 403 935 q 297 935 336 935 q 213 935 257 935 q 126 935 168 935 q 47 935 83 935 q -5 916 13 935 q -22 872 -22 897 q -5 828 -22 847 q 47 810 13 810 q 119 810 78 810 q 205 810 160 810 q 292 810 250 810 q 367 810 335 810 z "},"":{"ha":417,"x_min":128,"x_max":407,"o":"m 378 911 q 406 960 406 935 q 391 1004 407 986 q 349 1026 375 1022 q 297 1006 324 1029 q 261 975 279 990 q 226 945 243 960 q 191 916 208 931 q 157 886 174 901 q 129 838 131 864 q 144 793 128 811 q 185 772 160 775 q 238 792 211 769 q 274 822 256 807 q 309 852 292 838 q 344 882 326 867 q 378 911 361 897 z "},"":{"ha":417,"x_min":15,"x_max":294,"o":"m 185 792 q 237 772 211 769 q 278 793 263 775 q 294 838 294 811 q 265 886 293 864 q 231 916 249 901 q 197 945 214 931 q 161 975 179 960 q 125 1006 143 990 q 73 1026 99 1029 q 31 1004 47 1022 q 17 960 15 986 q 44 911 18 935 q 78 882 61 897 q 113 852 96 867 q 149 822 131 838 q 185 792 167 807 z "},"":{"ha":417,"x_min":146,"x_max":271,"o":"m 271 107 q 252 160 271 143 q 208 178 233 178 q 165 160 183 178 q 146 107 146 143 q 146 -10 146 54 q 146 -153 146 -74 q 165 -205 146 -187 q 208 -222 183 -222 q 252 -205 233 -222 q 271 -153 271 -187 q 271 -36 271 -100 q 271 107 271 28 z "},"":{"ha":904,"x_min":46,"x_max":856,"o":"m 58 76 q 58 20 46 43 q 93 -11 69 -3 q 140 -9 117 -19 q 175 35 164 1 q 194 87 185 63 q 211 135 203 111 q 229 188 219 160 q 244 219 238 207 q 264 235 251 231 q 300 240 276 240 q 358 240 329 240 q 417 240 388 240 q 478 240 447 240 q 542 240 508 240 q 587 253 569 240 q 610 284 604 265 q 610 322 615 303 q 587 353 604 340 q 542 365 569 365 q 487 365 521 365 q 420 365 453 365 q 369 365 388 365 q 331 373 344 365 q 315 395 318 381 q 316 430 313 410 q 328 474 319 450 q 354 550 340 511 q 382 628 368 589 q 410 706 396 667 q 436 782 424 744 q 447 810 443 803 q 453 813 450 818 q 464 786 457 807 q 515 644 488 722 q 569 486 542 567 q 622 331 596 406 q 668 199 647 257 q 686 149 676 176 q 706 91 696 121 q 726 35 717 61 q 761 -9 738 1 q 808 -11 785 -19 q 844 20 832 -3 q 843 76 856 43 q 823 134 833 104 q 803 192 813 164 q 785 240 793 219 q 749 344 768 286 q 708 465 729 401 q 664 595 686 529 q 619 725 642 661 q 576 846 597 789 q 520 935 554 906 q 449 965 486 965 q 378 935 411 965 q 325 847 346 906 q 294 756 310 800 q 265 672 279 713 q 235 592 250 631 q 208 515 221 553 q 190 408 189 458 q 210 321 190 358 q 270 262 231 283 q 369 240 310 240 q 397 240 378 240 q 441 240 417 240 q 492 240 465 240 q 542 240 518 240 q 587 253 569 240 q 610 284 604 265 q 610 322 615 303 q 587 353 604 340 q 542 365 569 365 q 487 365 519 365 q 419 365 454 365 q 351 365 383 365 q 300 365 319 365 q 212 349 249 365 q 151 303 175 333 q 113 229 128 274 q 94 177 103 201 q 76 128 85 153 q 58 76 68 104 m 621 1165 q 649 1215 649 1189 q 634 1258 650 1240 q 592 1280 618 1276 q 540 1260 567 1283 q 504 1229 522 1244 q 469 1199 486 1214 q 434 1170 451 1185 q 400 1140 417 1156 q 372 1092 374 1118 q 387 1047 371 1065 q 428 1026 403 1029 q 481 1046 454 1024 q 517 1076 499 1061 q 552 1106 535 1092 q 587 1136 569 1121 q 621 1165 604 1151 z "}}}
